<svg version="1.1" xmlns="http://www.w3.org/2000/svg" xmlns:xlink="http://www.w3.org/1999/xlink" width="32.65093" height="53.0201" viewBox="0,0,32.65093,53.0201"><g transform="translate(-223.67453,-153.48995)"><g data-paper-data="{&quot;isPaintingLayer&quot;:true}" fill-rule="nonzero" stroke="none" stroke-width="0.5" stroke-linecap="butt" stroke-linejoin="miter" stroke-miterlimit="10" stroke-dasharray="" stroke-dashoffset="0" style="mix-blend-mode: normal"><path d="M244.19681,201.16188c-0.09383,0.27813 -0.2555,0.52504 -0.46534,0.72103l0.94731,0.05249c0.00036,-0.70033 0.00065,-1.40067 0.00075,-2.10101zM241.47641,201.99969c-0.24292,0.12723 -0.51933,0.19918 -0.81255,0.19918c-0.01799,0 -0.03592,-0.00027 -0.05378,-0.00081c-0.05286,0.02406 -0.10714,0.04557 -0.16265,0.06438c0.39721,-0.03615 0.79648,-0.08443 1.20381,-0.14605c-0.06069,-0.03545 -0.11907,-0.07445 -0.17483,-0.1167zM244.26138,174.72555c0.01381,0.07784 0.0225,0.15745 0.02568,0.23848l0.11958,2.63079l0.04576,0.17387c-0.03122,-1.10801 -0.06666,-2.2159 -0.10689,-3.32366c-0.0268,0.09522 -0.05482,0.18877 -0.08412,0.28052zM250.95296,171.79928h-0.3118c-0.95866,0 -1.92371,0.00967 -2.89338,0.02465c0.44328,10.41614 0.4321,20.84367 0.43803,31.27134v0.62358c0,0 0,1.75382 -1.75382,1.75382c-0.25161,0 -0.46712,-0.0361 -0.65171,-0.09793c-0.4023,0.12272 -0.75425,0.09072 -0.75425,0.09072l-1.18857,-0.18764c-2.604,0.55272 -4.83395,0.66562 -7.49217,0.50321c0,0 -1.75041,-0.1094 -1.64101,-1.85981c0.03595,-0.57518 0.24909,-0.94955 0.51909,-1.19297c-0.05483,-0.23843 -0.05483,-0.41248 -0.05483,-0.41248l0.00446,-0.96633c-0.69582,-9.74266 -0.00404,-19.62935 -0.46231,-29.3919c-2.37692,-0.05727 -4.7347,-0.19754 -7.0478,-0.48364c0,0 -1.74028,-0.21754 -1.52275,-1.95781c0.11234,-0.89873 0.63079,-1.27531 1.10595,-1.42937c0.14618,-0.50111 0.48547,-0.8404 0.48547,-0.8404c3.92427,-3.91594 8.09952,-7.91982 12.23481,-11.60695l1.23705,-0.89579c0,0 1.42714,-1.01939 2.44654,0.40775c0.38205,0.53487 0.42046,1.01246 0.31913,1.40059c2.7112,3.33153 5.57912,6.54936 8.21235,9.92242l1.09128,1.40306c0,0 0.74107,0.9528 0.20316,1.89231c-0.02953,0.27118 -0.12087,0.52379 -0.25964,0.74346c-0.23755,0.62422 -0.8213,1.07774 -1.51665,1.12593c-0.39099,0.16015 -0.74662,0.16015 -0.74662,0.16015zM249.157,168.29934c-0.20055,-0.25649 -0.40256,-0.51206 -0.60585,-0.76687l-0.14547,0.77586c0.25083,-0.00348 0.50128,-0.00652 0.75132,-0.009zM238.67619,202.3158c0,0 0,0.01104 -0.00087,0.03136c0.29598,-0.00207 0.58829,-0.00969 0.87931,-0.02333c-0.33765,-0.06424 -0.641,-0.22527 -0.88007,-0.45313z" fill="#ff2a2a"/><path d="M247.63862,205.77845c-4.24855,0.50611 -8.63216,0.24905 -12.89795,0.72876c0,0 -0.77471,0.08608 -0.86079,-0.68863c-0.02677,-0.24093 0.02971,-0.41524 0.12025,-0.5411c-0.02108,-0.09832 -0.02108,-0.16856 -0.02108,-0.16856l0.00602,-0.00725c-0.43279,-3.46299 -0.31375,-6.8849 -0.6288,-10.35046c-0.00596,-7.22245 0.91511,-14.90764 0.00521,-22.07579c0,0 -0.09668,-0.77346 0.67678,-0.87014c0.77346,-0.09668 0.87014,0.67678 0.87014,0.67678c0.89026,7.2219 0.01168,14.92613 0.00522,22.1985c0.31012,3.41144 0.19153,6.77705 0.61297,10.18443c3.93231,-0.3327 7.96489,-0.11846 11.85519,-0.62513c-0.03734,-2.96055 -0.30685,-5.90603 -0.30685,-8.868c-0.6493,-7.74028 -0.20217,-15.44233 -0.20853,-23.20884c0,0 0,-0.77948 0.77948,-0.77948c0.77948,0 0.77948,0.77948 0.77948,0.77948c-0.00678,7.745 -0.43194,15.42602 0.20718,23.14405c0,3.20411 0.31246,6.38866 0.31246,9.59398v0.20786c0,0 0,0.77948 -0.77948,0.77948c-0.18156,0 -0.32083,-0.04229 -0.42766,-0.10717z" fill="#5f141a"/><path d="M234.39476,171.53945c0,0.77948 -0.77948,0.77948 -0.77948,0.77948h-0.20786c-2.50201,-0.00482 -5.06889,0.33961 -7.56054,0.10006c0,0 -0.77561,-0.07756 -0.69804,-0.85317c0.07756,-0.77561 0.85318,-0.69804 0.85318,-0.69804c2.42912,0.2539 4.9621,-0.10362 7.40542,-0.10779h0.20786c0,0 0.77948,0 0.77948,0.77948z" fill="#5f141a"/><path d="M255.1808,171.33159c0,0.77948 -0.77948,0.77948 -0.77948,0.77948h-0.31179c-2.39327,-0.01899 -4.66845,0.82065 -7.13198,0.62089c0,0 -0.77679,-0.06473 -0.71206,-0.84152c0.06473,-0.77678 0.84152,-0.71205 0.84152,-0.71205c2.41912,0.20764 4.63835,-0.61138 7.00252,-0.62628h0.31179c0,0 0.77948,0 0.77948,0.77948z" fill="#5f141a"/><path d="M255.83405,171.74352c-0.72373,0.28949 -1.01322,-0.43425 -1.01322,-0.43425l-0.11842,-0.35607c-0.53661,-0.75637 -1.13266,-1.33835 -1.60144,-2.14493c-2.76888,-4.95293 -7.05311,-9.23329 -10.86177,-13.47063c-0.94336,0.70086 -1.68609,1.52198 -2.66542,2.18396c-5.60392,4.20332 -9.88908,9.28277 -14.52499,14.43536c0,0 -0.52145,0.57938 -1.10082,0.05794c-0.57938,-0.52145 -0.05794,-1.10082 -0.05794,-1.10082c4.71501,-5.23726 9.08729,-10.39345 14.78334,-14.66511c1.02335,-0.67118 1.79681,-1.56466 2.80326,-2.28444l0.18864,-0.0761c0.04068,-0.06152 0.0939,-0.1232 0.16229,-0.18399c0.58259,-0.51786 1.10045,0.06474 1.10045,0.06474c4.02502,4.52933 8.48078,9.02512 11.52652,14.26564c0.42275,0.75619 1.00873,1.30558 1.51646,2.01227l0.29729,0.68323c0,0 0.28949,0.72373 -0.43424,1.01322z" fill="#5f141a"/></g></g></svg>