<svg version="1.1" xmlns="http://www.w3.org/2000/svg" xmlns:xlink="http://www.w3.org/1999/xlink" width="33.94538" height="44.57067" viewBox="0,0,33.94538,44.57067"><g transform="translate(-223.02731,-157.71467)"><g data-paper-data="{&quot;isPaintingLayer&quot;:true}" fill-rule="nonzero" stroke="none" stroke-linecap="butt" stroke-linejoin="miter" stroke-miterlimit="10" stroke-dasharray="" stroke-dashoffset="0" style="mix-blend-mode: normal"><path d="M256.97268,176.3607c0,4.32538 -0.91219,8.84209 -3.0873,13.04875c-1.1535,2.23085 -3.03139,4.73188 -4.76646,6.06922c-2.78261,2.14475 -5.77036,3.53407 -9.11893,3.53407c-3.57713,0 -6.94882,-1.88142 -9.75095,-4.24274c-1.81416,-1.52877 -3.38958,-2.83563 -4.62746,-5.39227c-1.86048,-3.84253 -2.59428,-9.19312 -2.59428,-13.01702c0,-2.79472 0.55968,-5.44584 1.5626,-7.82547c2.69263,-6.38875 8.58025,-10.82057 15.41009,-10.82057c5.60109,0 10.56848,2.61643 13.65968,7.21263c2.08211,3.09583 3.31301,7.28879 3.31301,11.43341z" fill="#fa6a6a" stroke-width="0"/><path d="M252.16905,178.34752c-0.54627,0 -0.54627,-0.54627 -0.54627,-0.54627l0.00083,-0.61722c-0.18451,-1.80082 -0.96505,-3.51518 -1.10008,-5.36498c0,0 -0.03892,-0.54488 0.50596,-0.5838c0.54488,-0.03892 0.5838,0.50596 0.5838,0.50596c0.12969,1.86036 0.88827,3.56523 1.10119,5.38239l0.00084,0.67765c0,0 0,0.54627 -0.54627,0.54627z" fill="#fac6c6" stroke-width="0.5"/><path d="M253.80988,180.7212c-0.54531,0.35157 -0.79055,0.13898 -0.83072,-0.24266c-0.02107,-0.02202 -0.03665,-0.04932 -0.04459,-0.07971l-0.09894,-0.34629l0.0014,-0.00041l-0.00266,-0.00422c-0.08858,-0.38546 -0.19502,-0.78375 -0.29712,-1.18811c-0.0196,-0.05477 -0.03949,-0.11084 -0.05955,-0.16804l-0.01452,0.02906c-0.0292,0.06159 -0.09194,0.10418 -0.16463,0.10418c-0.07943,0 -0.14699,-0.05086 -0.17187,-0.12179l-0.12641,-0.33508c-0.04797,-0.12714 -0.09341,-0.25187 -0.1364,-0.37532c-0.03238,0.00602 -0.06429,0.0077 -0.09541,0.00552c-0.00088,0.05759 -0.02851,0.10869 -0.071,0.14145l-0.0071,0.15863c-0.00376,0.09725 -0.08378,0.17493 -0.18195,0.17493c-0.09274,0 -0.16929,-0.06933 -0.18064,-0.15899l-0.0504,-0.35284c-0.03235,-0.14711 -0.06034,-0.28747 -0.08269,-0.42407c-0.01231,-0.01311 -0.02271,-0.02804 -0.03074,-0.04435c-0.0401,-0.02501 -0.06975,-0.0652 -0.08096,-0.11251l-0.09031,-0.34714c-0.10372,-0.36357 -0.18652,-0.70225 -0.22582,-1.04869c-0.00105,-0.00475 -0.00209,-0.00949 -0.00313,-0.01425c-0.07541,-0.01952 -0.13188,-0.08615 -0.13609,-0.16661l-0.01316,-0.21793c-0.21815,-0.6476 -0.42451,-1.43023 -0.50903,-2.20368c-0.01522,-0.07727 -0.03014,-0.15396 -0.04471,-0.22962l-0.00669,-0.02008l0.00266,-0.00088c-0.00001,-0.00001 0,-0.00003 -0.00001,-0.00004l-0.0047,-0.00565c-0.05993,-0.23896 -0.26563,-0.87816 -0.23301,-1.24285c-0.01046,-0.04984 -0.01976,-0.09144 -0.02782,-0.1236l-0.06376,-0.25501c-0.00419,-0.01532 -0.00642,-0.03147 -0.00642,-0.04813c0,-0.01185 0.00113,-0.02346 0.0033,-0.03468c-0.00065,-0.00259 -0.0013,-0.0052 -0.00193,-0.00781l0.0091,-0.02225h-0.01047v-0.10706l-0.05832,-0.23326c-0.00419,-0.01532 -0.00642,-0.03146 -0.00642,-0.04813c0,-0.06252 0.0315,-0.11766 0.0795,-0.15046c0.01208,-0.07366 0.03392,-0.15228 0.06634,-0.24028c-0.0421,-0.51809 -0.05255,-1.01928 -0.03029,-1.43422c-0.09974,-0.00097 -0.18029,-0.08212 -0.18029,-0.18209c0,-0.06689 0.03607,-0.12535 0.08982,-0.15701c0.01629,-0.02766 0.03968,-0.05064 0.06767,-0.06643l-0.00861,-0.01159c-0.15803,-0.05308 -0.2329,-0.12216 -0.15249,-0.20517l-0.02404,-0.03236c-0.02326,-0.03058 -0.03708,-0.06875 -0.03708,-0.11014c0,-0.10057 0.08152,-0.18209 0.18209,-0.18209c0.05813,0 0.1099,0.02724 0.14323,0.06966l0.09053,0.11316c0.05786,0.01425 0.10275,0.05997 0.13765,0.12487c0.00671,0.00294 0.0134,0.00582 0.02007,0.00866c0.00323,-0.00745 0.00653,-0.0148 0.00992,-0.02208c0.00521,-0.0552 0.03506,-0.10325 0.07845,-0.13299c0.03504,-0.04718 0.07541,-0.08865 0.12156,-0.12371c0.14924,-0.1134 0.62453,-0.1284 1.03934,-0.03756h0.25855l0.08776,-0.04388c0.0253,-0.01332 0.05412,-0.02086 0.0847,-0.02086c0.06145,0 0.11579,0.03044 0.14877,0.07706c0.18823,-0.04047 0.34015,-0.04411 0.40258,0.01639c0.28665,0.27779 0.40351,1.08282 0.45853,1.97749c0.40086,1.18377 0.54681,2.53486 0.70453,3.84684c0.04218,0.17742 0.08111,0.35486 0.11532,0.53239c0.07486,0.31299 0.15016,0.62659 0.22507,0.94144c0.12711,0.53426 0.35482,1.12961 0.25933,1.6516c0.00661,0.03937 0.01333,0.07862 0.02014,0.11779l0.03977,0.01326l-0.02261,0.06782c0.02724,0.1221 0.04898,0.25508 0.06704,0.39262c0.0013,0.0074 0.00262,0.01482 0.00392,0.02222l0.09721,0.29078l-0.00524,0.00175l0.00973,0.01396c0.02906,0.19887 0.05983,0.37522 0.08309,0.54332c0.04046,0.18453 0.06468,0.38343 0.0836,0.57651h0.01633v0.17645c0.01651,0.18541 0.03118,0.35907 0.05459,0.50153l-0.00416,0.01061l0.00497,-0.00025l0.00907,0.18343c0.0002,0.00342 0.00029,0.00688 0.00029,0.01036c0,0.04249 -0.01455,0.08159 -0.03895,0.11257l0.02827,0.08479c0.00692,0.01925 0.01068,0.03999 0.01068,0.06162c0,0.10057 -0.08152,0.18209 -0.18209,0.18209c-0.02163,0 -0.04237,-0.00377 -0.06162,-0.01069l-0.09597,-0.03199c-0.0145,0.0322 -0.03807,0.05942 -0.06747,0.07841l-0.08958,0.05972c-0.05273,0.0849 -0.13223,0.11266 -0.2458,0.05269z" fill="#fac6c6" stroke-width="0.5"/><path d="M246.41904,169.38463c0,-0.10057 0.08152,-0.18209 0.18209,-0.18209c0.10057,0 0.18209,0.08152 0.18209,0.18209c0,0.10057 -0.08153,0.18209 -0.18209,0.18209c-0.10057,0 -0.18209,-0.08152 -0.18209,-0.18209z" fill="#fa6a6a" stroke-width="0.5"/><path d="M253.67134,167.50587c0.06595,0.72537 -0.65942,0.79131 -0.65942,0.79131l-0.31113,0.02785c-0.1024,0.08564 -0.22869,0.14367 -0.36741,0.16263l-0.80561,0.12394c-0.25864,0.06401 -0.52311,0.08966 -0.79016,0.09003l0.02047,0.10235l-0.63716,0.12744l0.04622,0.26189l-0.00979,0.00172c0.077,0.36682 0.15339,0.73337 0.22963,1.09966c0.73586,2.23342 1.09587,4.67775 1.75228,6.90262l0.01219,-0.00386l0.38334,1.21392c0.0079,0.02316 0.01468,0.04683 0.02026,0.07098c0.19937,0.64196 0.3959,1.30788 0.62872,2.00602l0.2536,0.76078c0.02767,0.07698 0.04276,0.15996 0.04276,0.24646c0,0.12748 -0.03275,0.24731 -0.0903,0.35154c0.04437,0.18705 0.08936,0.38171 0.13639,0.58531l0.04602,0.12768c0,0 0.23034,0.69098 -0.46065,0.92132c-0.69098,0.23034 -0.92132,-0.46065 -0.92132,-0.46065l-0.08348,-0.26078c-0.17348,-0.75246 -0.60038,-1.6042 -0.6876,-2.36573c-0.05042,0.01105 -0.1028,0.01687 -0.15653,0.01687c-0.3063,0 -0.56843,-0.18907 -0.67608,-0.45688l-0.38185,-0.89097l0.21769,-0.09329c-0.6635,-1.20733 -0.84804,-2.4457 -1.23864,-4.02825l0.01949,-0.06473l-0.02672,0.00192l-0.05415,-0.75817c-0.36171,-0.09387 -0.49301,-0.48775 -0.49301,-0.48775l-0.27686,-0.8399c-0.19147,-1.31212 -0.49493,-2.61386 -0.60003,-3.93133c0,0 -0.05586,-0.72622 0.67036,-0.78208c0.01872,-0.00144 0.03699,-0.00236 0.05482,-0.00279c0.02417,-0.02362 0.05113,-0.04593 0.08117,-0.06646c0.00611,-0.02004 0.01306,-0.03971 0.02081,-0.05897c-0.18696,-0.104 -0.50609,-0.36286 -0.33872,-0.86499c0.23033,-0.69099 0.92131,-0.46066 0.92131,-0.46066c0.44253,0.15413 0.91968,0.22767 1.38825,0.2216h0.77692v0c0.1531,0 0.29516,0.04723 0.41241,0.12792l0.39099,-0.05585l0.74924,-0.06906c0,0 0.72536,-0.06595 0.79131,0.65942z" fill="#fa6a6a" stroke-width="0.5"/><path d="M252.25253,181.09543c0.52383,-0.07686 1.03948,-0.22937 1.52807,-0.43331l0.72276,-0.12455c0.0224,-1.09974 -0.35199,-2.14981 -0.58554,-3.22786c-0.59453,-2.74419 -1.28889,-5.93911 -1.36903,-8.77392c-0.04626,-0.09572 -0.0722,-0.2031 -0.0722,-0.31655c0,-0.14296 0.04119,-0.2763 0.11235,-0.38879c0.07057,-0.20927 0.24578,-0.46905 0.68076,-0.46905c0.72837,0 0.72837,0.72836 0.72837,0.72836c-0.02468,4.2623 2.26357,8.66609 1.93978,12.87964l0.00252,0.45745c0,0 0.00001,0.72836 -0.72836,0.72836c-0.10655,0 -0.19751,-0.01558 -0.27517,-0.0422c-0.13371,0.0422 -0.24278,0.0422 -0.24278,0.0422l-0.06733,-0.02567c-0.07242,0.01974 -0.14471,0.03926 -0.21689,0.05863l-0.23631,0.1356c-0.41256,0.11198 -0.83032,0.20615 -1.25074,0.28453c-0.147,0.04718 -0.29366,0.09701 -0.44005,0.15048c0,0 -0.68451,0.24891 -0.93342,-0.4356c-0.11631,-0.31984 -0.02882,-0.54457 0.0974,-0.69325c0.09438,-0.45585 0.60585,-0.53453 0.60585,-0.53453z" fill="#fa6a6a" stroke-width="0.5"/><path d="M239.32038,197.86579c0.11298,-0.19049 0.34069,-0.41216 0.77021,-0.31671c0.71102,0.15801 0.55301,0.86902 0.55301,0.86902l-0.02084,0.08528c0.7854,0.64473 0.91969,2.75397 0.50069,3.28461c-0.53983,0.68368 -2.75549,0.63244 -3.32448,0.03007c-1.12501,-1.19101 0.13594,-2.61395 0.73212,-3.60897c0,0 0.29169,-0.48615 0.78929,-0.34329z" fill="#fa6a6a" stroke-width="0.5"/></g></g></svg>