<svg version="1.1" xmlns="http://www.w3.org/2000/svg" xmlns:xlink="http://www.w3.org/1999/xlink" width="10.74695" height="27.28527" viewBox="0,0,10.74695,27.28527"><g transform="translate(-234.62653,-166.35736)"><g data-paper-data="{&quot;isPaintingLayer&quot;:true}" fill-rule="nonzero" stroke="none" stroke-width="0.5" stroke-linecap="butt" stroke-linejoin="miter" stroke-miterlimit="10" stroke-dasharray="" stroke-dashoffset="0" style="mix-blend-mode: normal"><path d="M238.15128,166.72797l0.18794,-0.03651c0.22595,-0.00236 0.55567,-0.03544 0.73943,0.13938c0.00332,0.00317 0.00662,0.00636 0.00989,0.00958l0.00157,-0.00226l0.15181,0.10568c0.22876,0.09976 0.45607,0.24293 0.54785,0.48752c0.00083,0.00221 0.00164,0.00443 0.00243,0.00664l0.00132,-0.00081l0.05483,0.08893c0.02689,-0.02767 0.05458,-0.05372 0.08309,-0.07786c0.0499,-0.04224 0.11499,-0.05949 0.1792,-0.07796c0.07863,-0.07709 0.16982,-0.1452 0.27333,-0.20303c0.10064,-0.05622 0.22754,-0.14822 0.35935,-0.19224c-0.00061,-0.00561 -0.00096,-0.01129 -0.00104,-0.01705c-0.00058,-0.04793 0.01833,-0.09157 0.04936,-0.12337l0.12195,-0.12495l0.01327,0.01295l0.01791,-0.03825c0.47324,-0.169 1.0347,-0.10953 1.5347,-0.10599c0.13794,0.00098 0.28959,-0.05073 0.41373,0.00942c0.16767,0.08124 0.26792,0.17833 0.31449,0.28182l0.10421,-0.01055c0.08085,0.03928 0.46971,0.19796 0.49878,0.32749c0.00733,0.03265 0.00896,0.06545 0.00679,0.09834c0.07482,0.06581 0.13393,0.11789 0.1442,0.12692l0.02741,0.07008c0.108,0.13613 0.27752,0.37184 0.31643,0.42506l0.00203,0.01243c0.10207,0.11856 0.18872,0.28275 0.25419,0.39341l0.05029,0.37711c0.11235,0.10607 0.10434,0.24724 0.13444,0.46344l-0.00343,0.00915c0.00118,0.00332 0.00233,0.00668 0.00345,0.01006c0.01135,0.0178 0.02142,0.03639 0.02985,0.05601c0.04426,0.10305 0.00472,0.22425 0.00631,0.3364c0.00404,0.28372 -0.05938,0.53237 -0.1262,0.80705l-0.09511,0.0989c-0.02583,0.1308 -0.05783,0.25995 -0.12353,0.38471c-0.08117,0.15414 -0.19854,0.27204 -0.32451,0.38301c-0.0289,0.0507 -0.0897,0.08264 -0.13135,0.12558c-0.10854,0.11191 -0.21709,0.20724 -0.32994,0.29082l-0.00776,0.01435l-0.00511,-0.00276c-0.0052,0.0116 -0.01078,0.02305 -0.01676,0.03434c-0.0477,0.09 -0.15962,0.12626 -0.24396,0.18402c-0.12043,0.08901 -0.32328,0.29242 -0.48705,0.30183c-0.02322,0.0114 -0.04695,0.02259 -0.0713,0.03353l-0.00829,-0.00188l0.00152,0.00438l-0.14387,0.0499c0.01795,0.02695 0.02857,0.05922 0.02898,0.09399l0.00224,0.18518c0.00035,0.04738 -0.00327,0.09524 -0.00897,0.14335c0.00434,0.02762 0.00706,0.05565 0.0104,0.08236c0.03218,0.25745 0.00813,0.56361 0.01129,0.8236c0.00021,0.01838 0.00042,0.03677 0.00059,0.05519c0.0534,0.30336 0.10431,0.60712 0.13447,0.92158c0.02775,0.28935 -0.02676,0.61204 -0.0401,0.90182c-0.00952,0.20702 -0.01496,0.44867 -0.04104,0.68648c0.01143,0.1049 0.02505,0.20917 0.04122,0.31265c0.05212,0.33353 -0.03991,0.65647 0.07287,0.98158c0.03509,1.5493 -0.08422,3.05222 -0.0655,4.5968c0.00438,0.36127 0.00643,0.71708 0.02537,1.07231c0.04957,0.01844 0.08851,0.05893 0.10479,0.10965l0.06266,0.18063l-0.01081,0.00375l0.01781,0.02326c0.01718,0.91442 0.02442,1.82909 0.03551,2.74361c0.00468,0.38605 0.01083,0.73852 -0.03484,1.10996l0.15741,0.1022l-0.00243,0.00374c0.00545,0.00203 0.01089,0.00412 0.01631,0.00628c0.0366,0.01465 0.07708,0.04587 0.11833,0.08484c0.12156,0.00087 0.25081,0.07818 0.37215,0.16663c0.16351,0.05927 0.31571,0.14305 0.44724,0.26222c0.01314,0.00425 0.02579,0.00954 0.03763,0.01666c0.20622,0.12395 0.27832,0.30354 0.3794,0.49894c0.12894,0.24927 0.28085,0.49944 0.3336,0.78521c0.08361,0.45293 0.07511,0.91824 0.08076,1.38494c0.00089,0.55928 -0.22169,1.21431 -0.57481,1.66035c-0.15388,0.19437 -0.34048,0.23381 -0.53258,0.35274c-0.16694,0.10335 -0.32029,0.23187 -0.50494,0.32306c-0.12728,0.06287 -0.27813,0.05718 -0.41786,0.08221c-0.33312,0.05969 -0.62383,0.0592 -0.9518,-0.04034c-0.02003,0.02163 -0.0455,0.03815 -0.07427,0.04738l-0.18064,0.06265l-0.00155,-0.00446c-0.00831,0.00411 -0.01679,0.00796 -0.02547,0.01146c-0.32276,0.13077 -0.6889,-0.20662 -0.89632,-0.40814c-0.01205,-0.01171 -0.02411,-0.0234 -0.03618,-0.03509c-0.02945,0.05201 -0.085,0.0874 -0.14907,0.08819c-0.02916,0.00036 -0.05672,-0.0065 -0.08099,-0.01891l-0.24525,-0.11892l0.01391,-0.02868c-0.07735,-0.02578 -0.15138,-0.05888 -0.21937,-0.10313c-0.04902,-0.0319 -0.10485,-0.05584 -0.1524,-0.0895c-0.02444,0.01619 -0.04902,0.03146 -0.07396,0.04543c0.00135,0.0084 0.00211,0.01701 0.00221,0.02578c0.00041,0.03404 -0.009,0.06591 -0.0256,0.09291c0.01725,0.02659 0.02743,0.05822 0.02784,0.09226c0.00084,0.0693 -0.03905,0.12961 -0.09742,0.15815l-0.24206,0.12472v0c-0.39525,0.32777 -0.90513,0.40763 -1.36744,0.28882c-0.03126,0.03408 -0.07598,0.05568 -0.12587,0.05628c-0.01588,0.00019 -0.03128,-0.00175 -0.04595,-0.00557l-0.24386,-0.05784l0.00061,-0.00261l-0.00708,0.00095c-0.00802,-0.00256 -0.01604,-0.00514 -0.02405,-0.00774c-0.02231,-0.00511 -0.04437,-0.01286 -0.06631,-0.02193c-0.12792,-0.04317 -0.25464,-0.09098 -0.37939,-0.14358c-0.0752,-0.02846 -0.14674,-0.06012 -0.2148,-0.09637c-0.07254,-0.03456 -0.14423,-0.07086 -0.2149,-0.10891l-0.05092,0.01767l-0.00277,-0.00796c-0.01676,0.00718 -0.03405,0.01312 -0.05203,0.01753c-0.15329,0.0376 -0.53783,-0.25192 -0.62838,-0.35976c-0.05851,-0.06967 -0.09155,-0.15659 -0.13043,-0.23955c-0.28553,-0.18085 -0.56102,-0.47722 -0.71022,-0.77659c-0.06332,-0.12706 -0.05718,-0.27813 -0.08221,-0.41786c-0.05269,-0.29411 -0.07091,-0.55119 -0.07212,-0.85727c0.06693,-0.20921 0.03706,-0.40208 0.13153,-0.60565c0.11531,-0.24847 0.24114,-0.49918 0.36137,-0.74517c0.06515,-0.1333 0.17811,-0.23962 0.2424,-0.37333c0.1815,-0.37753 0.42132,-0.71965 0.79402,-0.94529c0.15688,-0.09498 0.39269,-0.16098 0.60899,-0.15178c0.0231,-0.02102 0.03724,-0.03371 0.03817,-0.03415v0c0.00249,-0.00118 0.00498,-0.00233 0.00748,-0.00346c-0.0085,-0.37937 -0.02612,-0.75623 -0.07312,-1.13443c-0.01465,-0.1179 0.0247,-0.23525 0.04772,-0.35296c-0.01304,-0.2613 -0.0186,-0.52415 -0.02054,-0.78736c-0.0034,-0.04614 -0.00669,-0.09269 -0.00959,-0.13936c-0.01868,-0.1007 -0.03563,-0.20159 -0.03764,-0.30364c-0.00179,-0.34935 -0.06986,-0.67102 -0.07416,-1.0254c-0.00934,-0.76995 0.0418,-1.51546 0.03404,-2.28451c-0.00392,-0.38966 -0.07362,-0.76745 -0.07522,-1.16251c-0.00049,-0.12046 -0.0317,-0.24525 0.00034,-0.36137c0.00119,-0.00431 0.00242,-0.00861 0.00367,-0.0129l-0.00215,-0.00033l0.05249,-0.34035c0.0035,-0.02564 0.01259,-0.04953 0.02604,-0.07037c-0.01755,-0.23391 -0.03446,-0.46772 -0.03735,-0.70628c-0.00652,-0.53802 0.04779,-1.11549 -0.01915,-1.64944c-0.03904,-0.31143 -0.06971,-0.58805 -0.07353,-0.90362c-0.0014,-0.11573 -0.03247,-0.23496 -0.00421,-0.34719l-0.00374,-0.30861c-0.00078,-0.06358 0.03273,-0.1196 0.08336,-0.15045c-0.00981,-0.02253 -0.01841,-0.04537 -0.02205,-0.06942c-0.04039,-0.26664 0.02438,-0.54745 -0.01138,-0.81424c-0.05362,-0.40001 -0.07413,-0.77487 -0.07091,-1.17952c0.00095,-0.11928 -0.02786,-0.2426 0.003,-0.35781c0.00093,-0.00345 0.00186,-0.00689 0.00283,-0.01033l-0.00178,-0.00024l0.0446,-0.34177c0.00551,-0.04828 0.03088,-0.09062 0.06779,-0.11857c-0.01653,-0.03877 -0.03642,-0.07814 -0.055,-0.11759c-0.06242,-0.02553 -0.12412,-0.0525 -0.1854,-0.08175c-0.3614,-0.0677 -0.70778,-0.29746 -0.90893,-0.58254l-0.05346,-0.05218v0l-0.12494,-0.12195c-0.0318,-0.03103 -0.05175,-0.0742 -0.05233,-0.12214c-0.00027,-0.02152 0.0034,-0.04217 0.01033,-0.06128c-0.00986,-0.02071 -0.01943,-0.0428 -0.02836,-0.06593c-0.02963,-0.04287 -0.0483,-0.08891 -0.04554,-0.14112c0.00013,-0.00235 0.00027,-0.00468 0.00042,-0.007c-0.06216,-0.09664 -0.10005,-0.21486 -0.15798,-0.29952c-0.06166,-0.0901 -0.1378,-0.17728 -0.18455,-0.2753c-0.07077,-0.06444 -0.12679,-0.12954 -0.14929,-0.18785c-0.05447,-0.14121 -0.0575,-0.24629 -0.0261,-0.32601c-0.08854,-0.10781 -0.1609,-0.22433 -0.17931,-0.33632c-0.03777,-0.22968 0.06818,-0.31832 0.20767,-0.38579c-0.03723,-0.33868 0.03026,-0.7349 0.24764,-0.98491c0.00148,-0.0017 0.00296,-0.00342 0.00443,-0.00514c-0.00825,-0.17972 0.06538,-0.36086 0.22659,-0.40954c0.027,-0.00815 0.05428,-0.01197 0.08178,-0.01255l-0.00011,-0.00898l0.07422,-0.0009c0.0112,-0.02067 0.02368,-0.0407 0.03723,-0.06009c-0.13347,-0.27367 0.03774,-0.65335 0.29153,-0.78832c0.02678,-0.01424 0.68109,-0.14173 0.73268,-0.15035c0.38078,-0.06364 0.77744,-0.0874 1.16145,-0.03088c0.04008,-0.05864 0.11317,-0.07418 0.11317,-0.07418zM244.30553,168.66895c0.00016,0.00131 0.00033,0.00262 0.0005,0.00393c0.0001,-0.00006 0.00019,-0.0001 0.00028,-0.00016c-0.00027,-0.00126 -0.00052,-0.00251 -0.00078,-0.00377zM238.44008,190.68435c-0.00014,0.00007 -0.01187,0.00578 -0.03202,0.01562c0.00385,0.01537 0.00756,0.03074 0.01115,0.0461c0.00284,-0.00062 0.00569,-0.00125 0.00853,-0.00187c0.02168,-0.00901 0.04336,-0.01803 0.06506,-0.02704c0.00591,-0.00477 0.01177,-0.00956 0.01761,-0.01437c-0.00326,-0.01617 -0.00662,-0.03234 -0.01007,-0.04848c-0.02005,0.00998 -0.04013,0.02 -0.06024,0.03005zM240.70493,191.90327c-0.00417,-0.00101 -0.01755,-0.00479 -0.03786,-0.01066c-0.0214,0.01406 -0.04378,0.02874 -0.06664,0.04368c0.03618,0.0146 0.07347,0.02708 0.11189,0.0381l0.0536,-0.00065c-0.01096,-0.02056 -0.0205,-0.04147 -0.02838,-0.0627c-0.01087,-0.00256 -0.02174,-0.00515 -0.0326,-0.00778zM240.96687,177.69648c0.00528,0.01001 0.01045,0.02012 0.01556,0.03029c-0.00335,-0.01463 -0.00671,-0.02925 -0.01006,-0.04387c-0.00181,0.00454 -0.00366,0.00907 -0.00551,0.01358zM244.38099,188.88585c-0.00303,0.05625 -0.03089,0.10243 -0.07034,0.14372c-0.00028,0.00632 -0.00062,0.01266 -0.00101,0.01899c0.07111,0.07512 0.1365,0.15887 0.19816,0.24368c-0.02915,-0.13893 -0.06706,-0.27618 -0.11656,-0.41193c-0.00332,0.00047 -0.00667,0.00085 -0.01005,0.00114c-0.00007,0.00147 -0.00014,0.00293 -0.00022,0.00441zM238.70314,171.29899c0.00539,0.00702 0.01078,0.01402 0.01615,0.02105c0.00856,0.00114 0.01712,0.0023 0.02569,0.00347c-0.03521,-0.0249 -0.06078,-0.06258 -0.06987,-0.10639c-0.01525,-0.00472 -0.03051,-0.00944 -0.04574,-0.01415c0.02459,0.03201 0.04919,0.06401 0.07379,0.09602zM237.95932,175.60202c0.00168,0.23404 -0.00148,0.46833 -0.00703,0.70072c0.00426,0.03131 0.00866,0.06262 0.0132,0.09392c0.00861,-0.00474 0.01721,-0.00946 0.02571,-0.01418c-0.00833,-0.2602 -0.01927,-0.52033 -0.03188,-0.78046zM240.97863,178.45197c0.00899,0.00031 0.01782,0.0013 0.02642,0.00294c-0.00012,-0.01076 -0.00022,-0.02152 -0.00035,-0.03229c-0.01051,-0.01152 -0.02087,-0.02311 -0.0306,-0.03501c0.00152,0.02145 0.00303,0.0429 0.00454,0.06436zM241.98895,173.75727c-0.00115,0.00016 -0.00232,0.0003 -0.00349,0.00044c-0.00067,0.00335 -0.00135,0.00671 -0.00203,0.01007c0.00172,-0.00357 0.00356,-0.00708 0.00551,-0.01049zM241.90615,174.15296l0.02557,-0.13844c-0.02911,0.13398 -0.05981,0.26779 -0.09178,0.40142c0.00308,0.01935 0.00562,0.0388 0.00773,0.05834c0.01924,-0.10714 0.03872,-0.21425 0.0585,-0.32132zM244.56438,190.83379l0.02348,0.06769c0.01106,-0.06243 0.01833,-0.12602 0.02105,-0.19133c-0.01382,0.04158 -0.02888,0.08293 -0.04452,0.12364zM238.85265,192.4837c0.03877,-0.01372 0.07756,-0.02792 0.11651,-0.04155c-0.09472,0.02457 -0.18495,0.04751 -0.2739,0.06722c0.05284,-0.0077 0.10519,-0.01456 0.15739,-0.02567zM237.8927,192.61214c0.00024,0.00022 0.00047,0.00046 0.0007,0.00069c0.01807,-0.01872 0.04032,-0.03341 0.06527,-0.04253c-0.03432,0.00006 -0.06938,0.00241 -0.10432,0.00442zM243.64112,189.89088c0.01024,0.00492 0.02051,0.01015 0.03082,0.01569c0.01537,-0.01367 0.02951,-0.02909 0.04257,-0.04586c-0.00073,0.00038 -0.00148,0.00074 -0.00223,0.00111c-0.02452,0.01204 -0.04823,0.02166 -0.07117,0.02905zM241.52597,173.35994c-0.00005,0 -0.0001,0 -0.00015,0c-0.00045,0.015 -0.00083,0.03 -0.00113,0.04498c-0.00215,0.10501 -0.0008,0.21063 0.00281,0.31657c0.00655,-0.03233 0.01365,-0.06444 0.02136,-0.0963c0.00857,-0.09113 0.01692,-0.18193 0.02489,-0.27251c-0.01515,0.00454 -0.03119,0.00706 -0.04779,0.00726zM241.79858,167.40066c-0.00796,0.00058 -0.01588,0.00118 -0.02374,0.00178c0.0012,0.00048 0.0024,0.00097 0.0036,0.00145c0.00668,-0.00115 0.01339,-0.00223 0.02014,-0.00323zM239.12069,172.59261c0.01955,-0.01801 0.03968,-0.03467 0.06033,-0.0501c-0.02063,-0.03028 -0.0413,-0.06055 -0.06204,-0.09075zM241.1313,167.05455l-0.01004,0.00416c0.00093,0.00097 0.00184,0.00195 0.00276,0.00293c0.00245,-0.00235 0.00488,-0.00471 0.00728,-0.00709zM235.84826,191.65624c-0.04741,-0.03568 -0.09244,-0.07378 -0.13002,-0.11933c-0.07912,-0.09591 -0.1393,-0.19522 -0.18322,-0.29695c0.00555,0.03102 0.01445,0.06091 0.02949,0.08877c0.09114,0.16883 0.22433,0.34056 0.37642,0.47925c0.00231,-0.00146 0.00465,-0.00285 0.00702,-0.0042c-0.03455,-0.04952 -0.06775,-0.09849 -0.09969,-0.14755zM238.67036,180.49364c-0.00557,-0.01385 -0.01105,-0.02775 -0.01643,-0.04163c0.00418,0.046 0.0083,0.09201 0.01236,0.13802c0.00169,-0.01569 0.00327,-0.03144 0.00484,-0.04718c-0.00025,-0.01641 -0.00051,-0.03281 -0.00078,-0.04922zM237.84581,180.70597c0.00673,0.00087 0.01336,0.00212 0.01983,0.00374c-0.0134,-0.14563 -0.02767,-0.29103 -0.04282,-0.43614c0.00694,0.14419 0.01465,0.28832 0.02299,0.4324zM237.16492,188.76503c-0.0033,-0.01304 -0.00588,-0.02589 -0.00779,-0.03855c-0.00821,0.00844 -0.01641,0.01687 -0.02462,0.0253c0.01079,0.00425 0.0216,0.00867 0.03241,0.01325zM236.17073,170.41425c0.01381,0.0177 0.02796,0.03525 0.0425,0.05262c0.02872,0.01404 0.0583,0.02701 0.08864,0.03891c0.01382,-0.00146 0.02743,-0.00306 0.04069,-0.00491l-0.10853,-0.07046c-0.00749,-0.00471 -0.01459,-0.00997 -0.02125,-0.01573c-0.01406,-0.00037 -0.02809,-0.00051 -0.04204,-0.00041zM237.78824,171.62482c0.02525,-0.01162 0.05073,-0.02319 0.07635,-0.03461c-0.05557,-0.00171 -0.11109,-0.00333 -0.16655,-0.00498c0.03051,0.01239 0.06095,0.02525 0.09021,0.03959zM236.12593,169.93547c0.01463,0.01192 0.02934,0.02311 0.04416,0.03363c0.003,-0.00038 0.00597,-0.00078 0.00893,-0.00124c0.11828,-0.01812 0.23744,-0.02997 0.35616,-0.04495c0.01501,0.00013 0.02991,0.00022 0.04472,0.00033c-0.10052,-0.01405 -0.20106,-0.023 -0.30175,-0.0145c-0.05158,0.00435 -0.10218,0.01399 -0.15221,0.02672zM236.88816,167.60387c0.01001,0.00409 0.02011,0.00804 0.03031,0.01188c0.0759,-0.02769 0.14913,-0.05374 0.20739,-0.07316c-0.07961,0.0188 -0.15896,0.03874 -0.2377,0.06128zM241.27866,166.96303l0.01034,0.02497c0.09375,-0.02518 0.19014,-0.04614 0.28782,-0.06129c-0.09426,0.00465 -0.19627,0.01884 -0.29816,0.03632zM238.99706,184.48982c0.00901,-0.00312 0.01739,-0.00599 0.02507,-0.00863c-0.00059,-0.07088 -0.00108,-0.14178 -0.00151,-0.21267c-0.00652,-0.00589 -0.01322,-0.01173 -0.02004,-0.01752c-0.00118,0.0796 -0.00235,0.15921 -0.00352,0.23882zM239.01823,183.65264c-0.00007,-0.02655 -0.00013,-0.0531 -0.00019,-0.07965c-0.00249,-0.00511 -0.00498,-0.01021 -0.00747,-0.01533c-0.00047,0.03359 -0.00093,0.06718 -0.00139,0.10076c0.00301,-0.00192 0.00603,-0.00386 0.00905,-0.00579zM239.02662,184.88962c-0.00016,-0.01098 -0.0003,-0.02195 -0.00045,-0.03293c-0.01153,0.0049 -0.0231,0.00964 -0.03472,0.01417c-0.00015,0.01018 -0.0003,0.02035 -0.00045,0.03053c0.01154,-0.00383 0.02345,-0.00776 0.03563,-0.01177z" fill="#ffffff"/><path d="M237.77705,193.27286l-0.14685,-0.05822c-0.05218,-0.04072 -0.10175,-0.08027 -0.1493,-0.11931c-0.2704,-0.08943 -0.5635,-0.19864 -0.78091,-0.36199c-0.6749,-0.50709 -1.11699,-1.25882 -1.26434,-2.08264c-0.00855,-0.56609 0.00271,-1.21084 0.31322,-1.71444c0.08291,-0.13446 0.21956,-0.22848 0.31292,-0.35592c0.0839,-0.11451 0.12557,-0.25634 0.20984,-0.37058c0.29759,-0.40342 0.81635,-0.76798 1.25492,-0.99498c0,0 0.0052,-0.00267 0.01417,-0.00609c0.01488,-0.00856 0.03014,-0.01682 0.0458,-0.02479c0.06424,-0.0327 0.15014,-0.06745 0.2438,-0.0941l-0.00021,-0.018c-0.01354,0.00357 -0.02774,0.00556 -0.04237,0.00574c-0.06767,0.00082 -0.12677,-0.03719 -0.15609,-0.09333c-0.0098,0.00184 -0.01989,0.00286 -0.0302,0.00299c-0.09588,0.00116 -0.17454,-0.07561 -0.1757,-0.17149l-0.00225,-0.18516l0.00597,-0.00007l-0.00568,-0.01223c0.00833,-0.06381 0.01495,-0.1274 0.02007,-0.19082c-0.0073,-0.0528 -0.00013,-0.10664 0.00995,-0.16066c0.01749,-0.40006 -0.01737,-0.79507 -0.0488,-1.19786c-0.0313,-0.40106 -0.05138,-0.8072 -0.06502,-1.21401c-0.01354,-0.12795 -0.02899,-0.25568 -0.047,-0.38313c-0.00329,-0.26991 0.00616,-0.53824 0.021,-0.80603c-0.00107,-0.07735 -0.00209,-0.15456 -0.00307,-0.23162c-0.00671,-0.65385 -0.1512,-1.2978 -0.11575,-1.95749c0.01723,-0.32064 0.07844,-0.63774 0.12953,-0.95647c-0.01383,-0.17167 -0.02341,-0.34349 -0.02447,-0.5156c-0.00062,-0.10215 0.01118,-0.20438 0.02933,-0.30669c-0.00409,-0.24111 -0.00779,-0.48215 -0.01039,-0.72291c0.03984,-0.25829 0.05791,-0.52441 0.0616,-0.79218c-0.08177,-0.22632 -0.18361,-0.44847 -0.23209,-0.67606c-0.02625,-0.12324 -0.0138,-0.25229 -0.03633,-0.37626c-0.10961,-1.14652 -0.21776,-2.3412 -0.04398,-3.48694c-0.13154,-0.08583 -0.24995,-0.19224 -0.36053,-0.30998c-0.10639,-0.08475 -0.21056,-0.19244 -0.28121,-0.24064c-0.05851,-0.03992 -0.28248,-0.15553 -0.32613,-0.19306c-0.62463,-0.53699 -0.97613,-1.20844 -1.10183,-2.0138l0.05897,-0.19454c-0.00068,-0.27578 0.03711,-0.52784 0.10995,-0.76529c0.00496,-0.16638 0.02276,-0.32913 0.06863,-0.47214c0.10843,-0.33809 0.38523,-0.55646 0.65777,-0.7589c0.05753,-0.07145 0.11883,-0.13917 0.18822,-0.19618c0.20659,-0.16978 0.47132,-0.32254 0.7424,-0.44661c0.02063,-0.01563 0.04487,-0.02676 0.07129,-0.0319c0.07965,-0.03486 0.15945,-0.06716 0.23811,-0.09662c0.09993,-0.06467 0.19874,-0.12591 0.27712,-0.19004l0.01247,-0.00198l-0.00276,-0.00448l0.15075,-0.09295c0.02643,-0.01693 0.05776,-0.02692 0.09145,-0.02732c0.02772,-0.00033 0.05399,0.00584 0.07738,0.0171c0.0231,-0.01183 0.04922,-0.01864 0.07693,-0.01898c0.09588,-0.00116 0.17454,0.07561 0.1757,0.17149c0.00058,0.04793 -0.01832,0.09158 -0.04936,0.12337v0l-0.12194,0.12494l-0.00187,-0.00183c-0.00165,0.00285 -0.00332,0.00569 -0.00503,0.00851c-0.01446,0.02403 -0.03553,0.04222 -0.0587,0.05863c-0.03504,0.05097 -0.09322,0.07116 -0.09322,0.07116c-0.00309,0.00107 -0.00616,0.00214 -0.00925,0.00321c-0.20748,0.19008 -0.47488,0.39066 -0.63804,0.62049c-0.18473,0.26023 -0.25935,0.59969 -0.33181,0.90122c-0.05203,0.21649 -0.14077,0.42224 -0.19157,0.63829c0.03846,0.1838 0.02021,0.34095 0.05426,0.52836c0.03598,0.19802 0.15733,0.37349 0.2172,0.55987c0.10017,0.31186 0.17539,0.5999 0.3116,0.90142c0.10335,0.2288 0.36182,0.35411 0.51161,0.54741c0.15924,0.20551 0.23543,0.3236 0.44212,0.49138c0,0 0.13471,0.10952 0.02519,0.24423c-0.00616,0.00758 -0.0124,0.01439 -0.01869,0.02049c0.12121,0.04813 0.22257,0.12033 0.24193,0.22481c0.06977,0.37666 -0.16704,0.2784 -0.31843,0.41567c-0.02228,0.0202 -0.03706,0.06373 -0.04736,0.10987c0.03558,0.02637 0.06078,0.06604 0.06814,0.11177l0.0326,0.18199l-0.00322,0.00058c0.00178,0.00451 0.0035,0.00906 0.00517,0.01362c0.04749,0.13012 0.00395,0.277 0.00563,0.41551c0.00274,0.22632 0.00548,0.45263 0.00823,0.67896c0.00549,0.45268 0.06664,0.91976 0.04712,1.36833c-0.02412,0.55429 -0.04806,1.09957 -0.04131,1.65648c0.00983,0.81044 -0.01062,1.6249 -0.00147,2.43277c0.00628,0.55447 0.16753,1.10569 0.20516,1.66037c0.02512,0.37024 0.00935,0.74951 0.01385,1.12061c0.00543,0.44806 0.01717,0.89564 -0.01519,1.34175c-0.00908,0.1252 -0.03488,0.2456 -0.06313,0.36568l0.00435,0.0243l-0.01055,0.00189c-0.00016,0.00067 -0.00031,0.00132 -0.00047,0.00199l0.0137,0.02261c-0.00671,0.05437 -0.01257,0.10919 -0.01764,0.16436c0.01274,0.1034 -0.00838,0.25084 -0.02356,0.37085c-0.00461,0.11954 -0.00672,0.23944 -0.0073,0.35858c0.00523,0.18413 0.01286,0.36772 0.0204,0.55128c0.00569,0.05329 0.00967,0.10631 0.0064,0.15824c0.00817,0.20662 0.01531,0.41341 0.01783,0.62112l0.00066,0.05465c0.06886,0.00554 0.13279,0.02238 0.18602,0.05471c0.00846,0.00514 0.01668,0.01056 0.0247,0.01624l0.00276,-0.00569l0.1829,0.08871c0.05906,0.02712 0.10038,0.08645 0.10123,0.15574c0.00116,0.09588 -0.07561,0.17454 -0.17149,0.1757c-0.02062,0.00025 -0.04044,-0.00311 -0.05887,-0.00948l-0.1737,-0.05557c-0.05483,-0.01107 -0.10966,-0.02214 -0.1645,-0.03322c-0.02,0.04067 -0.05046,0.06565 -0.05046,0.06565c-0.10815,0.08844 -0.19762,0.19866 -0.30829,0.28394c-0.16502,0.12717 -0.35346,0.20959 -0.50297,0.36128c-0.12859,0.13046 -0.18089,0.30689 -0.28912,0.45058c-0.09832,0.13054 -0.24389,0.25956 -0.31714,0.40876c-0.1889,0.38472 -0.21351,1.00711 -0.14904,1.42231c0.00601,0.42764 0.04791,0.89989 0.2179,1.29867c0.01432,0.0336 0.03168,0.0653 0.05134,0.09554c0.02209,0.02768 0.04388,0.05558 0.06547,0.08338c0.03863,0.02907 0.07243,0.0625 0.09705,0.10434c0.00084,0.00141 0.00167,0.00284 0.00249,0.00427c0.07517,0.07301 0.15515,0.14181 0.22285,0.21604c0.30276,0.33187 0.67145,0.66501 1.10817,0.8019l-0.02414,-0.00861c0,0 0.17359,-0.0021 0.1757,0.17149c0.00211,0.1736 -0.17149,0.1757 -0.17149,0.1757l-0.08587,-0.00787c-0.08173,-0.02658 -0.1614,-0.05856 -0.23901,-0.09511c-0.06321,0.02917 -0.13245,0.00702 -0.13245,0.00702zM235.81095,190.74299c-0.01117,-0.11122 -0.02086,-0.22274 -0.0306,-0.33443c-0.00021,0.07101 0.00036,0.14097 0.00095,0.20929c0.00782,0.04355 0.01661,0.08681 0.02634,0.12976c0.00107,-0.00156 0.00218,-0.0031 0.00331,-0.00463zM235.89971,189.79093c-0.00949,-0.11503 -0.01286,-0.2292 -0.00554,-0.34043c-0.04314,0.13567 -0.07026,0.27787 -0.08714,0.42185zM237.47328,172.43662l0.00974,0.05438c0.01596,0.01456 0.03475,0.03583 0.04695,0.0632c0.04139,-0.01973 0.08142,-0.02022 0.08142,-0.02022c0.02784,0.00041 0.06363,0.00276 0.10416,0.00745c-0.12567,-0.11414 -0.21587,-0.22339 -0.31701,-0.35446c-0.00608,0.01612 -0.01451,0.03111 -0.02484,0.04455c0.00434,0.01485 0.00676,0.03054 0.00696,0.04677c0.00013,0.01032 -0.00066,0.02043 -0.00226,0.03027c0.0495,0.02434 0.0858,0.0716 0.09489,0.12808zM237.54442,173.1501c0.00185,0.09576 0.00462,0.19142 0.00808,0.28702c0.02049,-0.15666 0.03392,-0.2838 0.15804,-0.42136c0.03498,-0.03877 0.08434,-0.06103 0.13454,-0.07982c-0.07741,-0.01693 -0.17662,-0.0578 -0.22946,-0.05476c0,0 -0.03055,0.00037 -0.06617,-0.01202c0.00776,0.0923 -0.00682,0.18784 -0.00503,0.28095zM237.56136,173.65135c0.02143,0.1532 0.04472,0.30613 0.057,0.4617c0.0257,0.32536 0.00398,0.65433 0.00597,0.98148c0.00343,0.10684 0.00722,0.21361 0.01192,0.32023c0.01518,0.22185 0.03088,0.44426 0.04572,0.66697c0.01135,0.13388 0.02147,0.26957 0.02943,0.40623c0.0052,-0.12187 0.01098,-0.24394 0.01712,-0.3664c0.02553,-0.50919 -0.04392,-1.04845 -0.05015,-1.56278c-0.00274,-0.22632 -0.00583,-0.45263 -0.00823,-0.67896c-0.00012,-0.01074 -0.00132,-0.02179 -0.00301,-0.03298c-0.0468,-0.02504 -0.08085,-0.07091 -0.08962,-0.12538l-0.01738,-0.09705c0.0004,0.00898 0.00081,0.01795 0.00122,0.02694zM237.66719,183.0859c0.00427,0.24284 0.00987,0.48652 0.01787,0.72998c0.00696,0.06451 0.01347,0.12908 0.01958,0.19369c0.00159,-0.30815 -0.01328,-0.61638 -0.03743,-0.92367zM237.55669,173.53737l-0.00034,-0.00061c0.00001,0.00022 0.00002,0.00045 0.00003,0.00067zM235.86069,170.70323c0.04994,-0.0006 0.09522,0.01995 0.12729,0.05332l0.06203,0.06423c0.02906,-0.05344 0.08538,-0.09001 0.15052,-0.0908c0.04793,-0.00058 0.09157,0.01832 0.12337,0.04936l0.03493,0.0341c-0.0195,-0.1323 -0.03364,-0.26651 -0.05327,-0.39593c-0.08002,-0.23005 -0.19477,-0.53365 -0.19927,-0.77826c-0.00198,-0.10713 0.01089,-0.21065 0.03208,-0.31209l-0.00571,-0.05862c0,0 -0.001,-0.08219 0.05494,-0.13415c0.05175,-0.17633 0.11658,-0.3493 0.15823,-0.52761c0.04248,-0.18184 0.08928,-0.37413 0.15491,-0.55871c-0.03504,0.03513 -0.07236,0.06928 -0.11227,0.1024l-0.11176,0.14322c-0.03129,0.04082 -0.08034,0.06739 -0.13575,0.06806c-0.09588,0.00116 -0.17454,-0.07561 -0.1757,-0.17149c-0.00015,-0.01253 0.00103,-0.02476 0.0034,-0.03657c-0.2027,0.24476 -0.36065,0.52295 -0.45719,0.82776c-0.00284,0.19225 0.01282,0.38991 0.01427,0.55793c0.04306,0.24035 0.02914,0.48805 0.06889,0.72646c0.0269,0.16139 0.11068,0.30932 0.21462,0.44582c0.01622,-0.00525 0.03349,-0.00819 0.05143,-0.0084z" fill="#cbcbcb"/><path d="M235.64488,170.8028l-0.04817,-0.11025l-0.03253,-0.18158c-0.00007,-0.00034 -0.00013,-0.00069 -0.0002,-0.00103c-0.02849,-0.00976 -0.05781,-0.02447 -0.08784,-0.04489c-0.10418,-0.07084 -0.08719,-0.23869 -0.10275,-0.36371c-0.00344,-0.02764 -0.00624,-0.05576 -0.00842,-0.0843c-0.01664,-0.02626 -0.02644,-0.05733 -0.02684,-0.09069c-0.00002,-0.00158 -0.00001,-0.00315 0.00001,-0.00471l0.00229,-0.2036l0.00778,0.00009l-0.00649,-0.01931c0.01154,-0.04907 0.023,-0.10188 0.0348,-0.15707c0.00481,-0.04486 0.01052,-0.08994 0.01705,-0.1351l-0.00007,-0.00568l0.00089,-0.00001c0.00131,-0.00893 0.00264,-0.01787 0.00401,-0.0268l-0.00217,-0.00605c0.00175,-0.00463 0.00352,-0.00928 0.00529,-0.01397c0.0485,-0.30642 0.13293,-0.61302 0.22422,-0.86702c0.04765,-0.13259 0.06119,-0.29944 0.17242,-0.38592c0.11516,-0.08953 0.28711,-0.19486 0.42666,-0.17372c0.00291,-0.00501 0.00582,-0.01001 0.00874,-0.01501c0,0 0.08751,-0.14995 0.23745,-0.06243c0.11828,0.06903 0.0888,0.17692 0.07108,0.2194c0.04714,0.03054 0.07862,0.08334 0.07935,0.14372c0.00038,0.03173 -0.00776,0.06157 -0.02231,0.08735l-0.14775,0.27371c-0.04697,0.1522 -0.12447,0.29969 -0.19979,0.44776l-0.00941,0.14252l-0.00233,-0.00016l0.0018,0.00645c-0.00743,0.05317 -0.01277,0.1081 -0.01684,0.16416c0.03358,0.2467 0.05801,0.50926 0.05132,0.75365l0.00247,0.00213c0.02043,0.13017 0.06976,0.25903 0.06128,0.39052c-0.00025,0.00391 -0.00053,0.00781 -0.00084,0.0117l0.00137,-0.00001l0.00184,0.15161c0.00581,0.01206 0.01182,0.02419 0.01809,0.03636l-0.00109,0.01341l0.00554,-0.00192l0.06264,0.18059c0.00682,0.01827 0.01065,0.038 0.0109,0.05862c0.00116,0.09588 -0.07561,0.17454 -0.17149,0.1757c-0.07197,0.00087 -0.13422,-0.04216 -0.1613,-0.10423c-0.00332,-0.00135 -0.00657,-0.0028 -0.00978,-0.00435c-0.0231,0.01183 -0.04922,0.01864 -0.07693,0.01898c-0.05542,0.00067 -0.10509,-0.0247 -0.13737,-0.06475l-0.04751,-0.05793c-0.12492,0.03231 -0.18908,-0.09223 -0.18908,-0.09223z" fill="#cbcbcb"/><path d="M237.32002,177.95153l-0.00012,-0.00014c-0.02872,-0.2324 -0.12382,-0.56111 -0.07302,-0.79464l-0.00299,-0.24689c-0.00098,-0.08059 0.05312,-0.14902 0.12734,-0.16948c0.00667,-0.03882 0.01448,-0.07706 0.02354,-0.11539l-0.00009,-0.00774l-0.03018,-0.00238l0.00483,-0.06135c-0.00337,-0.0116 -0.00555,-0.0237 -0.00643,-0.03618l-0.02719,-0.3448l0.00087,-0.00007c-0.0004,-0.00153 -0.00078,-0.00306 -0.00117,-0.0046c-0.00007,-0.00032 -0.01049,-0.41952 -0.01418,-0.56818l-0.03123,-0.1743l0.0025,-0.00044c-0.00127,-0.00166 -0.00244,-0.00351 -0.00346,-0.00557c-0.05288,-0.10523 -0.0253,-0.23418 -0.03786,-0.35128c-0.03774,-0.35158 -0.03922,-0.69909 -0.04067,-1.05248l0.01488,-0.0209l-0.01016,-0.00278l0.02967,-0.10882c-0.02171,-0.16203 -0.05212,-0.32114 -0.09847,-0.47401c0,0 -0.04971,-0.16633 0.11663,-0.21604c0.03568,-0.01066 0.066,-0.01138 0.09161,-0.00594c-0.00332,-0.10205 -0.0302,-0.20716 -0.01169,-0.30636c-0.01588,-0.07367 -0.03356,-0.14695 -0.05278,-0.21977c0,0 -0.00422,-0.01603 -0.00508,-0.03949c-0.01183,-0.02251 -0.02401,-0.04472 -0.03755,-0.06576l-0.00032,-0.00166l-0.00052,0.00033l-0.09295,-0.15076c-0.01693,-0.02643 -0.02692,-0.05775 -0.02732,-0.09144c-0.00116,-0.09588 0.07561,-0.17454 0.17149,-0.1757c0.03524,-0.00042 0.06815,0.00967 0.09574,0.02737l0.09759,0.06046c0.08202,-0.01212 0.14719,0.05149 0.14719,0.05149l0.01132,0.01106c0.0837,0.00397 0.15216,0.06735 0.16355,0.1493l0.00189,0.01218l0.01064,0.01039l0.12495,0.12194c0.0318,0.03103 0.05175,0.07419 0.05234,0.12214c0.00044,0.03543 -0.00978,0.06851 -0.02767,0.09619c0.04558,0.18207 0.03178,0.37842 -0.19471,0.37547l0.0098,0.05473c0.00203,0.01027 0.00316,0.02088 0.00329,0.03173c0.00046,0.03763 -0.01109,0.07261 -0.03109,0.10129c0.00105,0.00736 0.00164,0.01489 0.00172,0.02253c0.00116,0.09588 -0.07561,0.17454 -0.17149,0.1757c-0.01878,0.00022 -0.0369,-0.00253 -0.0539,-0.00784c0.0099,0.04858 0.01876,0.0975 0.02675,0.1467c0.01189,0.01214 0.02202,0.02601 0.02996,0.04122c0.0098,-0.00184 0.01989,-0.00286 0.03021,-0.00299c0.09588,-0.00116 0.17454,0.07561 0.1757,0.17148l0.00261,0.21603l-0.00191,0.00002c0.00062,0.00318 0.00121,0.00638 0.00176,0.00958c0.01602,0.0919 0.0087,0.212 -0.00669,0.33877c0.01049,0.08731 0.00047,0.17936 0.00798,0.26736l-0.00139,0.00403l0.00158,-0.00006l0.00901,0.23927c0.00007,0.00171 0.00011,0.00343 0.00013,0.00514c0.00056,0.04594 -0.01678,0.08794 -0.04555,0.11935c0.00622,0.07709 0.05442,0.69433 0.05451,0.69556l-0.00192,0.00542l0.00209,-0.00004l0.0032,0.19732c0.00001,0.00027 0.00001,0.00056 0.00001,0.00084c0.00082,0.06804 -0.0376,0.12741 -0.09425,0.15657c0.00079,0.03122 0.00157,0.06243 0.00232,0.09363c0.00167,0.00932 0.0026,0.01891 0.00271,0.02869l0.00211,0.17436l0.03202,0.2331c0.00121,0.00791 0.00186,0.016 0.00197,0.02422c0.00049,0.04031 -0.0128,0.07758 -0.0355,0.10733c-0.00384,0.015 -0.00963,0.02923 -0.0171,0.0424c-0.01042,0.11464 -0.03548,0.23082 -0.03401,0.34519l0.00261,0.21603c0.00073,0.06029 -0.02935,0.11376 -0.07562,0.14545c0.01529,0.10798 0.03527,0.21547 0.04866,0.3237l0.0319,0.17809c0.00203,0.01027 0.00316,0.02088 0.00329,0.03173c0.00116,0.09588 -0.07561,0.17454 -0.17149,0.1757c-0.08714,0.00106 -0.16005,-0.06226 -0.1735,-0.14579l-0.0326,-0.18199c0,0 -0.00029,-0.00161 -0.00066,-0.00452z" fill="#cbcbcb"/><path d="M237.8767,183.84708l0.0146,-0.00018l0.00412,0.33948c0.00116,0.09588 -0.07561,0.17454 -0.17149,0.1757c-0.08571,0.00104 -0.15766,-0.06021 -0.17279,-0.1417l-0.03572,-0.17367c-0.03125,-0.0476 -0.03191,-0.10225 -0.03191,-0.10225l-0.00066,-0.05975c-0.0191,-0.24065 -0.0224,-0.48318 -0.00841,-0.72417c0,0 0.01027,-0.1733 0.18358,-0.16304c0.06359,0.00377 0.10246,0.02948 0.12619,0.06053c0.00542,-0.00058 0.01093,-0.00091 0.01649,-0.00098c0.09588,-0.00116 0.17454,0.07561 0.1757,0.17149c0.00013,0.01112 -0.00078,0.02201 -0.00266,0.03256l-0.0425,0.26803c-0.01305,0.10673 -0.03184,0.21269 -0.05455,0.31793z" fill="#cbcbcb"/><path d="M237.36655,186.59331c-0.0019,-0.03244 0.00008,-0.06461 0.00836,-0.09637c0.0025,-0.00962 0.00525,-0.01915 0.00821,-0.02858l-0.00439,-0.00095l0.07322,-0.33584c0.01549,-0.07898 0.08461,-0.13901 0.16826,-0.14002c0.09588,-0.00116 0.17454,0.07561 0.1757,0.17149c0.00012,0.00953 -0.00054,0.01889 -0.00191,0.02803l-0.00047,0.00358c0.00078,0.00357 0.00109,0.00558 0.00109,0.00558c0.00235,0.01624 0.00438,0.03233 0.0061,0.04828c0.05625,0.07516 0.01481,0.16878 0.01117,0.17664c0.01185,0.02311 0.01866,0.04925 0.01901,0.07698c0.00013,0.01085 -0.00074,0.02148 -0.00252,0.0318l-0.02747,0.17812c-0.00495,0.05559 -0.01272,0.11089 -0.0228,0.16586l0.02376,0.11173c0.00281,0.01206 0.00437,0.02462 0.00453,0.03751c0.00045,0.03672 -0.01055,0.07092 -0.02967,0.09921l0.00141,0.1172c0.00116,0.09588 -0.07561,0.17454 -0.17149,0.1757c-0.08937,0.00108 -0.16379,-0.06555 -0.17441,-0.15226l-0.01257,-0.09161c-0.01074,-0.01949 -0.01785,-0.04129 -0.0204,-0.06449l-0.03397,-0.2753l0.00551,-0.00068l-0.00399,-0.03868l-0.00152,-0.00317c0.00035,-0.00047 0.0007,-0.00095 0.00104,-0.00142l-0.00219,-0.02122l0.00689,-0.00071c-0.00323,-0.00676 -0.00585,-0.01391 -0.00775,-0.02146c-0.01281,-0.05098 -0.00793,-0.10281 0.00326,-0.15496z" fill="#cbcbcb"/><path d="M237.01575,187.86642c0.09805,0.14327 -0.04523,0.24133 -0.04523,0.24133l-0.10192,0.06924c-0.26533,0.15349 -0.36353,0.33125 -0.49998,0.57483c0.00537,0.01639 0.00837,0.03387 0.00859,0.05203c0.00031,0.02565 -0.00496,0.05007 -0.01468,0.0721l-0.08849,0.2136l-0.0019,-0.00078l-0.00012,0.00548c-0.13996,0.28876 -0.25844,0.56463 -0.39883,0.83459c-0.00136,0.00403 -0.00272,0.00807 -0.00408,0.0121l0.03205,0.0097l-0.09939,0.32856c-0.02012,0.07252 -0.08617,0.12616 -0.16522,0.12712c-0.09588,0.00116 -0.17454,-0.07561 -0.1757,-0.17149c-0.00016,-0.0129 0.0011,-0.02548 0.00362,-0.03761l0.05733,-0.30585l0.00409,0.00077l-0.00159,-0.01202c0.01902,-0.05785 0.03876,-0.11491 0.05923,-0.17137c0.00074,-0.0032 0.00151,-0.00642 0.00231,-0.00964c-0.0054,-0.01643 -0.00841,-0.03395 -0.00863,-0.05216c-0.00017,-0.01424 0.00137,-0.02809 0.00444,-0.04137l0.05759,-0.27484l0.00411,0.00087c0.00111,-0.00952 0.00247,-0.01903 0.00413,-0.02853c0.02146,-0.12294 0.12748,-0.2146 0.19028,-0.32245c0.25183,-0.43237 0.41154,-0.83906 0.85491,-1.10298l0.08175,-0.05645c0,0 0.14327,-0.09805 0.24132,0.04523z" fill="#cbcbcb"/><path d="M237.81562,193.07449c-0.02647,0.17158 -0.19805,0.14511 -0.19805,0.14511l-0.19889,-0.03122c-0.20691,-0.0667 -0.37532,-0.17132 -0.57842,-0.24612c-0.2144,-0.07896 -0.44938,-0.14531 -0.62042,-0.3098c-0.41937,-0.40331 -0.65288,-1.01971 -0.83622,-1.55235c-0.04911,-0.27003 -0.12564,-0.55016 -0.10715,-0.82652c0.00964,-0.144 0.04789,-0.2852 0.05628,-0.42928c0.01783,-0.30648 0.03265,-0.581 0.16072,-0.86914c0.22642,-0.50941 0.75667,-0.92719 1.23739,-1.17515c0,0 0.15433,-0.07952 0.23385,0.07481c0.00106,0.00206 0.00207,0.00411 0.00305,0.00614c0.05471,-0.03367 0.10954,-0.06697 0.1647,-0.09969c-0.01157,-0.01602 -0.0215,-0.03593 -0.02886,-0.06058c-0.04971,-0.16633 0.11662,-0.21606 0.11662,-0.21606c0.20877,-0.06072 0.3731,-0.16194 0.57295,-0.25053l0.01171,0.00081l-0.00128,-0.00429l0.21144,-0.0632c0.01622,-0.00525 0.0335,-0.00819 0.05145,-0.00841c0.0304,-0.00037 0.05905,0.0071 0.08407,0.02052l0.13535,-0.02101c0.00894,-0.00154 0.01812,-0.00239 0.02748,-0.00251c0.08025,-0.00097 0.14845,0.05268 0.16923,0.12641c0.02341,0.02919 0.0376,0.06612 0.03808,0.10643c0.00095,0.07809 -0.04981,0.14477 -0.12048,0.16744l-0.18063,0.06266l-0.00826,-0.02379l0.00468,0.02499c-0.10525,0.03129 -0.2024,0.09411 -0.3055,0.13052c-0.22393,0.10884 -0.45362,0.20844 -0.67687,0.3316c-0.17967,0.09912 -0.32726,0.22649 -0.50109,0.33338l-0.20243,0.17862c0,0 -0.13043,0.11457 -0.245,-0.01586c-0.01594,-0.01815 -0.02713,-0.03598 -0.0346,-0.05323c-0.18641,0.16805 -0.34602,0.36265 -0.44252,0.57708c-0.00405,0.009 -0.00796,0.01798 -0.01172,0.02696c0.02916,-0.02248 0.07044,-0.03674 0.12866,-0.02852c0.1719,0.02432 0.14758,0.19622 0.14758,0.19622c-0.0205,0.14452 -0.04606,0.28734 -0.07285,0.42984c0.06521,0.02434 0.11201,0.08681 0.11291,0.1606c0.00021,0.01795 -0.0023,0.0353 -0.00716,0.05164l-0.05804,0.21291l-0.02257,-0.00616c0.00588,0.16922 0.01533,0.33615 0.06095,0.50234l0.00682,0.13462c0,0 0.0021,0.1736 -0.17149,0.1757c-0.1736,0.00211 -0.1757,-0.17149 -0.1757,-0.17149l0.00457,-0.05055c-0.00992,-0.0391 -0.02132,-0.07957 -0.03256,-0.12096c-0.03037,-0.00777 -0.05756,-0.02356 -0.07916,-0.045c0.02145,0.1425 0.05727,0.28499 0.08136,0.4219c0.16752,0.47888 0.37275,1.02295 0.7428,1.39165c0.12781,0.12735 0.33623,0.17214 0.49734,0.23224c0.18941,0.07066 0.34738,0.17367 0.53859,0.23418l0.1722,0.02602c0,0 0.17158,0.02647 0.14511,0.19805z" fill="#cbcbcb"/><path d="M237.52081,173.26704c-0.06642,-0.1604 0.09397,-0.22683 0.09397,-0.22683l0.1631,-0.06722c0.105,-0.03538 0.19611,-0.10321 0.29625,-0.15071c-0.0065,-0.00364 -0.01297,-0.00788 -0.01935,-0.01251c-0.01243,0.00299 -0.02539,0.00466 -0.03872,0.00482c-0.03244,0.00039 -0.06291,-0.00814 -0.08907,-0.02331l-0.19423,-0.10788c-0.04944,-0.00676 -0.09889,-0.01351 -0.14833,-0.02026c0,0 -0.17158,-0.02646 -0.14511,-0.19805c0.02646,-0.17158 0.19805,-0.14511 0.19805,-0.14511c0.04973,0.0083 0.09946,0.0166 0.14918,0.0249c0.03139,-0.0371 0.07809,-0.06089 0.13049,-0.06152c0.04153,-0.0005 0.07982,0.01362 0.11,0.03758l0.15472,0.12073l-0.01283,0.01643c0.17134,0.08251 0.33161,0.20084 0.32951,0.36223c-0.00336,0.25742 -0.42264,0.41541 -0.60675,0.48073l-0.14403,0.05998c0,0 -0.1604,0.06642 -0.22683,-0.09397z" fill="#cbcbcb"/><path d="M237.61075,193.59504c-0.31551,-0.10094 -0.6535,-0.1419 -0.96004,-0.27692c-0.184,-0.08105 -0.31565,-0.20633 -0.47035,-0.32384c-0.20335,-0.15448 -0.48163,-0.2739 -0.62938,-0.49488c-0.35835,-0.53597 -0.58292,-1.20482 -0.66913,-1.83781c-0.00451,-0.38614 -0.05771,-0.7752 0.02076,-1.16063c0.04824,-0.23697 0.17937,-0.38018 0.29125,-0.57925c0.10111,-0.17991 0.13669,-0.39314 0.24618,-0.56807c0.13475,-0.21528 0.39337,-0.34415 0.57997,-0.50361c0.29292,-0.25031 0.58407,-0.38623 0.91957,-0.55718l-0.00024,-0.01983c-0.00338,-0.36951 0.02191,-0.73907 0.01739,-1.11139c-0.01979,-1.63219 -0.0397,-3.27396 -0.05949,-4.90701c-0.01596,-1.53199 -0.00634,-3.0688 -0.0249,-4.59876c-0.0059,-0.48677 0.08153,-0.98825 0.04414,-1.47251c-0.06103,-0.79046 -0.16081,-1.57721 -0.18208,-2.37059c-0.04462,-0.0151 -0.07441,-0.04415 -0.07441,-0.04415l-0.02872,-0.03527c-0.41589,-0.24273 -0.89692,-0.57212 -1.20113,-0.95346c-0.17057,-0.21382 -0.28299,-0.48574 -0.42084,-0.72039c-0.61733,-0.90162 -0.44784,-2.37678 0.2212,-3.22892c0.20417,-0.26003 0.50605,-0.42469 0.73471,-0.65701c0.80958,-0.42643 1.70552,-0.79545 2.6455,-0.68087c0.24453,0.02981 0.4646,0.13198 0.69132,0.21772c0.07106,0.02687 0.15113,0.03364 0.21567,0.07371c0.02017,0.01253 0.22071,0.20874 0.29382,0.28026c0.38578,-0.25028 0.78084,-0.44883 1.23635,-0.56655c0.12453,-0.03219 0.25736,-0.0157 0.38397,-0.0384c0.66562,-0.11937 1.34769,-0.18944 1.98508,0.11328c0.68668,0.28557 1.04532,0.91672 1.39418,1.53862c0.22452,0.40026 0.39917,0.83777 0.43802,1.30058c0.03262,0.38865 -0.03267,0.76275 -0.08617,1.14544c-0.17569,0.37051 -0.40152,0.75242 -0.67307,1.06144c-0.31097,0.35388 -0.74427,0.60374 -1.13956,0.84789l-0.15318,0.09445c0,0 -0.04569,0.02817 -0.10192,0.02778c-0.00019,0.00225 -0.00035,0.00346 -0.00035,0.00346c-0.06653,0.50144 -0.01505,0.99792 -0.04223,1.50072c-0.04633,0.85703 0.02161,1.74669 0.03209,2.61093c0.0035,0.32851 0.04825,0.64832 0.07311,0.97452c0.02058,0.27018 -0.04337,0.53099 -0.02131,0.80077c0.0567,0.69357 0.06721,1.40312 0.02542,2.09637c-0.02543,0.42176 0.03222,0.84043 -0.0153,1.26216c0.02218,1.57859 -0.18535,3.22398 0.05799,4.79132c0.00207,0.14812 0.00403,0.29624 0.00582,0.44437l0.00089,0.07354c0.23412,0.07032 0.37683,0.20097 0.60728,0.35038c0.60086,0.38957 1.11258,0.99855 1.38131,1.67019c0.07961,0.19896 0.16965,0.42647 0.17344,0.64334c0.00224,0.12756 -0.03629,0.35345 -0.05777,0.49295c-0.0527,0.40397 -0.05929,0.87178 -0.17575,1.262c-0.06424,0.21524 -0.25052,0.57566 -0.39634,0.74635c-0.08091,0.09471 -0.19472,0.15751 -0.2761,0.25182c-0.43053,0.49891 -1.06338,0.8994 -1.74191,0.9119c-0.90401,0.14036 -1.84637,-0.22322 -2.61315,-0.675c-0.53506,0.7968 -1.61676,0.93285 -2.50162,0.79406zM237.16332,187.56836c-0.3398,0.17493 -0.62607,0.29665 -0.91568,0.54388c-0.1551,0.1324 -0.40963,0.25348 -0.51983,0.43571c-0.06767,0.11191 -0.16724,0.42894 -0.23414,0.54894c-0.09433,0.16919 -0.21155,0.27599 -0.25154,0.47678c-0.07018,0.35248 -0.01846,0.70923 -0.01402,1.06216c0.08051,0.58079 0.29329,1.16788 0.608,1.66545c0.11683,0.18471 0.38748,0.29018 0.55459,0.41675c0.13464,0.10198 0.241,0.21249 0.40126,0.28291c0.28629,0.12579 0.60365,0.16185 0.8984,0.25614c0.46469,0.07023 0.95842,0.10668 1.39685,-0.09877c0.10493,-0.04917 0.1944,-0.12648 0.29544,-0.18324c0.24023,-0.13496 0.34458,-0.19506 0.48496,-0.43686l0.02385,-0.05034c0,0 0.01617,-0.03335 0.04897,-0.06176c0.00411,-0.00499 0.0086,-0.00999 0.01349,-0.015c0.12127,-0.12424 0.2455,-0.00298 0.2455,-0.00298l0.10886,0.10807c0.70697,0.40488 1.55833,0.74265 2.38845,0.61377c0.59073,-0.00293 1.13524,-0.36524 1.50921,-0.79429c0.23294,-0.26724 0.49648,-0.50675 0.6013,-0.86925c0.10854,-0.37536 0.11399,-0.82341 0.16466,-1.21142c0.01692,-0.10951 0.05495,-0.33563 0.05445,-0.4344c-0.00089,-0.1733 -0.08663,-0.36752 -0.14939,-0.52566c-0.24135,-0.60812 -0.70846,-1.15589 -1.24997,-1.508c-0.24004,-0.15608 -0.34508,-0.29927 -0.64094,-0.33435c0,0 -0.17215,-0.02247 -0.14968,-0.19462c0.00442,-0.03384 0.01461,-0.06015 0.02815,-0.08059l-0.0012,-0.09967c-0.00169,-0.13992 -0.00326,-0.27984 -0.00466,-0.41977c-0.0798,-0.51398 -0.07471,-1.0347 -0.08102,-1.55464c-0.01327,-1.09492 0.03365,-2.18986 0.02227,-3.28287c0.07987,-0.70871 0.01363,-1.43869 0.00459,-2.14517c-0.00417,-0.32515 0.04919,-0.65046 0.01953,-0.97836c-0.01465,-0.16196 -0.04368,-0.32398 -0.03709,-0.48647c0.00681,-0.16778 0.03862,-0.33577 0.02493,-0.50312c-0.02735,-0.33447 -0.06974,-0.66215 -0.07428,-0.99912c-0.01058,-0.87244 -0.07907,-1.77003 -0.03151,-2.63555c0.02808,-0.511 -0.02105,-1.0151 0.04455,-1.52523c0,0 0.02106,-0.16138 0.17865,-0.15125c0.00796,-0.0827 0.08569,-0.13062 0.08569,-0.13062l0.15318,-0.09445c0.36766,-0.22637 0.77463,-0.4553 1.06303,-0.78386c0.23705,-0.27007 0.43849,-0.60815 0.59918,-0.92941c0.04047,-0.34084 0.10158,-0.67165 0.07281,-1.01713c-0.03434,-0.41245 -0.19437,-0.80261 -0.39432,-1.15862c-0.31092,-0.55359 -0.62116,-1.13972 -1.23412,-1.39266c-0.56504,-0.28099 -1.19264,-0.19366 -1.78304,-0.08797c-0.11728,0.021 -0.24089,0.00141 -0.35596,0.0323c-0.47247,0.12685 -0.86598,0.33436 -1.26541,0.60863c0,0 -0.14327,0.09805 -0.24132,-0.04523c-0.01291,-0.01886 -0.02163,-0.03693 -0.02705,-0.0541c-0.00886,-0.00672 -0.01378,-0.01154 -0.01378,-0.01154c-0.0842,-0.08219 -0.14921,-0.18805 -0.24934,-0.24984c-0.97855,-0.6039 -2.26067,-0.08179 -3.16712,0.37108c-0.20536,0.21228 -0.48689,0.3582 -0.66996,0.59468c-0.57723,0.7456 -0.7367,2.04017 -0.19925,2.82595c0.13059,0.22218 0.23728,0.48688 0.39878,0.68952c0.27832,0.34921 0.72396,0.64812 1.10509,0.87056l0.04654,0.04193c0.01473,-0.00371 0.03124,-0.00588 0.04976,-0.00611c0.1736,-0.00211 0.1757,0.17149 0.1757,0.17149c0.01024,0.84426 0.12382,1.6788 0.18461,2.51919c0.03563,0.49249 -0.04937,0.99733 -0.04338,1.4917c0.01854,1.52951 0.00337,3.06715 0.0249,4.59876c0.0198,1.63309 0.03971,3.27476 0.05949,4.90701c0.00451,0.37166 -0.02313,0.74287 -0.01739,1.11139l0.00149,0.12345c0,0 0.00154,0.12769 -0.10753,0.16538c-0.01021,0.00713 -0.01717,0.01072 -0.01717,0.01072z" fill="#451c06"/><path d="M241.26857,173.73512c-0.05404,0.05507 -0.10912,0.00104 -0.10912,0.00104l-0.10488,-0.10289c-0.18654,-0.18302 -0.35557,-0.37491 -0.52523,-0.57355c0,0 -0.05011,-0.05867 0.00856,-0.10879c0.05867,-0.05011 0.10879,0.00856 0.10879,0.00856c0.16674,0.19523 0.33264,0.38375 0.51595,0.56361l0.10488,0.10289c0,0 0.05508,0.05404 0.00104,0.10912z" fill="#ffffff"/><path d="M238.60162,167.64898c-0.07715,0.00093 -0.07809,-0.07622 -0.07809,-0.07622c-0.00087,-0.07202 -0.00212,-0.17487 -0.00299,-0.24689c0,0 -0.00094,-0.07715 0.07621,-0.07809c0.07715,-0.00093 0.07809,0.07621 0.07809,0.07621c0.00087,0.07202 0.00174,0.14402 0.00261,0.21603l0.00038,0.03086c0,0 0.00094,0.07715 -0.07621,0.07809z" fill="#a7a7a9"/><path d="M238.05284,168.21122c-0.07715,0.00093 -0.07809,-0.07621 -0.07809,-0.07621l0.00291,-0.08617c0.02226,-0.06945 0.04073,-0.14011 0.05752,-0.21108c0,0 0.01781,-0.07507 0.09289,-0.05727c0.07507,0.01781 0.05727,0.09289 0.05727,0.09289c-0.01777,0.07479 -0.03731,0.14926 -0.06069,0.22248l0.00441,0.03728c0,0 0.00093,0.07715 -0.07622,0.07809z" fill="#a7a7a9"/><path d="M238.04996,171.66701c-0.07607,-0.013 -0.06306,-0.08905 -0.06306,-0.08905l0.00726,-0.0425c-0.00325,-0.00591 -0.00574,-0.0123 -0.00736,-0.01903l-0.03195,-0.12151l0.00303,-0.00079l-0.00489,-0.0087c-0.00073,-0.09103 0.01194,-0.18209 0.02852,-0.2716c0,0 0.01422,-0.07584 0.09005,-0.06163c0.07584,0.01422 0.06163,0.09006 0.06163,0.09006c-0.00009,0.0005 -0.00019,0.001 -0.00028,0.0015c0.03618,0.006 0.06399,0.03723 0.06445,0.07518c0.00005,0.00417 -0.00022,0.00824 -0.00081,0.01224l-0.0198,0.1517l-0.01544,-0.00201c0.00027,0.01562 0.00018,0.0312 -0.0003,0.04677l0.00406,0.0013l-0.00469,0.01468c-0.00153,0.03168 -0.00476,0.0632 -0.01009,0.0944l-0.01127,0.06595c0,0 -0.013,0.07607 -0.08905,0.06306z" fill="#a7a7a9"/><path d="M238.50916,173.56118c-0.00952,-0.01837 -0.01323,-0.0437 0.00647,-0.07399c0.0042,-0.00647 0.00864,-0.01186 0.0132,-0.01635c0.00288,-0.02075 0.00437,-0.04212 0.0037,-0.06448c0,0 -0.00094,-0.07715 0.07621,-0.07809c0.07715,-0.00093 0.07809,0.07622 0.07809,0.07622c-0.00004,0.04897 -0.00799,0.09322 -0.01802,0.1363l0.00731,0.012c-0.00708,0.04842 -0.02191,0.0954 -0.04195,0.14064c-0.00111,0.00718 -0.00209,0.01444 -0.00294,0.0218l0.01864,0.0072l-0.05492,0.14229c-0.01059,0.02943 -0.03857,0.05064 -0.07169,0.05104c-0.04261,0.00052 -0.07758,-0.03361 -0.07809,-0.07622c-0.00012,-0.00915 0.00138,-0.01797 0.00421,-0.02616l0.02673,-0.08357c0.00249,-0.06134 0.01864,-0.11491 0.03303,-0.16863z" fill="#a7a7a9"/><path d="M238.86278,188.07799c0.01841,0.08715 0.10514,0.41406 -0.05195,0.46281c-0.06103,0.01894 -0.11989,-0.06091 -0.15292,-0.11561c-0.05519,-0.0914 -0.05357,-0.15477 -0.02504,-0.21171l-0.00351,-0.00135l0.05022,-0.1301l-0.00094,-0.07772c-0.00052,-0.04261 0.0336,-0.07758 0.07621,-0.07809c0.03481,-0.00042 0.06451,0.02227 0.07451,0.05382l0.03205,0.09352l-0.0017,0.00058z" fill="#a7a7a9"/><path d="M238.67219,191.29163c-0.07715,0.00093 -0.07809,-0.07622 -0.07809,-0.07622l-0.00075,-0.06172c-0.00039,-0.08098 0.00793,-0.1635 0.0319,-0.24085c0,0 0.02351,-0.07349 0.09701,-0.04998c0.0571,0.01827 0.05565,0.06669 0.05215,0.0874c0.00115,0.00517 0.0018,0.01052 0.00186,0.01602c0.00024,0.01969 -0.00693,0.03777 -0.01891,0.05155c-0.00828,0.04401 -0.01065,0.08942 -0.0097,0.134l0.00075,0.06172c0,0 0.00094,0.07715 -0.07621,0.07809z" fill="#a7a7a9"/><path d="M238.04641,191.83733c-0.00021,-0.04258 -0.00009,-0.07494 0.00077,-0.07743c0.053,-0.15414 0.14737,-0.29201 0.26893,-0.07679c0.04927,0.08722 -0.01462,0.27858 -0.05542,0.36326c-0.00001,0.00001 -0.00001,0.00003 -0.00001,0.00004l0.01072,0.00626l-0.03246,0.05562c-0.01007,0.03158 -0.0216,0.06191 -0.04411,0.07557l-0.0005,0.00086c-0.01305,0.02328 -0.03782,0.03914 -0.06641,0.03948c-0.03867,0.00047 -0.07104,-0.02759 -0.07708,-0.06464c-0.05773,-0.06342 -0.03743,-0.20354 -0.00442,-0.32225z" fill="#a7a7a9"/></g></g></svg>