<svg version="1.1" xmlns="http://www.w3.org/2000/svg" xmlns:xlink="http://www.w3.org/1999/xlink" width="115.48927" height="185.13382" viewBox="0,0,115.48927,185.13382"><g transform="translate(-182.25536,-87.4331)"><g data-paper-data="{&quot;isPaintingLayer&quot;:true}" fill-rule="nonzero" stroke="none" stroke-width="0.5" stroke-linecap="butt" stroke-linejoin="miter" stroke-miterlimit="10" stroke-dasharray="" stroke-dashoffset="0" style="mix-blend-mode: normal"><path d="" fill="#5f141a"/><path d="" fill="#5f141a"/><path d="" fill="#e36a37"/><path d="" fill="#b73f32"/><path d="M281.89022,188.23183l-0.25111,-1.43019c0.00326,-4.50125 -1.06599,-8.90538 -1.08241,-13.36062c-1.40932,-14.0934 -0.70471,-26.28874 -4.49515,-40.18616c0,0 -0.46372,-1.70034 1.23651,-2.16406c1.70034,-0.46372 2.16405,1.23662 2.16405,1.23662c3.85341,14.12972 3.18284,26.61609 4.615,40.93808c-0.01761,4.36791 1.01967,8.71876 1.08361,13.13377c0.15291,0.30124 0.19597,0.56007 0.19597,0.56007l0.20674,1.24553c0.14333,0.71689 0.28667,1.43378 0.43,2.15068c1.25957,5.70034 1.301,12.74781 3.97717,18.02098c3.52487,6.94556 7.76435,13.0609 7.77403,21.16989c0,17.44306 -8.25091,27.64412 -25.09051,32.69827c-13.48993,4.4969 -26.69656,4.42045 -40.87718,4.42045c0,0 -1.76243,0 -1.76243,-1.76243c0,-1.76243 1.76243,-1.76243 1.76243,-1.76243c13.81379,0 26.68253,0.1206 39.81326,-4.25601c15.44453,-4.63142 22.62956,-13.39695 22.62956,-29.33793c0.00978,-7.51672 -4.2198,-13.14964 -7.40971,-19.60919c-2.78438,-5.63836 -2.91194,-12.79924 -4.26547,-18.85369c-0.14583,-0.72918 -0.29167,-1.45826 -0.43762,-2.18744l-0.02567,-0.15323c-0.14464,-0.27797 -0.19129,-0.51103 -0.19129,-0.51103z" fill="#5f141a"/><path d="M284.91994,142.7825c-0.88122,0 -0.88122,-0.88122 -0.88122,-0.88122v-0.21697c0,-0.81325 -0.0112,-1.72753 -0.123,-2.63017c-0.09397,-0.20837 -0.09397,-0.40663 -0.09397,-0.40663l0.0024,-0.09538c-0.22871,-0.14942 -0.34312,-0.37813 -0.34312,-0.37813l-0.13126,-0.28428c-2.16526,-2.15622 -4.48798,-3.67201 -5.1505,-6.87813c0,0 -0.13355,-0.66785 0.4213,-0.94669c0.00924,-0.04959 0.02262,-0.10135 0.04068,-0.15551c0.27863,-0.83597 1.1146,-0.55736 1.1146,-0.55736c3.97543,1.35842 5.02597,4.4348 5.79126,8.25504l0.01436,0.87208c0.17444,1.05913 0.21967,2.15122 0.21967,3.20514v0.21697c0,0 0,0.88122 -0.88122,0.88122z" fill="#25080a"/><path d="M237.61683,122.90839c0,0 -1.1605,1.32634 -2.48684,0.16574c-1.32634,-1.1605 -0.16574,-2.48684 -0.16574,-2.48684c1.08165,-1.21302 2.39548,-2.23062 3.78577,-3.07247l0.20608,0.01011l-0.02698,-0.08092l1.65282,-0.55094c0.18629,-0.06689 0.38705,-0.10342 0.59629,-0.10342c0.97333,0 1.76243,0.78911 1.76243,1.76243c0,0.16281 -0.02207,0.32038 -0.0633,0.46991c0.04133,0.14964 0.0633,0.30723 0.0633,0.46992c0,0.6411 -0.34235,1.20226 -0.85425,1.51067l-1.47805,0.92375l-0.22294,-0.35659l-0.54148,0.16247c-0.17183,0.0559 -0.35518,0.08614 -0.54572,0.08614c-0.17824,0 -0.35018,-0.02642 -0.51233,-0.07569c-0.42076,0.35768 -0.81314,0.74843 -1.1692,1.1656z" fill="#e36a37"/><path d="M215.53668,167.41473c-0.21609,-0.05405 -0.40945,-0.12169 -0.58237,-0.20043c-1.82649,2.94468 -4.15378,5.48339 -7.69867,7.28475c0,0 -2.36449,1.18225 -3.54673,-1.18225c-1.18225,-2.36449 1.18225,-3.54673 1.18225,-3.54673c5.85337,-2.86747 7.4866,-9.0759 10.05217,-14.7023c0.87709,-1.92361 1.81431,-3.78305 2.7996,-5.59464c3.32357,-9.88969 8.26298,-19.75481 16.65592,-24.60961c0.46089,-0.50091 0.93222,-0.99193 1.41313,-1.47283l0.45773,0.50232c0.00533,-0.0025 0.01066,-0.00489 0.01599,-0.00739l-0.47525,-0.67883l2.32338,-1.62639c0.43414,-0.31245 0.9668,-0.49646 1.54255,-0.49646c1.46,0 2.64354,1.18355 2.64354,2.64354c0,0.85794 -0.40869,1.62051 -1.04206,2.10348l-1.99581,1.55233c-1.11308,1.11569 -2.15307,2.30816 -3.11847,3.5539c-4.9641,7.00896 -9.86446,13.68459 -13.90123,21.24308c-1.25565,3.92617 -2.19081,7.98741 -3.28497,12.37109l-0.23501,0.93994c0,0 -0.6412,2.56469 -3.20579,1.92349z" fill="#f2c2a4"/><path d="M281.29024,171.23758c2.54186,0.72624 1.81562,3.26811 1.81562,3.26811l-1.91796,3.32531c-7.49867,3.36957 -11.66115,6.78602 -20.43103,4.64621c-5.85042,-0.97768 -12.63166,-1.3743 -17.99346,-3.96423c-10.80419,-5.21879 -20.92531,-19.22758 -19.42301,-31.28786c-0.11092,-0.29179 -0.17161,-0.60836 -0.17161,-0.93908c0,-0.13333 0.0099,-0.26448 0.02893,-0.39259l0.44154,-3.31194c-0.00033,-0.01838 -0.00055,-0.03676 -0.00055,-0.05525c0,-0.24187 0.03251,-0.47612 0.09331,-0.69873l0.13561,-0.54246l-0.02556,-0.01066l0.07058,-0.16933l0.49656,-1.98624c0.03491,-0.15367 0.08308,-0.30222 0.14344,-0.44436c0.57073,-1.5906 1.08589,-3.20275 1.52906,-4.83338c0,0 0.69558,-2.55045 3.24604,-1.85488c2.55045,0.69557 1.85487,3.24603 1.85487,3.24603c-0.34203,1.25011 -0.71929,2.49151 -1.13266,3.7203c0.03339,0.16781 0.0509,0.34126 0.0509,0.51886c0,0.2733 -0.04144,0.53691 -0.11843,0.78497l-0.89384,3.12825l-0.36366,1.81812c1.07751,4.29592 0.42011,11.50086 2.61506,14.95003c7.76228,12.19795 16.96804,14.90001 30.49342,17.14791c7.58861,1.95036 10.64954,-1.29219 17.16662,-4.28309l-0.97801,0.03556c0,0 0.72624,-2.54186 3.26811,-1.81562z" fill="#f2c2a4"/><path d="M283.43602,181.71867c-0.07222,0.11136 -0.14453,0.22273 -0.21685,0.33398l0.16455,0.03524l-0.69428,3.23994c-0.11963,0.61999 -0.45599,1.16278 -0.927,1.54656l0.60433,1.81312l-0.0894,0.0298l0.01088,0.08178c0.0534,0.06427 0.1068,0.12855 0.16019,0.19292l-0.09711,0.28047l0.00577,0.04284l0.13626,-0.01131l0.2324,2.78906c0.00631,0.06753 0.01011,0.13572 0.01131,0.20456c0.69319,1.9148 1.45434,3.98924 1.588,5.73177c0.50526,0.40271 0.85979,0.9867 0.96496,1.65357l0.68818,3.89963c0.0323,0.16498 0.04915,0.3355 0.04915,0.50994c0,0.35768 -0.07101,0.69885 -0.19977,1.01009c0.65316,0.39662 1.31003,0.7928 1.97113,1.18779l1.32612,0.54202c0,0 2.42985,1.04141 1.38843,3.47126c-1.04141,2.42985 -3.47126,1.38843 -3.47126,1.38843l-1.96363,-0.86795c-12.93355,-7.78936 -24.17395,-16.11955 -39.23046,-19.62866c-18.25642,-1.49066 -32.70805,-3.71355 -47.18262,9.23337c0,0 -1.97581,1.75634 -3.73216,-0.21957c-1.75634,-1.97581 0.21957,-3.73216 0.21957,-3.73216c1.15441,-1.01868 2.30771,-1.95362 3.46169,-2.81113c-0.22523,-0.389 -0.35421,-0.84077 -0.35421,-1.32264c0,-0.29232 0.04741,-0.57345 0.13507,-0.8363l0.91635,-2.97796c0.4175,-1.44423 0.78106,-2.64159 1.15875,-3.65516l-0.15389,-0.05927l1.17202,-3.04723c0.49319,-1.31232 1.1754,-2.54284 1.97418,-3.70779l-0.48961,-0.22849l1.61987,-3.47104c0.40945,-0.93005 1.33928,-1.5794 2.42071,-1.5794c0.39195,0 0.76409,0.08538 1.09872,0.23839c0.22392,0.04578 0.46187,0.12343 0.71418,0.2399c0.00576,0.00272 0.01164,0.00544 0.0174,0.00805l1.04771,-1.74623c0.33615,-0.58313 0.88861,-1.02586 1.54765,-1.2189c0.90743,-1.61964 1.91545,-3.16109 3.02016,-4.45057l0.12354,-0.47547l0.05633,0.01468l-0.01806,-0.14747c1.78419,-4.76508 2.06433,-7.39471 4.29908,-9.58018l0.11256,-0.24556l0.09897,0.04535c0.05742,-0.05253 0.11604,-0.10494 0.17585,-0.15704c0.01066,-0.01794 0.02131,-0.03589 0.03208,-0.05373l-0.55474,-0.71319l1.28447,-0.999c0.04448,-0.12093 0.09016,-0.24143 0.13692,-0.36138l-0.07254,-0.03436l2.08968,-4.41152c0.05797,-0.12952 0.12605,-0.2536 0.20325,-0.37117l0.04263,-0.59683c0.08592,-1.38234 1.23434,-2.47704 2.63844,-2.47704c1.46,0 2.64354,1.18355 2.64354,2.64354c0,0.05666 -0.00185,0.11289 -0.00533,0.16867l-0.19696,3.54434c0.25122,0.37976 0.40706,0.82815 0.43327,1.31111l0.17976,2.87682c0.02425,0.11289 0.04132,0.22838 0.05068,0.34605l0.03469,0.38172c0.53897,0.3702 0.93375,0.93505 1.08317,1.5931l0.69155,2.76622l-0.08559,0.02143l0.13246,0.20956c0.06623,0.98845 0.10484,2.01377 0.11017,3.06105c0.19173,0.5741 0.2907,1.22954 0.31157,1.94405c0.39195,-0.01544 0.75431,0.02643 1.08861,0.11648c0.40336,-0.133 0.81879,-0.20859 1.24477,-0.21979c1.42182,-0.03752 1.88891,1.78669 2.26998,3.47006c0.21055,0.24654 0.42424,0.52495 0.64077,0.83706c0.20641,-0.05176 0.4225,-0.07927 0.64502,-0.07927c0.91341,0 1.7185,0.46317 2.19342,1.16757c0.20293,-0.04992 0.41499,-0.07634 0.63337,-0.07634c1.40964,0 2.56166,1.1034 2.63941,2.49358l0.1279,1.98657c0.0944,-0.01023 0.19042,-0.01544 0.28754,-0.01544c0.46948,0 0.91026,0.12235 1.29241,0.33691c0.38215,-0.21457 0.82303,-0.33691 1.29241,-0.33691c0.86099,0 1.62596,0.41163 2.1086,1.04892c0.45241,-0.36225 1.0264,-0.57899 1.65107,-0.57899c1.33112,0 2.43246,0.98377 2.61658,2.26388l0.06927,-0.03774c0.38596,-0.22033 0.83271,-0.34626 1.30894,-0.34626c0.81172,0 1.53786,0.36583 2.02279,0.94158c0.03056,-0.00098 0.06123,-0.00163 0.09211,-0.00163c0.42207,0 0.82097,0.09885 1.17496,0.27482c0.35388,-0.17585 0.75289,-0.27482 1.17496,-0.27482c0.59912,0 1.15168,0.19934 1.59507,0.53528c0.36617,-0.19173 0.78279,-0.30026 1.22476,-0.30026c0.44197,0 0.8586,0.10853 1.22477,0.30026c0.44338,-0.33593 0.99584,-0.53528 1.59507,-0.53528c0.33105,0 0.64794,0.0609 0.93994,0.17193c0.40804,-0.25785 0.89154,-0.40695 1.40986,-0.40695c0.37281,0 0.72755,0.0771 1.04913,0.21641c0.48481,-0.5641 1.20345,-0.92135 2.00561,-0.92135c0.81955,0 1.55189,0.37291 2.03681,0.95833c0.10266,-0.01208 0.20706,-0.01838 0.31299,-0.01838c0.83478,0 1.5793,0.38695 2.06368,0.99128c0.16846,-0.03372 0.34267,-0.05133 0.52114,-0.05133c0.02719,0 0.05427,0.00043 0.08124,0.00119c0.47188,-0.43816 1.10394,-0.70613 1.79865,-0.70613c0.46253,0 0.89731,0.11876 1.27556,0.32756c0.25829,-0.70797 0.81075,-1.27468 1.50938,-1.55189l0.42326,-0.93113c0.4038,-0.94331 1.34036,-1.60421 2.43137,-1.60421c1.4041,0 2.55252,1.09459 2.63843,2.47704l0.23349,3.268l-0.14333,0.01023zM216.74579,185.33207l-0.28634,0.46524c0.11038,-0.02099 0.22088,-0.04143 0.33137,-0.06166c-0.01577,-0.1305 -0.03077,-0.26514 -0.04514,-0.40358z" fill="#f2c2a4"/><path d="M207.84943,262.05718c-2.23398,0.74462 -3.14141,-1.16397 -3.31291,-1.58984c-0.07374,-0.05297 -0.14768,-0.10538 -0.22175,-0.15715c-0.04013,0.00185 -0.08058,0.00272 -0.12115,0.00272c-0.33898,0 -0.66317,-0.06384 -0.96104,-0.18009l-2.52729,-0.91906c-1.77015,-0.64393 -3.55021,-1.26087 -5.33723,-1.8564c0,0 -0.64109,-0.2137 -1.16702,-0.74919l-0.50363,-0.08396c-1.27425,-0.18923 -2.25193,-1.28784 -2.25193,-2.61483c0,-1.46 1.18354,-2.64354 2.64354,-2.64354h2.81983v0.1019l0.21805,-0.09288c2.87834,0.49145 4.49353,0.88394 5.66,1.76396c0.48732,0.24067 0.97627,0.51222 1.4564,0.8002l0.046,-0.04089l0.13224,0.14888c1.5569,0.95071 3.0058,2.05585 3.97957,2.81059l1.11993,1.95569c0,0 0.83597,2.50793 -1.67196,3.34391z" fill="#f2c2a4"/><path d="M262.57358,262.10047l-2.25378,0.49699c-6.26172,1.04359 -12.26385,1.18453 -18.56071,1.67305c0,0 -0.95473,0.07341 -1.75917,-0.44273c-0.7381,0.33072 -2.00496,0.58302 -3.0927,-0.7766c-1.6514,-2.06433 0.41282,-3.71573 0.41282,-3.71573c6.52023,-5.05252 16.43754,-5.93569 24.27846,-3.98848l0.11376,0.08852l0.01642,-0.04502l2.52696,0.91885c1.04533,0.35257 1.79811,1.34113 1.79811,2.50553c0,1.16429 -0.75278,2.15286 -1.79811,2.50553l-0.45817,0.1666c-0.57475,0.46927 -1.22379,0.61347 -1.22379,0.61347z" fill="#f2c2a4"/><path d="M262.01046,257.34714c1.09949,-1.15527 2.77297,-0.5467 2.77297,-0.5467l2.52696,0.91885c1.04533,0.35268 1.79811,1.34113 1.79811,2.50553c0,1.46 -1.18354,2.64354 -2.64354,2.64354c-0.08439,0 -0.16791,-0.00391 -0.25035,-0.01174l-2.70661,-0.22556c-0.89427,0.00076 -1.78854,0.00152 -2.68269,0.00228c0,0 -2.64354,0 -2.64354,-2.64354c0,-2.64354 2.64354,-2.64354 2.64354,-2.64354c0.39509,0.00033 0.79019,0.00066 1.18528,0.00087z" fill="#f2c2a4"/><path d="M235.52771,259.46312c1.9297,-0.86067 3.98228,-1.48381 6.06402,-1.84585l0.9046,-0.036c0,0 2.1422,0 2.56982,1.92839c0.75604,0.1355 2.18863,0.64893 2.18863,2.59504c0,2.64354 -2.64354,2.64354 -2.64354,2.64354h-0.46991c-0.56812,0 -1.13428,-0.09168 -1.68795,-0.25383c-0.15606,0.07406 -0.32059,0.13322 -0.49166,0.17585l-2.52946,0.68993c0,0 -1.14125,0.31125 -2.10511,-0.2461c-0.45154,0.35942 -1.02325,0.57421 -1.64521,0.57421c-1.46,0 -2.64354,-1.18355 -2.64354,-2.64354c0,-0.86219 0.41272,-1.62801 1.05142,-2.11055c0.40456,-1.00117 1.43814,-1.47098 1.43814,-1.47098z" fill="#f2c2a4"/><path d="M194.88206,245.51687c-0.00098,-0.00217 -0.00207,-0.00435 -0.00315,-0.00642c-0.65034,-0.41946 -1.14929,-0.88187 -1.51393,-1.37952c-0.03817,-0.01044 -0.07624,-0.0212 -0.11398,-0.03251c-0.25502,-0.07613 -0.49885,-0.18509 -0.73048,-0.32147c1.23596,1.87804 2.4665,2.79993 3.79632,3.29366c-0.61238,-0.39259 -1.1146,-0.89329 -1.43476,-1.55363zM184.88687,236.54297c0.23414,-0.60064 0.45426,-1.16212 0.66491,-1.69c-0.43065,-1.31014 -0.70689,-3.30508 -0.78508,-5.58409c-0.04122,0.00022 -0.08243,0.00022 -0.12365,0l0.11256,-0.37867c-0.15399,-6.3124 1.1891,-14.58397 4.91657,-16.63232c-0.35964,-1.05554 0.17042,-2.11566 0.17042,-2.11566c0.82826,-1.59213 1.8155,-2.98785 2.94849,-4.23426c-0.02088,-0.13399 -0.03176,-0.27134 -0.03176,-0.41108c0,-0.5231 0.15193,-1.01075 0.41403,-1.42117l1.48196,-2.4082l0.71515,0.44012l0.4262,-0.34866l0.01044,0.01283c0.00707,-0.01218 0.01414,-0.02436 0.0212,-0.03654l-0.00086,-0.00109c0.00086,-0.00065 0.00185,-0.00141 0.00272,-0.00207c9.76431,-16.73367 44.29591,-13.63142 59.51706,-8.86623c12.05267,5.15561 25.5489,9.76876 34.12998,20.2567l1.78908,1.7844c0,0 0.65839,0.65838 0.80292,1.58451c0.38944,0.23262 0.72048,0.4884 0.98246,0.76975c1.59833,1.71643 1.0102,4.92473 0.58552,7.64853c0.02958,1.06588 -0.05992,2.26661 -0.26122,3.52498c0.33496,11.3126 -0.7083,25.3649 -11.88627,27.35147c-0.00457,0.03186 -0.00914,0.06384 -0.0137,0.09569l-0.09255,-0.07722c-0.98921,0.16814 -2.05704,0.24241 -3.20961,0.21283c-6.741,5.52907 -12.06561,1.18399 -20.54696,1.18801c-7.64657,0.00369 -16.32868,3.08258 -22.55779,7.42548c0,0 -2.17352,1.5048 -3.67832,-0.66872c-0.26873,-0.38814 -0.42011,-0.75495 -0.48754,-1.09557c-0.04546,0.0733 -0.09146,0.14671 -0.13779,0.22022l0.02882,0.0435c-0.06047,0.06623 -0.12148,0.13224 -0.18303,0.19814c-2.26106,3.50529 -5.53167,6.96807 -8.93887,5.93362c-3.39894,1.12026 -6.49021,0.7517 -7.78078,-2.22604c-0.59215,-0.52071 -0.90645,-1.16244 -0.99835,-1.87619c-0.65643,-0.41935 -1.00269,-1.0425 -1.00269,-1.0425l-0.99355,-1.79354c-6.15472,-12.31269 -18.55212,-5.82259 -24.66225,-19.0613c0,0 -0.75647,-1.63922 0.33539,-2.83353zM205.80566,201.75374l1.28251,-1.59105c-0.5827,0.32625 -1.16636,0.65066 -1.74362,0.96409c0.02207,0.13746 0.0335,0.27851 0.0335,0.42217c0,0.08428 -0.00392,0.16759 -0.01164,0.24981c0.14507,-0.01784 0.29179,-0.03295 0.43925,-0.04502zM262.99009,201.94307c0.72777,0.39183 1.45466,0.84609 2.17721,1.35005l-0.19586,-0.60781c0.09951,0.03643 0.19815,0.07265 0.29591,0.10864l-0.00293,-0.01533c-0.7816,-0.34659 -1.56602,-0.68645 -2.35133,-1.02129c0.02643,0.06242 0.05198,0.1243 0.07689,0.18585zM278.85713,211.24127c-0.01892,-0.30559 -0.03307,-0.61347 -0.04209,-0.92363c-0.32463,-0.24089 -0.65273,-0.47753 -0.98388,-0.71015zM257.58936,202.38765c0.08048,0.05188 0.16063,0.1056 0.24045,0.16117l0.06634,-0.19934c-0.33866,-0.51353 -0.66785,-1.04054 -0.98638,-1.58277c0.04969,0.1068 0.09897,0.215 0.14801,0.32474c0.1938,0.43425 0.37095,0.86631 0.5318,1.29622zM216.5968,252.33757l-1.58626,0.10897c-0.12289,0.37813 -0.21217,0.73767 -0.25448,1.06012c0.87164,0.08624 1.75917,0.12158 2.58732,0.11408c-0.20141,-0.40162 -0.45513,-0.83804 -0.7467,-1.28327zM210.17684,250.62332c-0.25752,-0.00381 -0.5268,-0.00728 -0.81053,-0.00957c-0.01023,0.06558 -0.01632,0.12985 -0.01816,0.19292c0.23349,0.17683 0.45829,0.36106 0.67524,0.55191c0.04481,-0.2461 0.09592,-0.49134 0.15345,-0.73528zM285.9309,241.42986l-0.20424,1.39028c0.74887,-0.12224 1.50969,-0.20065 2.25856,-0.25524c0.36008,-1.07697 0.57823,-2.16384 0.69786,-3.25778c-0.82706,0.91928 -1.74722,1.65433 -2.7523,2.12273z" fill="#b73f32"/><path d="M235.05226,128.8228c0.10305,0.52788 0.25448,1.04808 0.44447,1.55195c1.42555,-1.45898 3.07908,-2.64281 4.97427,-3.42649c0.41881,-0.17324 1.00433,-0.29363 1.63824,-0.34028l0.06863,-0.89231l0.37596,-1.12798l0.08538,-0.1342l0.02153,-0.15747l0.75202,-1.87989l0.05992,-0.08298l0.01761,-0.10082l0.73767,-1.65966l0.55007,-1.28349l0.22012,-0.2896l0.10592,-0.348l0.56399,-0.93994l0.2784,-0.27841l0.23719,-0.5008l0.18662,-0.06221l0.27732,-0.29635l0.37944,-0.63239l0.75191,-0.75191l0.07232,-0.0434l0.5268,-1.18528l0.01414,-0.01806l0.00414,-0.02251l0.93994,-2.06792l0.26883,-0.33812l0.14529,-0.40684l0.11572,-0.17357l0.07232,-0.2025l0.23382,-0.35073l0.08939,-0.26818l0.28275,-0.44425l0.14257,-0.507l0.31918,-0.55855l0.1143,-0.2858l0.16857,-0.23338l0.2075,-0.51864l0.11125,-0.1541l0.02251,-0.06307l0.65795,-0.98693l0.36138,-0.54203l0.0173,-0.02882l0.00577,-0.00576l0.08559,-0.12833l0.50244,-0.75365l0.56921,-1.28077l0.36911,-0.47242l0.23262,-0.55256l0.56399,-0.75191l0.0658,-0.05351l0.03534,-0.0771l0.70036,-0.87545l0.42631,-0.56845l0.2945,-0.44186l0.11114,-0.10114l0.0583,-0.13844l0.56399,-0.75191l0.29537,-0.24001l0.19575,-0.32637l1.3158,-1.3158l0.45165,-0.2709l0.35421,-0.38966l0.56398,-0.37596l0.66502,-0.23751l0.13615,-0.08668l0.05199,-0.09091l0.14965,-0.03741l0.25796,-0.16422l0.56399,-0.18804l0.54582,-0.04198l0.19565,-0.06982l0.09505,0.04752l0.01099,-0.00087l0.82455,-0.20608h0.75191l0.25959,0.06492l0.0335,-0.00261l0.01697,0.01523l0.66154,0.16531l0.99214,0.13529l0.93994,0.37596l1.18768,0.85784l0.4015,0.08025l0.24698,0.38804l0.37291,0.26938l0.05666,0.40554l0.45382,0.7132l0.03861,0.03861l0.23142,0.38574l0.06264,0.09842l0.00446,0.01338l0.26546,0.4423l0.12463,0.40956l0.25057,0.34704l0.37596,0.93994l0.04915,0.3604l0.17117,0.32092l0.18792,0.75191v0.65088l0.1578,0.63141v0.10103l0.03013,0.1205v0.21555l0.08592,0.1976l0.1739,1.0438l0.17129,0.85631l-0.02501,0.52603l0.12768,0.51092v1.15941l0.24056,0.47155l0.51874,2.24779l0.87992,2.81569l0.0186,0.32137l0.13366,0.29287l0.93994,5.07568l-0.02392,0.38716l0.10843,0.37237l0.18804,4.88764l-0.06351,0.30331l0.05188,0.30549l-0.37596,4.88776l-0.04774,0.14323l0.01697,0.14997l-0.48775,3.6581l1.88108,1.37093l1.43433,0.81967c0.3243,-0.40228 0.83261,-0.73973 1.62356,-0.87937l-0.00029,0.00032c1.9099,-0.33703 2.66595,0.9743 2.93315,1.69686c0.69732,0.51027 0.96278,1.32841 1.0438,1.65085c0.61281,0.48416 1.00595,1.2339 1.00595,2.07543c0,0.20957 -0.02436,0.41337 -0.07047,0.6089l-0.54844,2.55915l-0.55083,2.75403c-0.22197,1.23565 -1.30242,2.17319 -2.6019,2.17319c-0.46948,0 -0.91026,-0.12234 -1.29241,-0.33691v2.58101l-0.10723,0.42871l0.03523,0.44045l-0.11604,0.69634v2.00626l-0.0621,0.24828l0.03828,0.25307l-0.34877,3.66189l0.00272,0.00826l0.07069,0.13246l0.01424,0.00815l0.00881,0.03502l0.30635,0.57432l0.18804,0.75191v0.65088l0.1578,0.63141v0.79954l0.25764,0.48308l0.26198,0.22827l0.01381,0.28884l0.06068,0.11375l0.18804,0.75202v0.65088l0.1578,0.63141v2.36688c3.18046,2.19189 3.91671,3.50301 1.69164,7.95358c-2.72131,5.44303 -15.06205,4.47797 -19.34558,4.17825c-15.66454,-1.09633 -35.90656,-13.96409 -34.84176,-32.16951c0.24254,-4.14697 1.3235,-8.85115 3.37584,-12.90027c-0.48802,0.23587 -0.99898,0.42661 -1.6049,0.5557c0,0 -0.18261,0.03652 -0.40599,-0.00076c-0.08577,0.04119 -0.15588,0.06215 -0.20684,0.0593c-0.10107,-0.00565 -0.1977,-0.01447 -0.29001,-0.0263c-0.07531,0.01812 -0.15394,0.02772 -0.23481,0.02772c-0.31049,0 -0.58792,-0.1415 -0.77134,-0.36353c-0.62906,-0.41002 -0.77242,-1.1168 -0.60924,-1.8918c-0.57448,0.71875 -1.14963,1.4526 -1.73224,2.20232c-6.39103,10.25456 -8.88069,27.291 -19.96361,33.43582c0,0 -1.54722,0.84392 -2.39113,-0.7033c-0.84392,-1.54722 0.7033,-2.39113 0.7033,-2.39113c0.2733,-0.14606 0.54126,-0.30114 0.80411,-0.46481c-0.86577,-0.11168 -1.5346,-0.85163 -1.5346,-1.74775c0,-0.45578 0.17302,-0.8711 0.45697,-1.18398l0.05035,-0.05601c-0.03905,-0.14583 -0.05992,-0.29906 -0.05992,-0.45719c0,-0.11582 0.0112,-0.22914 0.03252,-0.33866c-0.18455,-0.27863 -0.292,-0.61271 -0.292,-0.97192l0.00001,-0.00037c0,-0.06134 0.00316,-0.1218 0.00925,-0.1815l0.18597,-2.04585l0.03883,0.00348l-0.02436,-0.11919c0.11332,-0.50211 0.2535,-0.99714 0.41608,-1.48544l-0.05655,-0.73593l0.02534,-0.00195l-0.02925,-0.06558c-0.00065,-3.72367 -0.30483,-6.35264 0.40901,-9.27013l-0.5778,-0.08884l0.37182,-2.41679c0.02741,-0.20075 0.08874,-0.39074 0.17781,-0.56399c-1.65815,-3.15609 -2.31816,-8.06853 -0.91471,-11.58372c-3.12347,-6.37635 -6.04857,-16.29269 -3.4332,-18.4263l-0.15313,-0.6126c0,-5.12908 -0.99574,-10.16354 -0.53387,-15.38146c0.50591,-5.71416 6.76036,-10.48804 11.79177,-6.27912c5.62911,4.70896 16.2432,17.80108 16.66658,27.49763c1.35211,0.39292 2.38493,1.3085 2.72587,2.90216c1.71687,-1.23129 3.62808,-2.05553 5.76777,-2.23921l-0.07003,-0.70057l1.85629,-0.18564c0.06536,-0.00728 0.1317,-0.01109 0.19891,-0.01109c0.97333,0 1.76243,0.78911 1.76243,1.76243c0,0.6411 -0.34235,1.20226 -0.85425,1.51068l-1.43031,0.89394c-1.88758,1.41745 -3.5559,2.90123 -5.1059,4.46258c0.06608,-0.0047 0.13569,-0.00332 0.20685,0.00726c0.16615,-0.12298 0.37175,-0.19571 0.59434,-0.19571c0.19902,0 0.38447,0.05814 0.54028,0.15837c0.64991,0.08849 0.79249,0.80142 0.79249,0.80142zM261.64537,136.71697l-0.65785,2.19287l0.37193,0.26394l0.28591,0.33354z" fill="#e36a37"/><path d="M235.78979,259.94086c1.0574,1.40986 -0.35247,2.46737 -0.35247,2.46737l-0.43055,0.17488c-6.70129,10.66053 -25.07376,15.47879 -27.14353,0.60466c-0.82206,1.22074 -2.21213,0.52571 -2.21213,0.52571l-0.26448,-0.14312c-2.28314,-0.86045 -4.61838,-1.51492 -6.91043,-2.37482c-17.60261,-5.97321 -17.13237,-27.83976 -15.44932,-42.60154c3.95042,-12.01841 13.08538,-22.42011 16.06289,-34.53802c0,0 0.22,-0.88024 0.97605,-1.21965c0.21446,-1.89348 0.45698,-3.76314 0.77127,-5.65152c2.57601,-15.42093 1.75558,-30.564 -1.28741,-45.76493c-2.42974,-10.9336 -7.42156,-34.99054 3.73204,-42.80448c0.37258,-1.30045 1.82616,-1.17931 1.82616,-1.17931c14.28111,1.31232 19.7398,17.48906 24.694,28.63626c0.22327,0.59465 0.44654,1.18942 0.6698,1.78407l0.25002,0.292c0,0 0.52278,0.7841 0.23034,1.58778c2.54838,-1.48686 5.38334,-2.73 8.93822,-3.62144l1.17158,-0.39596c0,0 1.46424,-0.48808 2.10893,0.81955c3.38535,-7.68443 7.72042,-14.78114 14.38028,-20.60721c5.60367,-5.48665 12.01122,-2.15057 15.89879,3.55826c4.97106,7.30008 2.95958,18.8539 4.61795,27.18453c0.60956,6.19157 -0.64371,12.61469 -1.97472,18.64663l0.04198,0.2684c0,0 0,1.76243 -1.76243,1.76243c-1.76243,0 -1.76243,-1.76243 -1.76243,-1.76243l0.04198,-1.03303c1.24412,-5.55549 2.51098,-11.65539 1.9297,-17.36041c-1.51785,-7.55185 0.50711,-19.18179 -4.05841,-25.7415c-2.67312,-3.84069 -6.66618,-6.9535 -10.56418,-2.94903c-10.5645,9.24567 -14.96493,21.87243 -19.27086,34.8435c0,0 -0.55735,1.67196 -2.2293,1.1146c-1.67196,-0.55736 -1.1146,-2.2292 -1.1146,-2.2292c1.49208,-4.45938 2.99829,-8.87721 4.743,-13.14192l-1.34222,0.44229c-8.80805,2.19495 -12.84645,6.48152 -19.54263,11.63016c0,0 -1.40986,1.0574 -2.46737,-0.35247c-1.0574,-1.40986 0.35247,-2.46736 0.35247,-2.46736c3.71475,-2.69325 6.67954,-5.25805 9.96658,-7.42722c-0.78802,-0.09776 -1.26533,-0.81379 -1.26533,-0.81379l-0.6176,-1.00954c-0.21055,-0.56214 -0.42109,-1.12438 -0.63163,-1.68653c-4.11692,-9.26318 -8.89548,-24.56568 -20.58328,-26.33169c-0.08384,0.06025 -0.13909,0.09102 -0.13909,0.09102c-10.40311,5.26284 -4.75616,30.80782 -2.81897,39.52517c3.12466,15.63779 3.95325,31.2114 1.31547,47.07245c-0.36366,2.17885 -0.62348,4.33573 -0.87143,6.52926l-0.45861,1.85096c0,0 -0.26393,1.05566 -1.2065,1.30057c-3.57327,11.05834 -11.53631,20.78241 -15.30772,31.90502c-1.3805,12.78272 -2.53523,33.39482 13.18281,38.52269c2.31392,0.8673 4.66286,1.53515 6.97176,2.39722l0.60314,0.2907c0,0 0.21913,0.10963 0.45306,0.32865c-0.00446,-0.17835 -0.00707,-0.35889 -0.00761,-0.5418c0,0 0,-1.76243 1.76243,-1.76243c1.76243,0 1.76243,1.76243 1.76243,1.76243c-0.04676,14.4401 15.63572,8.71734 20.82003,0.36737l1.3047,-1.12657c0,0 1.40986,-1.0574 2.46737,0.35247z" fill="#5f141a"/><path d="M281.89022,188.23183l-0.25111,-1.43019c0.00326,-4.50125 -1.06599,-8.90538 -1.08241,-13.36062c-1.40932,-14.0934 -0.70471,-26.28874 -4.49515,-40.18616c0,0 -0.46372,-1.70034 1.23651,-2.16406c1.70034,-0.46372 2.16405,1.23662 2.16405,1.23662c3.85341,14.12972 3.18284,26.61609 4.615,40.93808c-0.01761,4.36791 1.01967,8.71876 1.08361,13.13377c0.15291,0.30124 0.19597,0.56007 0.19597,0.56007l0.20674,1.24553c0.14333,0.71689 0.28667,1.43378 0.43,2.15068c1.25957,5.70034 1.301,12.74781 3.97717,18.02098c3.52487,6.94556 7.76435,13.0609 7.77403,21.16989c0,17.44306 -8.25091,27.64412 -25.09051,32.69827c-13.48993,4.4969 -26.69656,4.42045 -40.87718,4.42045c0,0 -1.76243,0 -1.76243,-1.76243c0,-1.76243 1.76243,-1.76243 1.76243,-1.76243c13.81379,0 26.68253,0.1206 39.81326,-4.25601c15.44453,-4.63142 22.62956,-13.39695 22.62956,-29.33793c0.00978,-7.51672 -4.2198,-13.14964 -7.40971,-19.60919c-2.78438,-5.63836 -2.91194,-12.79924 -4.26547,-18.85369c-0.14583,-0.72918 -0.29167,-1.45826 -0.43762,-2.18744l-0.02567,-0.15323c-0.14464,-0.27797 -0.19129,-0.51103 -0.19129,-0.51103z" fill="#5f141a"/></g></g></svg>