<svg version="1.1" xmlns="http://www.w3.org/2000/svg" xmlns:xlink="http://www.w3.org/1999/xlink" width="30.39067" height="117.49249" viewBox="0,0,30.39067,117.49249"><g transform="translate(-224.68397,-120.91516)"><g data-paper-data="{&quot;isPaintingLayer&quot;:true}" fill-rule="nonzero" stroke="none" stroke-width="0.5" stroke-linecap="butt" stroke-linejoin="miter" stroke-miterlimit="10" stroke-dasharray="" stroke-dashoffset="0" style="mix-blend-mode: normal"><path d="M239.96655,236.60441c-0.00031,-0.74678 0.0155,-1.49381 0.04635,-2.24019c-0.02628,-0.0921 -0.03482,-0.15192 -0.03482,-0.15192l-0.14733,-1.04346c-0.04652,-0.5117 -0.09303,-1.02339 -0.13955,-1.53509c0,0 -0.04971,-0.54674 0.26945,-0.96408c-0.01473,-2.21939 -0.06578,-4.43227 -0.1267,-6.64624c-0.06561,0.00274 -0.13125,0.00532 -0.19692,0.00773c-2.47829,0.09117 -4.95373,-0.27962 -7.43478,-0.27854c0,0 -1.30832,0 -1.30832,-1.30832c0,-1.30832 1.30832,-1.30832 1.30832,-1.30832c2.45386,0.00102 4.90811,0.37108 7.35792,0.27967c0.06631,-0.00248 0.1326,-0.00511 0.19886,-0.0079c-0.02486,-0.85283 -0.04964,-1.70626 -0.07283,-2.56073c-0.03277,-1.20724 -0.01191,-2.40419 -0.01288,-3.59847c0.0787,0.18948 0.26554,0.32272 0.4835,0.32272c0.25724,0 0.47114,-0.18561 0.51507,-0.43021l0.13765,-0.68826l-0.10736,-0.02147l0.38101,-0.23335c0.14505,-0.58306 0.27834,-1.04726 0.34371,-1.49687l0.36385,-0.72772l-0.04948,-0.02474c0.12817,-0.16213 0.25218,-0.32733 0.37081,-0.49618c0.00072,-0.00097 0.00145,-0.00195 0.00217,-0.00293l0.01715,-0.02288c0.23459,2.45412 0.10296,4.88172 0.1707,7.35809c0.02238,0.81798 0.04612,1.63502 0.06993,2.45152c2.04842,-0.16776 4.08821,-0.37781 6.15803,-0.37942l0.87553,0.17862c0,0 1.26925,0.31732 0.95193,1.58657c-0.31732,1.26925 -1.58657,0.95193 -1.58657,0.95193l-0.24088,-0.10049c-2.04463,-0.00173 -4.05944,0.2087 -6.08303,0.37686c0.0564,2.04303 0.10469,4.08505 0.12469,6.13183c0.56807,0.36424 0.56807,1.11443 0.56807,1.11443c-0.00394,1.56085 0.25673,3.06353 0.41217,4.61463l0.00649,0.82796c0,0 0,0.2318 -0.09757,0.50025c-0.01795,0.02092 -0.03609,0.04231 -0.05444,0.0642l-0.75704,0.54075c-0.10249,0.0713 -0.17827,0.17831 -0.20933,0.30301c-0.02855,0.02534 -0.05703,0.0509 -0.0854,0.07667l-0.25204,0.17079c-0.07475,0.04914 -0.13616,0.11691 -0.17763,0.19671c-0.00402,0.002 -0.00804,0.00403 -0.01205,0.00606c-0.06879,0.0025 -0.13641,0.00576 -0.20323,0.00996c-0.31466,-0.15107 -0.64586,-0.26531 -0.9856,-0.35381l0.03824,-0.10199l-0.20401,-0.07651l-0.51728,-0.51728z" fill="#ff8fbd"/><path d="M253.36266,221.10052c0.92513,0.92511 0.00002,1.85024 0.00002,1.85024l-0.27911,0.27912c-2.18944,2.14377 -3.7598,5.43131 -5.40537,8.0139c-1.06798,1.67612 -2.28982,3.22477 -3.36997,4.86969l-0.33483,0.33485l0.00702,0.00702l-0.02274,0.0094c-0.08347,0.10033 -0.1661,0.20135 -0.24801,0.30295c-0.09686,0.0981 -0.19645,0.20869 -0.30321,0.33601l-0.75704,0.54075c-0.10249,0.0713 -0.17827,0.17831 -0.20933,0.30301c-0.02855,0.02534 -0.05703,0.0509 -0.0854,0.07667l-0.25204,0.17079c-0.07475,0.04914 -0.13616,0.11691 -0.17763,0.19671c-0.00402,0.002 -0.00804,0.00403 -0.01205,0.00606c-0.06879,0.0025 -0.13641,0.00576 -0.20323,0.00996c-0.31466,-0.15107 -0.64586,-0.26531 -0.9856,-0.35381l0.03824,-0.10199l-0.20401,-0.07651l-0.16214,-0.16214c0.01956,-0.04113 0.03927,-0.08215 0.0591,-0.12307c-0.65185,-0.57556 -1.40338,-1.04091 -2.03737,-1.63788c-3.79386,-3.57225 -7.6128,-7.68337 -10.39532,-12.11676c0,0 -0.69341,-1.10945 0.41604,-1.80286c1.10945,-0.69341 1.80286,0.41604 1.80286,0.41604c3.09039,4.96828 7.44499,8.76805 11.55132,12.77328c1.16441,-1.83058 2.50366,-3.53543 3.68156,-5.38887c1.76645,-2.77953 3.44795,-6.10478 5.75893,-8.45345l0.27909,-0.2791c0,0 0.92511,-0.92513 1.85024,-0.00002z" fill="#ff8fbd"/><path d="M240.0572,213.87721l0.12624,0.22723l0.35991,-0.65984l0.13762,0.07507c0.00067,-0.00081 0.00134,-0.00163 0.00201,-0.00244c0.25755,-0.76103 0.70402,-1.38408 1.63361,-2.33745l0.21265,-0.28354l-0.00485,-0.00364l0.0148,-0.01008c0.11519,-0.17629 0.2092,-0.36396 0.28879,-0.55886l0.05502,0.03144l0.08602,-0.15054c3.20417,-2.47691 7.66266,-3.10319 10.41605,0.90567c1.10877,1.61435 1.40017,3.45555 1.31289,5.34436c0.51013,3.6081 -0.33921,7.42091 -2.42091,10.33339c-2.1105,3.61581 -5.23445,7.4851 -8.7753,9.74429l-0.18694,0.23432c0,0 -0.92512,0.92512 -1.85024,0c-0.57211,-0.57211 -0.43661,-1.14423 -0.2499,-1.49754c-0.33727,0.13791 -0.67668,0.07623 -0.90678,-0.00266c-0.20435,0.13209 -0.44786,0.20876 -0.70928,0.20876c-0.2993,0 -0.57512,-0.1005 -0.79556,-0.26959l-1.01717,-0.76288c-1.57768,-0.70474 -2.73948,-1.68915 -4.12299,-2.70859c-2.27988,-1.67995 -4.2199,-3.25809 -5.42884,-5.50556c-1.61421,-2.02609 -2.63847,-4.37777 -2.64316,-7.36463c-0.57435,-2.50482 -0.38579,-4.8788 1.39504,-7.13498c0.41869,-0.53045 0.67423,-1.21491 1.21022,-1.62648c0.53617,-0.41171 1.25624,-0.49983 1.88435,-0.74975c0,0 0.16854,-0.06129 0.40351,-0.07608c0.03361,-0.01453 0.06733,-0.02875 0.10114,-0.04265c2.01727,-0.82959 3.82344,-0.73631 5.39744,-0.06338c0.22352,0.27027 0.47369,0.5177 0.74646,0.73827c0.04181,0.12689 0.13085,0.23232 0.24631,0.29549l0.73279,0.41874l0.16638,0.33276l0.01245,-0.00623l0.003,0.03486c0.18528,0.27843 0.39348,0.54165 0.6172,0.792c0.00311,0.00443 0.00622,0.00884 0.00933,0.01325l-0.06443,0.03866l0.41373,0.68955c0.05656,0.09808 0.144,0.1761 0.24904,0.22077l0.15015,0.30032c0.03909,0.08247 0.09912,0.15309 0.17322,0.20501c0.00205,0.01841 0.00404,0.03681 0.00597,0.05524c0.26242,0.11996 0.47827,0.32414 0.613,0.57797zM244.92768,232.10139c-0.00776,-0.00152 -0.01549,-0.00311 -0.0232,-0.00476c0.00309,0.00548 0.00637,0.01136 0.0098,0.01765c0.00446,-0.00429 0.00893,-0.00859 0.0134,-0.01288zM249.59204,225.97226c-0.05664,0.16025 -0.11645,0.32586 -0.17913,0.49444c0.14611,-0.2315 0.28783,-0.46175 0.42496,-0.68995c-0.07514,0.07493 -0.15777,0.13909 -0.24583,0.19551zM241.96002,234.45698l0.06634,-0.06151c-0.01092,-0.01157 -0.02148,-0.02309 -0.03169,-0.03453c-0.01008,0.03158 -0.0216,0.06359 -0.03465,0.09603z" fill="#ff8fbd"/><path d="M228.57385,218.03092c-0.72256,0 -1.30832,-0.58575 -1.30832,-1.30832c0,-0.08177 0.0075,-0.16178 0.02185,-0.2394l0.27506,-1.65034l0.09768,0.01628l-0.04227,-0.23272c0.26307,-0.48662 0.52613,-0.97323 0.7892,-1.45984c0,0 0.28058,-0.50505 0.80445,-0.65745c0.18412,-0.09892 0.39467,-0.15505 0.61833,-0.15505c0.72256,0 1.30832,0.58575 1.30832,1.30832c0,0.04714 -0.00249,0.0937 -0.00735,0.13956c0.00486,0.04585 0.00735,0.09241 0.00735,0.13956c0,0.08882 -0.00885,0.17558 -0.02572,0.25943l-0.16551,0.91034c0.03364,0.11594 0.05168,0.23852 0.05168,0.36531c0,0.15538 -0.02709,0.30443 -0.0768,0.4427l-0.39947,1.19839c-0.16442,0.53461 -0.66218,0.92321 -1.25071,0.92321c-0.02341,0 -0.04668,-0.00061 -0.06978,-0.00183c-0.0231,0.00121 -0.04637,0.00183 -0.06978,0.00183c-0.09578,0 -0.18917,-0.01029 -0.27911,-0.02983c-0.08993,0.01954 -0.18332,0.02983 -0.27911,0.02983z" fill="#ffd4e6"/><path d="M230.71299,217.15063c0.04652,0.46518 0.09304,0.93036 0.13956,1.39554l-0.15854,0.24715l0.01747,0.15722c0,0 0.01805,0.16247 -0.01603,0.37894l0.01718,0.189c0.00453,0.0443 0.00686,0.08925 0.00686,0.13475c0,0.71217 -0.56902,1.29144 -1.27723,1.30796c-0.1771,0.0895 -0.37731,0.13992 -0.5893,0.13992c-0.55903,0 -1.03616,-0.35061 -1.22351,-0.84394c-0.23615,-0.31321 -0.27942,-0.6194 -0.2389,-0.88222l-0.07442,-0.96741l-0.03539,-0.23001l0.01748,-0.00269l-0.00368,-0.04782l-0.02521,-0.04867c0.00589,-0.01648 0.01177,-0.03297 0.01766,-0.04946l-0.00387,-0.0503h-0.0176c0,0 0,-0.04009 0,-0.10918c-0.08927,-0.17693 -0.13956,-0.37688 -0.13956,-0.58859v-1.39554c0,0 0,-1.30832 1.30832,-1.30832c0.02586,0 0.05121,0.00051 0.07607,0.00151c0.02104,-0.001 0.04221,-0.00151 0.06349,-0.00151c0.26592,0 0.51332,0.07934 0.7198,0.21564c0.23746,0.08494 0.44321,0.23656 0.59467,0.43232c0.48659,0.19068 0.83116,0.66439 0.83116,1.21858c0,0.04178 -0.00196,0.08311 -0.00579,0.12389l-0.03413,0.40954c0.02652,0.10468 0.03342,0.1737 0.03342,0.1737z" fill="#ffd4e6"/><path d="M240.64839,215.40481l0.0818,0.2454c0.00994,0.02765 0.01536,0.05746 0.01536,0.08854c0,0.00706 -0.00028,0.01406 -0.00083,0.02097c0.09133,-0.10009 0.18915,-0.40068 0.26522,-0.64619l-0.10259,0.0342c-0.02765,0.00994 -0.05746,0.01536 -0.08854,0.01536c-0.00149,0 -0.00297,-0.00001 -0.00445,-0.00004l-0.18236,0.12157c-0.00642,0.00442 -0.01305,0.00855 -0.01986,0.01239l0.02248,0.11238zM240.25502,214.51625c0.10542,-0.06861 0.22516,-0.10857 0.35117,-0.13042l-0.01829,-0.07318l0.32924,-0.08231c0.00871,-0.00238 0.01759,-0.00432 0.02663,-0.0058l0.06186,-0.04124c0.04211,-0.02897 0.09314,-0.04593 0.14812,-0.04593c0.07226,0 0.13767,0.02929 0.18502,0.07664c0.04735,0.04735 0.07664,0.11277 0.07664,0.18502c0,0.02998 -0.00504,0.05878 -0.01432,0.0856l0.03098,-0.0062c0.01823,-0.00402 0.03717,-0.00614 0.05661,-0.00614c0.14451,0 0.26166,0.11715 0.26166,0.26166c0,0.05498 -0.01696,0.10601 -0.04593,0.14812l-0.15095,0.22641c-0.27228,0.81079 -0.65518,1.07085 -0.98211,0.9398l0.06955,0.17388c0.01347,0.03153 0.02092,0.06624 0.02092,0.10269c0,0.13176 -0.09738,0.24077 -0.2241,0.25899c0.07033,0.29557 0.03256,0.52653 -0.22554,0.58105c-0.17769,0.03753 -1.41836,-0.87682 -1.55265,-1.07387c-0.11951,-0.17538 0.22877,0.36011 0.30962,0.55633c0.13154,0.31927 0.3054,0.61941 0.45779,0.92927c0.17704,0.41581 0.82531,1.93216 0.03369,2.18346c-0.34477,0.10945 -1.50178,-1.19299 -1.76855,-1.45504c-0.06229,-0.06119 0.1187,0.13431 0.14671,0.21701c0.10964,0.32367 0.12323,0.67234 0.19214,1.00706c0.1509,0.73288 0.94908,2.56085 0.74115,3.40352c0.01165,0.00256 0.0237,0.00588 0.03617,0.01004c0.24823,0.08274 0.16549,0.33098 0.16549,0.33098l-0.08182,0.24547c-0.03288,0.10692 -0.13244,0.18464 -0.25014,0.18464c-0.12862,0 -0.23557,-0.0928 -0.25753,-0.2151l-0.08278,-0.41391l0.04165,-0.00833c-0.47252,-1.22694 -0.68605,-2.69903 -0.92331,-3.94969c-0.04067,-0.21436 -0.26584,-1.10358 -0.00536,-1.25531c0.93015,-0.5418 2.49632,2.75493 1.73104,0.38315c-0.05009,-0.15524 -0.12932,-0.29953 -0.19398,-0.44929c-0.12915,-0.26238 -1.0446,-1.81244 -0.6624,-2.07392c0.23143,-0.15833 1.02383,0.09868 1.47642,0.43915c-0.25206,-0.39518 -0.56933,-0.89915 -0.62168,-1.00625l-0.23004,-0.4634c-0.01893,-0.03621 -0.02964,-0.0774 -0.02964,-0.12109c0,-0.14451 0.11715,-0.26166 0.26166,-0.26166c0.05951,0 0.11438,0.01987 0.15834,0.05333l0.26478,0.19694c0.03719,-0.09922 0.1329,-0.16984 0.2451,-0.16984c0.07226,0 0.13767,0.02929 0.18502,0.07664l0.15043,0.15043z" fill="#ff8fbd"/><path d="M240.19882,192.61193c-0.00031,-0.74678 0.0155,-1.49381 0.04635,-2.24019c-0.02627,-0.09209 -0.03482,-0.15192 -0.03482,-0.15192l-0.14733,-1.04345c-0.04652,-0.5117 -0.09303,-1.02339 -0.13955,-1.53509c0,0 -0.04971,-0.54673 0.26944,-0.96408c-0.01473,-2.21939 -0.06578,-4.43227 -0.1267,-6.64624c-0.06561,0.00274 -0.13125,0.00532 -0.19691,0.00774c-2.47829,0.09117 -4.95373,-0.27962 -7.43478,-0.27854c0,0 -1.30832,0 -1.30832,-1.30832c0,-1.30832 1.30832,-1.30832 1.30832,-1.30832c2.45386,0.00102 4.90811,0.37108 7.35792,0.27967c0.06631,-0.00247 0.1326,-0.00511 0.19886,-0.0079c-0.02486,-0.85283 -0.04963,-1.70626 -0.07283,-2.56073c-0.03277,-1.20724 -0.0119,-2.40419 -0.01288,-3.59847c0.0787,0.18948 0.26554,0.32272 0.4835,0.32272c0.25724,0 0.47114,-0.18561 0.51507,-0.43021l0.13765,-0.68826l-0.10736,-0.02147l0.38101,-0.23334c0.14505,-0.58306 0.27834,-1.04726 0.34371,-1.49687l0.36385,-0.72772l-0.04948,-0.02474c0.12817,-0.16213 0.25218,-0.32733 0.37081,-0.49618c0.00072,-0.00098 0.00145,-0.00195 0.00217,-0.00293l0.01715,-0.02288c0.23459,2.45412 0.10296,4.88172 0.17071,7.35809c0.02238,0.81797 0.04611,1.63502 0.06993,2.45152c2.04841,-0.16776 4.08821,-0.37781 6.15803,-0.37942l0.87553,0.17862c0,0 1.26925,0.31733 0.95192,1.58657c-0.31733,1.26925 -1.58657,0.95192 -1.58657,0.95192l-0.24088,-0.10049c-2.04463,-0.00173 -4.05944,0.2087 -6.08303,0.37687c0.05641,2.04303 0.10469,4.08505 0.12469,6.13183c0.56807,0.36424 0.56807,1.11444 0.56807,1.11444c-0.00394,1.56085 0.25673,3.06353 0.41217,4.61463l0.0065,0.82796c0,0 0,0.2318 -0.09757,0.50025c-0.01795,0.02092 -0.03609,0.04231 -0.05444,0.0642l-0.75704,0.54075c-0.10249,0.0713 -0.17827,0.17831 -0.20933,0.30301c-0.02855,0.02534 -0.05703,0.0509 -0.0854,0.07667l-0.25204,0.17079c-0.07475,0.04914 -0.13616,0.11691 -0.17763,0.19671c-0.00403,0.00201 -0.00804,0.00403 -0.01205,0.00606c-0.06879,0.0025 -0.1364,0.00576 -0.20323,0.00996c-0.31466,-0.15107 -0.64587,-0.26531 -0.9856,-0.35381l0.03825,-0.10199l-0.20401,-0.0765l-0.51728,-0.51728z" fill="#ff8fbd"/><path d="M253.59492,177.10805c0.92513,0.92511 0.00002,1.85024 0.00002,1.85024l-0.27911,0.27912c-2.18944,2.14376 -3.75981,5.43131 -5.40537,8.0139c-1.06798,1.67612 -2.28982,3.22477 -3.36997,4.86968l-0.33483,0.33485l0.00702,0.00702l-0.02274,0.0094c-0.08347,0.10033 -0.1661,0.20135 -0.24801,0.30295c-0.09686,0.0981 -0.19645,0.20869 -0.30321,0.33601l-0.75704,0.54075c-0.10249,0.0713 -0.17827,0.17831 -0.20933,0.30301c-0.02855,0.02534 -0.05703,0.0509 -0.0854,0.07667l-0.25204,0.17079c-0.07475,0.04914 -0.13616,0.11691 -0.17763,0.19671c-0.00403,0.00201 -0.00804,0.00403 -0.01205,0.00606c-0.06879,0.0025 -0.13641,0.00576 -0.20323,0.00996c-0.31466,-0.15107 -0.64586,-0.2653 -0.9856,-0.35381l0.03824,-0.10199l-0.20401,-0.07651l-0.16214,-0.16213c0.01956,-0.04113 0.03927,-0.08215 0.0591,-0.12307c-0.65184,-0.57556 -1.40338,-1.04091 -2.03737,-1.63788c-3.79386,-3.57225 -7.6128,-7.68337 -10.39533,-12.11676c0,0 -0.69341,-1.10945 0.41604,-1.80286c1.10945,-0.69341 1.80286,0.41604 1.80286,0.41604c3.09039,4.96828 7.44499,8.76805 11.55132,12.77328c1.16441,-1.83058 2.50366,-3.53543 3.68155,-5.38887c1.76645,-2.77953 3.44795,-6.10478 5.75893,-8.45345l0.27909,-0.2791c0,0 0.92511,-0.92513 1.85024,-0.00002z" fill="#ff8fbd"/><path d="M240.28946,169.88473l0.12624,0.22723l0.35991,-0.65984l0.13763,0.07507c0.00067,-0.00081 0.00134,-0.00163 0.00201,-0.00244c0.25755,-0.76103 0.70402,-1.38408 1.63361,-2.33745l0.21265,-0.28354l-0.00485,-0.00364l0.0148,-0.01009c0.11519,-0.17629 0.2092,-0.36396 0.28879,-0.55885l0.05502,0.03144l0.08602,-0.15054c3.20417,-2.47691 7.66266,-3.10319 10.41605,0.90568c1.10877,1.61435 1.40017,3.45555 1.31289,5.34436c0.51013,3.6081 -0.33921,7.42091 -2.42091,10.33339c-2.1105,3.6158 -5.23445,7.48511 -8.7753,9.74429l-0.18694,0.23432c0,0 -0.92512,0.92512 -1.85024,0c-0.57211,-0.57211 -0.43661,-1.14423 -0.2499,-1.49754c-0.33727,0.13791 -0.67668,0.07624 -0.90678,-0.00266c-0.20435,0.13209 -0.44786,0.20876 -0.70928,0.20876c-0.2993,0 -0.57511,-0.1005 -0.79556,-0.26959l-1.01718,-0.76288c-1.57768,-0.70474 -2.73948,-1.68915 -4.12299,-2.70859c-2.27988,-1.67995 -4.2199,-3.25809 -5.42884,-5.50556c-1.6142,-2.02608 -2.63847,-4.37778 -2.64316,-7.36463c-0.57435,-2.50483 -0.38579,-4.8788 1.39504,-7.13499c0.41869,-0.53045 0.67423,-1.21491 1.21022,-1.62648c0.53617,-0.41171 1.25624,-0.49984 1.88436,-0.74975c0,0 0.16854,-0.06129 0.40351,-0.07608c0.03361,-0.01453 0.06733,-0.02875 0.10114,-0.04265c2.01727,-0.82959 3.82344,-0.73631 5.39744,-0.06338c0.22352,0.27027 0.47369,0.5177 0.74646,0.73827c0.04181,0.12689 0.13085,0.23232 0.24631,0.29549l0.73279,0.41874l0.16638,0.33276l0.01245,-0.00623l0.003,0.03486c0.18529,0.27843 0.39348,0.54165 0.6172,0.792c0.00311,0.00443 0.00622,0.00884 0.00933,0.01325l-0.06443,0.03866l0.41373,0.68955c0.05656,0.09808 0.144,0.1761 0.24904,0.22077l0.15015,0.30031c0.03909,0.08247 0.09912,0.15309 0.17322,0.20501c0.00205,0.01841 0.00404,0.03681 0.00597,0.05524c0.26242,0.11996 0.47827,0.32414 0.613,0.57797zM245.15995,188.10891c-0.00776,-0.00152 -0.01549,-0.00311 -0.0232,-0.00476c0.00309,0.00548 0.00637,0.01136 0.0098,0.01765c0.00447,-0.00429 0.00893,-0.00859 0.0134,-0.01289zM249.82431,181.97978c-0.05664,0.16025 -0.11644,0.32586 -0.17913,0.49445c0.14611,-0.2315 0.28783,-0.46175 0.42496,-0.68996c-0.07514,0.07493 -0.15777,0.13909 -0.24583,0.19551zM242.19229,190.46451l0.06634,-0.06151c-0.01092,-0.01157 -0.02148,-0.02309 -0.03169,-0.03453c-0.01009,0.03158 -0.0216,0.06359 -0.03465,0.09603z" fill="#ff8fbd"/><path d="M228.80612,174.03844c-0.72256,0 -1.30832,-0.58576 -1.30832,-1.30832c0,-0.08177 0.0075,-0.16178 0.02185,-0.23939l0.27506,-1.65034l0.09769,0.01628l-0.04227,-0.23272c0.26307,-0.48662 0.52613,-0.97322 0.7892,-1.45984c0,0 0.28058,-0.50504 0.80445,-0.65745c0.18412,-0.09892 0.39467,-0.15505 0.61833,-0.15505c0.72256,0 1.30832,0.58576 1.30832,1.30832c0,0.04714 -0.00249,0.0937 -0.00735,0.13956c0.00486,0.04585 0.00735,0.09241 0.00735,0.13956c0,0.08882 -0.00885,0.17557 -0.02572,0.25943l-0.16551,0.91034c0.03364,0.11594 0.05168,0.23852 0.05168,0.36531c0,0.15538 -0.02708,0.30443 -0.0768,0.4427l-0.39947,1.19839c-0.16442,0.53461 -0.66218,0.92321 -1.25071,0.92321c-0.02341,0 -0.04668,-0.00061 -0.06978,-0.00183c-0.0231,0.00121 -0.04637,0.00183 -0.06978,0.00183c-0.09579,0 -0.18917,-0.01029 -0.27911,-0.02983c-0.08994,0.01954 -0.18332,0.02983 -0.2791,0.02983z" fill="#ffd4e6"/><path d="M230.94526,173.15815c0.04652,0.46518 0.09304,0.93036 0.13956,1.39554l-0.15853,0.24715l0.01747,0.15723c0,0 0.01806,0.16247 -0.01603,0.37894l0.01718,0.189c0.00453,0.0443 0.00686,0.08925 0.00686,0.13475c0,0.71217 -0.56902,1.29144 -1.27723,1.30795c-0.1771,0.0895 -0.37731,0.13992 -0.5893,0.13992c-0.55903,0 -1.03616,-0.35062 -1.22351,-0.84394c-0.23615,-0.3132 -0.27942,-0.6194 -0.2389,-0.88222l-0.07442,-0.96741l-0.03539,-0.23001l0.01748,-0.00269l-0.00368,-0.04782l-0.02522,-0.04867c0.00589,-0.01649 0.01178,-0.03297 0.01766,-0.04946l-0.00387,-0.0503h-0.0176c0,0 0,-0.04009 0,-0.10918c-0.08928,-0.17693 -0.13956,-0.37688 -0.13956,-0.58859v-1.39554c0,0 0,-1.30831 1.30832,-1.30831c0.02586,0 0.05121,0.00051 0.07607,0.00151c0.02104,-0.001 0.0422,-0.00151 0.06349,-0.00151c0.26592,0 0.51332,0.07934 0.7198,0.21564c0.23746,0.08493 0.44321,0.23656 0.59467,0.43232c0.48659,0.19068 0.83116,0.66439 0.83116,1.21858c0,0.04178 -0.00196,0.08311 -0.00579,0.12389l-0.03412,0.40954c0.02652,0.10468 0.03342,0.1737 0.03342,0.1737z" fill="#ffd4e6"/><path d="M240.88066,171.41233l0.0818,0.2454c0.00994,0.02765 0.01536,0.05747 0.01536,0.08854c0,0.00706 -0.00028,0.01406 -0.00083,0.02097c0.09133,-0.10009 0.18914,-0.40068 0.26522,-0.64619l-0.10259,0.0342c-0.02765,0.00994 -0.05747,0.01536 -0.08854,0.01536c-0.00148,0 -0.00297,-0.00001 -0.00445,-0.00004l-0.18236,0.12157c-0.00642,0.00442 -0.01305,0.00855 -0.01986,0.01239l0.02248,0.11238zM240.48728,170.52377c0.10542,-0.06861 0.22516,-0.10857 0.35117,-0.13042l-0.01829,-0.07317l0.32924,-0.08231c0.00871,-0.00238 0.01759,-0.00432 0.02663,-0.0058l0.06186,-0.04124c0.04212,-0.02897 0.09314,-0.04593 0.14812,-0.04593c0.07225,0 0.13767,0.02929 0.18502,0.07664c0.04735,0.04735 0.07664,0.11277 0.07664,0.18503c0,0.02998 -0.00504,0.05878 -0.01432,0.08561l0.03097,-0.0062c0.01823,-0.00402 0.03718,-0.00614 0.05661,-0.00614c0.14451,0 0.26166,0.11715 0.26166,0.26166c0,0.05498 -0.01696,0.106 -0.04593,0.14812l-0.15095,0.22641c-0.27228,0.81079 -0.65519,1.07085 -0.98212,0.9398l0.06956,0.17388c0.01347,0.03153 0.02091,0.06624 0.02091,0.10269c0,0.13176 -0.09738,0.24077 -0.22409,0.25899c0.07033,0.29557 0.03257,0.52653 -0.22554,0.58105c-0.17769,0.03753 -1.41837,-0.87683 -1.55265,-1.07387c-0.11952,-0.17538 0.22877,0.36011 0.30962,0.55633c0.13154,0.31926 0.3054,0.61941 0.45779,0.92927c0.17704,0.41581 0.82531,1.93216 0.03369,2.18346c-0.34477,0.10945 -1.50179,-1.19299 -1.76856,-1.45504c-0.06229,-0.06119 0.1187,0.13431 0.14671,0.21701c0.10964,0.32367 0.12323,0.67233 0.19214,1.00705c0.1509,0.73288 0.94908,2.56085 0.74115,3.40352c0.01165,0.00256 0.0237,0.00588 0.03617,0.01004c0.24823,0.08274 0.16549,0.33098 0.16549,0.33098l-0.08183,0.24547c-0.03288,0.10692 -0.13244,0.18464 -0.25014,0.18464c-0.12862,0 -0.23557,-0.0928 -0.25754,-0.2151l-0.08278,-0.41391l0.04165,-0.00833c-0.47252,-1.22694 -0.68605,-2.69903 -0.92331,-3.94968c-0.04067,-0.21436 -0.26584,-1.10358 -0.00536,-1.25531c0.93015,-0.5418 2.49632,2.75493 1.73104,0.38315c-0.05009,-0.15525 -0.12932,-0.29953 -0.19398,-0.44929c-0.12915,-0.26237 -1.04461,-1.81244 -0.66241,-2.07392c0.23143,-0.15833 1.02383,0.09868 1.47642,0.43915c-0.25206,-0.39518 -0.56933,-0.89915 -0.62168,-1.00625l-0.23004,-0.4634c-0.01894,-0.03621 -0.02964,-0.0774 -0.02964,-0.12109c0,-0.14451 0.11715,-0.26166 0.26166,-0.26166c0.05951,0 0.11438,0.01987 0.15834,0.05333l0.26478,0.19694c0.03719,-0.09922 0.1329,-0.16984 0.2451,-0.16984c0.07225,0 0.13767,0.02929 0.18502,0.07664l0.15043,0.15044z" fill="#ff8fbd"/><path d="M239.34948,149.29549c-0.00031,-0.74678 0.0155,-1.49381 0.04634,-2.24019c-0.02627,-0.09209 -0.03482,-0.15192 -0.03482,-0.15192l-0.14733,-1.04345c-0.04652,-0.5117 -0.09303,-1.02339 -0.13955,-1.53509c0,0 -0.04971,-0.54673 0.26944,-0.96408c-0.01473,-2.21939 -0.06577,-4.43227 -0.1267,-6.64625c-0.06561,0.00274 -0.13125,0.00532 -0.19692,0.00773c-2.47829,0.09117 -4.95373,-0.27962 -7.43478,-0.27854c0,0 -1.30832,0 -1.30832,-1.30832c0,-1.30832 1.30832,-1.30832 1.30832,-1.30832c2.45386,0.00102 4.90811,0.37108 7.35792,0.27967c0.06631,-0.00248 0.1326,-0.00511 0.19886,-0.0079c-0.02486,-0.85283 -0.04964,-1.70626 -0.07283,-2.56073c-0.03277,-1.20724 -0.0119,-2.40419 -0.01288,-3.59847c0.0787,0.18948 0.26553,0.32272 0.4835,0.32272c0.25724,0 0.47114,-0.18561 0.51507,-0.43021l0.13765,-0.68826l-0.10736,-0.02147l0.38101,-0.23334c0.14505,-0.58306 0.27834,-1.04726 0.34371,-1.49687l0.36385,-0.72772l-0.04948,-0.02474c0.12817,-0.16213 0.25218,-0.32733 0.37081,-0.49618c0.00072,-0.00098 0.00145,-0.00195 0.00217,-0.00293l0.01715,-0.02288c0.23459,2.45412 0.10297,4.88172 0.17071,7.3581c0.02238,0.81798 0.04611,1.63502 0.06993,2.45152c2.04841,-0.16776 4.08821,-0.37781 6.15803,-0.37942l0.87553,0.17862c0,0 1.26925,0.31733 0.95193,1.58658c-0.31733,1.26925 -1.58658,0.95193 -1.58658,0.95193l-0.24088,-0.10049c-2.04463,-0.00173 -4.05944,0.2087 -6.08303,0.37687c0.0564,2.04302 0.10469,4.08505 0.12469,6.13183c0.56807,0.36424 0.56807,1.11443 0.56807,1.11443c-0.00394,1.56085 0.25673,3.06353 0.41217,4.61463l0.0065,0.82796c0,0 0,0.2318 -0.09757,0.50025c-0.01795,0.02092 -0.03609,0.04231 -0.05444,0.06419l-0.75704,0.54075c-0.10249,0.0713 -0.17827,0.17831 -0.20933,0.30301c-0.02855,0.02534 -0.05703,0.0509 -0.0854,0.07667l-0.25204,0.17079c-0.07475,0.04913 -0.13616,0.1169 -0.17763,0.19671c-0.00403,0.002 -0.00804,0.00403 -0.01205,0.00606c-0.06878,0.0025 -0.1364,0.00576 -0.20323,0.00996c-0.31466,-0.15107 -0.64587,-0.2653 -0.9856,-0.35381l0.03825,-0.10198l-0.20401,-0.0765l-0.51728,-0.51728z" fill="#ff8fbd"/><path d="M252.74558,133.79161c0.92513,0.92511 0.00002,1.85024 0.00002,1.85024l-0.27911,0.27912c-2.18944,2.14376 -3.75981,5.43132 -5.40537,8.0139c-1.06798,1.67612 -2.28983,3.22476 -3.36998,4.86969l-0.33483,0.33484l0.00702,0.00702l-0.02274,0.0094c-0.08347,0.10033 -0.1661,0.20135 -0.24802,0.30295c-0.09686,0.09809 -0.19645,0.2087 -0.30321,0.33602l-0.75704,0.54075c-0.10249,0.0713 -0.17827,0.17831 -0.20933,0.30301c-0.02855,0.02534 -0.05703,0.0509 -0.0854,0.07667l-0.25205,0.17079c-0.07475,0.04913 -0.13616,0.1169 -0.17763,0.19671c-0.00403,0.002 -0.00803,0.00403 -0.01204,0.00606c-0.06878,0.0025 -0.13641,0.00576 -0.20323,0.00996c-0.31466,-0.15107 -0.64587,-0.2653 -0.9856,-0.35381l0.03825,-0.10198l-0.20401,-0.07651l-0.16214,-0.16213c0.01956,-0.04113 0.03927,-0.08215 0.0591,-0.12307c-0.65184,-0.57556 -1.40338,-1.04091 -2.03737,-1.63788c-3.79386,-3.57225 -7.6128,-7.68337 -10.39533,-12.11676c0,0 -0.69341,-1.10945 0.41605,-1.80286c1.10944,-0.69341 1.80286,0.41605 1.80286,0.41605c3.09039,4.96828 7.44498,8.76805 11.55132,12.77328c1.16441,-1.83058 2.50366,-3.53543 3.68156,-5.38887c1.76645,-2.77953 3.44795,-6.10478 5.75893,-8.45345l0.27909,-0.27909c0,0 0.92511,-0.92513 1.85024,-0.00002z" fill="#ff8fbd"/><path d="M239.44012,126.56829l0.12623,0.22723l0.35991,-0.65984l0.13763,0.07506c0.00067,-0.00081 0.00134,-0.00163 0.00201,-0.00244c0.25755,-0.76103 0.70402,-1.38408 1.6336,-2.33745l0.21265,-0.28354l-0.00485,-0.00364l0.0148,-0.01009c0.1152,-0.17629 0.2092,-0.36396 0.28879,-0.55885l0.05502,0.03144l0.08602,-0.15055c3.20417,-2.47691 7.66267,-3.10319 10.41606,0.90568c1.10877,1.61435 1.40017,3.45555 1.31289,5.34437c0.51013,3.6081 -0.33921,7.42091 -2.42091,10.33339c-2.1105,3.61581 -5.23445,7.48511 -8.7753,9.74428l-0.18694,0.23432c0,0 -0.92512,0.92512 -1.85024,0c-0.57211,-0.57211 -0.43661,-1.14423 -0.2499,-1.49754c-0.33727,0.13791 -0.67668,0.07624 -0.90678,-0.00266c-0.20435,0.13209 -0.44786,0.20876 -0.70928,0.20876c-0.2993,0 -0.57511,-0.1005 -0.79556,-0.26959l-1.01718,-0.76288c-1.57768,-0.70474 -2.73948,-1.68915 -4.12298,-2.70859c-2.27988,-1.67995 -4.2199,-3.25809 -5.42884,-5.50556c-1.6142,-2.02608 -2.63847,-4.37778 -2.64316,-7.36463c-0.57435,-2.50482 -0.38579,-4.87879 1.39504,-7.13498c0.41869,-0.53045 0.67423,-1.21491 1.21022,-1.62648c0.53617,-0.41171 1.25624,-0.49983 1.88436,-0.74975c0,0 0.16853,-0.06128 0.40351,-0.07608c0.03361,-0.01453 0.06733,-0.02875 0.10114,-0.04265c2.01727,-0.82959 3.82344,-0.73631 5.39744,-0.06338c0.22352,0.27027 0.47369,0.5177 0.74646,0.73827c0.04181,0.12688 0.13085,0.23232 0.24631,0.29549l0.7328,0.41874l0.16638,0.33276l0.01245,-0.00623l0.003,0.03486c0.18528,0.27843 0.39347,0.54164 0.6172,0.79199c0.00311,0.00443 0.00622,0.00884 0.00933,0.01325l-0.06443,0.03866l0.41373,0.68955c0.05656,0.09808 0.144,0.1761 0.24904,0.22077l0.15015,0.30031c0.03909,0.08247 0.09913,0.15309 0.17322,0.20501c0.00205,0.01841 0.00404,0.03681 0.00597,0.05524c0.26242,0.11997 0.47827,0.32414 0.613,0.57797zM244.31061,144.79247c-0.00776,-0.00152 -0.01549,-0.00311 -0.0232,-0.00476c0.0031,0.00548 0.00637,0.01136 0.00981,0.01765c0.00446,-0.00429 0.00893,-0.00859 0.01339,-0.01288zM248.97496,138.66333c-0.05664,0.16025 -0.11644,0.32587 -0.17913,0.49445c0.14611,-0.23151 0.28783,-0.46175 0.42496,-0.68996c-0.07514,0.07493 -0.15777,0.13909 -0.24583,0.19551zM241.34295,147.14807l0.06634,-0.06151c-0.01092,-0.01157 -0.02148,-0.02309 -0.03169,-0.03453c-0.01009,0.03158 -0.0216,0.06359 -0.03465,0.09603z" fill="#ff8fbd"/><path d="M227.95678,130.722c-0.72256,0 -1.30832,-0.58576 -1.30832,-1.30832c0,-0.08177 0.0075,-0.16178 0.02185,-0.23939l0.27506,-1.65034l0.09768,0.01628l-0.04227,-0.23272c0.26307,-0.48661 0.52613,-0.97323 0.7892,-1.45984c0,0 0.28058,-0.50504 0.80445,-0.65745c0.18412,-0.09892 0.39467,-0.15505 0.61833,-0.15505c0.72256,0 1.30832,0.58576 1.30832,1.30832c0,0.04714 -0.00249,0.0937 -0.00736,0.13956c0.00486,0.04586 0.00736,0.09241 0.00736,0.13955c0,0.08882 -0.00885,0.17558 -0.02572,0.25943l-0.16552,0.91035c0.03364,0.11594 0.05169,0.23852 0.05169,0.36531c0,0.15538 -0.02709,0.30443 -0.0768,0.44269l-0.39947,1.19839c-0.16442,0.53461 -0.66218,0.92321 -1.25071,0.92321c-0.02341,0 -0.04668,-0.00061 -0.06979,-0.00183c-0.0231,0.00121 -0.04637,0.00183 -0.06978,0.00183c-0.09578,0 -0.18917,-0.0103 -0.27911,-0.02984c-0.08994,0.01954 -0.18332,0.02984 -0.2791,0.02984z" fill="#ffd4e6"/><path d="M230.09592,129.8417c0.04652,0.46518 0.09304,0.93036 0.13956,1.39554l-0.15853,0.24715l0.01747,0.15723c0,0 0.01806,0.16247 -0.01603,0.37893l0.01718,0.189c0.00453,0.0443 0.00685,0.08925 0.00685,0.13475c0,0.71217 -0.56902,1.29144 -1.27722,1.30796c-0.1771,0.0895 -0.37732,0.13992 -0.5893,0.13992c-0.55903,0 -1.03616,-0.35062 -1.22351,-0.84394c-0.23615,-0.3132 -0.27942,-0.6194 -0.2389,-0.88222l-0.07442,-0.96741l-0.03539,-0.23001l0.01748,-0.00269l-0.00368,-0.04782l-0.02522,-0.04867c0.00589,-0.01649 0.01178,-0.03298 0.01766,-0.04946l-0.00386,-0.0503h-0.01761c0,0 0,-0.04009 0,-0.10918c-0.08927,-0.17693 -0.13956,-0.37689 -0.13956,-0.58859v-1.39554c0,0 0,-1.30832 1.30832,-1.30832c0.02586,0 0.05122,0.00051 0.07607,0.00151c0.02104,-0.00101 0.0422,-0.00151 0.06349,-0.00151c0.26592,0 0.51332,0.07934 0.7198,0.21564c0.23746,0.08493 0.44321,0.23656 0.59468,0.43232c0.48659,0.19068 0.83116,0.66439 0.83116,1.21858c0,0.04178 -0.00196,0.08311 -0.00579,0.12389l-0.03412,0.40955c0.02652,0.10468 0.03343,0.1737 0.03343,0.1737z" fill="#ffd4e6"/><path d="M240.03132,128.09589l0.0818,0.2454c0.00994,0.02765 0.01536,0.05746 0.01536,0.08854c0,0.00706 -0.00028,0.01406 -0.00083,0.02097c0.09133,-0.10009 0.18914,-0.40068 0.26522,-0.64619l-0.10259,0.03419c-0.02765,0.00994 -0.05747,0.01536 -0.08854,0.01536c-0.00149,0 -0.00297,-0.00001 -0.00445,-0.00003l-0.18235,0.12157c-0.00642,0.00442 -0.01305,0.00855 -0.01987,0.01239l0.02248,0.11238zM239.63794,127.20733c0.10542,-0.06861 0.22516,-0.10857 0.35117,-0.13042l-0.01829,-0.07317l0.32924,-0.08231c0.00871,-0.00238 0.01759,-0.00432 0.02664,-0.0058l0.06186,-0.04124c0.04211,-0.02897 0.09314,-0.04593 0.14812,-0.04593c0.07225,0 0.13767,0.02929 0.18502,0.07664c0.04736,0.04735 0.07664,0.11277 0.07664,0.18502c0,0.02998 -0.00504,0.05878 -0.01432,0.08561l0.03098,-0.0062c0.01823,-0.00402 0.03718,-0.00614 0.05661,-0.00614c0.14451,0 0.26167,0.11715 0.26167,0.26167c0,0.05498 -0.01696,0.106 -0.04593,0.14812l-0.15095,0.22641c-0.27228,0.81079 -0.65519,1.07085 -0.98212,0.93981l0.06956,0.17388c0.01347,0.03153 0.02092,0.06624 0.02092,0.10269c0,0.13176 -0.09738,0.24077 -0.22409,0.25899c0.07033,0.29557 0.03256,0.52653 -0.22554,0.58105c-0.17769,0.03753 -1.41836,-0.87682 -1.55265,-1.07387c-0.11952,-0.17538 0.22877,0.36011 0.30962,0.55633c0.13155,0.31926 0.30539,0.61941 0.45779,0.92927c0.17704,0.41581 0.82531,1.93216 0.03369,2.18346c-0.34477,0.10945 -1.50179,-1.19299 -1.76856,-1.45504c-0.06229,-0.06119 0.1187,0.13431 0.14671,0.21701c0.10965,0.32368 0.12322,0.67233 0.19214,1.00705c0.1509,0.73288 0.94908,2.56085 0.74115,3.40352c0.01165,0.00256 0.0237,0.00589 0.03617,0.01004c0.24823,0.08274 0.16549,0.33098 0.16549,0.33098l-0.08183,0.24547c-0.03288,0.10692 -0.13243,0.18464 -0.25014,0.18464c-0.12862,0 -0.23557,-0.0928 -0.25754,-0.2151l-0.08278,-0.41391l0.04165,-0.00833c-0.47251,-1.22693 -0.68605,-2.69903 -0.92331,-3.94969c-0.04067,-0.21436 -0.26584,-1.10358 -0.00536,-1.25531c0.93015,-0.5418 2.49632,2.75493 1.73104,0.38315c-0.05009,-0.15525 -0.12933,-0.29953 -0.19399,-0.44929c-0.12916,-0.26237 -1.04461,-1.81244 -0.6624,-2.07392c0.23143,-0.15833 1.02383,0.09868 1.47642,0.43915c-0.25206,-0.39518 -0.56933,-0.89915 -0.62168,-1.00625l-0.23004,-0.4634c-0.01894,-0.03621 -0.02964,-0.0774 -0.02964,-0.12109c0,-0.14451 0.11715,-0.26166 0.26167,-0.26166c0.05951,0 0.11438,0.01987 0.15833,0.05333l0.26478,0.19693c0.03719,-0.09922 0.1329,-0.16984 0.2451,-0.16984c0.07225,0 0.13767,0.02929 0.18502,0.07664l0.15044,0.15044z" fill="#ff8fbd"/></g></g></svg>