<svg version="1.1" xmlns="http://www.w3.org/2000/svg" xmlns:xlink="http://www.w3.org/1999/xlink" width="15.04501" height="31.30912" viewBox="0,0,15.04501,31.30912"><g transform="translate(-232.47749,-164.34544)"><g data-paper-data="{&quot;isPaintingLayer&quot;:true}" fill-rule="nonzero" stroke="none" stroke-linecap="butt" stroke-linejoin="miter" stroke-miterlimit="10" stroke-dasharray="" stroke-dashoffset="0" style="mix-blend-mode: normal"><path d="M240.55957,171.02502c-0.06059,0.477 -0.12231,0.95582 -0.18875,1.4348c0.01002,0.73349 -0.03073,1.46197 -0.10341,2.19531c0.069,0.04513 0.13182,0.09612 0.1862,0.15234c0.21124,0.21837 0.24984,0.79358 0.2341,1.36495c0.025,0.02701 0.04883,0.05388 0.07136,0.08036c0.02618,0.03077 0.0535,0.18138 0.08004,0.39476c0.05899,-0.3043 0.32687,-0.53406 0.64841,-0.53406c0.26367,0 0.49126,0.1545 0.59717,0.37791l0.12581,0.25161c0.06316,-0.19145 0.21151,-0.34417 0.40018,-0.41328c0.10914,-1.86331 0.33031,-3.73251 0.33051,-5.5717c0.00833,-0.10086 0.01558,-0.19991 0.02144,-0.29716c-0.05519,0.09997 -0.14899,0.19532 -0.30157,0.27081c-0.11459,0.05669 -0.21797,0.08022 -0.31019,0.08132c-0.08584,0.26513 -0.33478,0.45685 -0.62851,0.45685c-0.25664,0 -0.4791,-0.14637 -0.58844,-0.3602c-0.07728,0.05501 -0.17804,0.09749 -0.30921,0.11767c-0.10106,0.01555 -0.18888,0.01304 -0.26514,-0.0023zM244.21617,180.92429c0.5888,1.50719 1.23164,3.16398 1.52626,4.82138c0.23107,0.64699 0.43474,1.29916 0.57257,1.96291c-0.18343,2.5229 -1.79431,5.34129 -4.12461,6.50791c-1.02497,0.51313 -2.17014,0.53865 -3.28614,0.53769c-0.88315,-0.00076 -1.71704,-0.0552 -2.54628,-0.40413c-1.15719,-0.48692 -2.1578,-1.54307 -2.9048,-2.52015c-0.99197,-2.65213 -1.36774,-5.60643 -0.45845,-8.34001c0.75101,-2.25775 2.1842,-4.05293 2.55292,-6.44133c0.1581,-1.91067 0.40928,-3.75759 0.91633,-5.58712c0.00326,-0.02962 0.0066,-0.05924 0.01002,-0.08884c-0.01636,-0.75792 0.15702,-1.41576 0.42755,-2.05843c0.13562,-0.34818 0.57312,-1.36806 0.68069,-1.46414c0.01654,-0.01477 0.03332,-0.0292 0.05033,-0.04331l-0.01291,-0.01004l0.13979,-0.17973c0.34217,-0.68491 0.6234,-1.3822 1.40806,-1.72231c0.58302,-0.25271 1.22709,-0.26651 1.85703,-0.11424c0.03896,0.00039 0.0771,0.00414 0.11417,0.011l0.69225,0.11538l-0.00882,0.0529l0.11567,-0.02577c0.0863,0.04678 0.19098,0.10275 0.30615,0.16718c0.46935,0.16652 1.16188,0.6913 1.30925,0.89767c0.18192,0.25476 0.30369,0.58693 0.38837,0.93978c0.08076,0.13696 0.15066,0.27587 0.20834,0.41539c0.34101,0.82498 0.18302,1.60493 0.11114,2.45899c0.00035,3.16968 -0.68682,6.44273 -0.2443,9.60116zM243.75902,190.88209c-0.05088,0.11859 -0.10287,0.23921 -0.1587,0.35647c0.08279,-0.10247 0.16258,-0.20757 0.23921,-0.31514c-0.02679,-0.01382 -0.05365,-0.02758 -0.0805,-0.04133zM236.78809,193.08899c-0.36387,-0.42637 -0.55239,-1.01733 -0.67767,-1.61069c-0.19791,0.27094 -0.43002,0.4942 -0.70082,0.61103c0.42095,0.41631 0.89505,0.79329 1.38991,1.01286c-0.00383,-0.00437 -0.00763,-0.00877 -0.01141,-0.0132zM234.29878,183.86569c0.39717,-0.23693 0.74791,-0.63503 1.15146,-0.8498c0.04331,-0.04151 0.08969,-0.07958 0.13967,-0.11355c0.11957,-0.52697 0.28312,-1.03122 0.51076,-1.38543c-0.27532,-0.07963 -0.47663,-0.33359 -0.47663,-0.63457c0,-0.03142 0.00219,-0.06233 0.00644,-0.09258l0.00339,-0.02704c-0.48775,1.01921 -1.01243,2.02701 -1.38804,3.15113c-0.03443,0.10304 -0.06672,0.20644 -0.09692,0.31015c0.05257,-0.11868 0.1037,-0.23777 0.14987,-0.3583zM239.1978,167.89397c0.34345,0 0.62567,0.26214 0.65751,0.59725l0.06252,0.57835c0.01428,-0.00092 0.02869,-0.00139 0.04321,-0.00139c0.07733,0 0.15156,0.01329 0.22052,0.03771c0.11491,-0.0968 0.26329,-0.15513 0.4253,-0.15513c0.07619,0 0.14936,0.0129 0.21746,0.03664c-0.07064,-0.466 -0.1488,-0.92945 -0.23865,-1.39481c-0.15867,0.0506 -0.59399,0.13611 -0.81494,-0.35c-0.02329,-0.05124 -0.04023,-0.10009 -0.05173,-0.1466c-0.00709,0.00275 -0.01416,0.0056 -0.02119,0.00854c-0.2138,0.08924 -0.36747,0.27181 -0.49057,0.48561c0.00346,0.0274 0.00525,0.05533 0.00525,0.08367c0,0.07735 -0.0133,0.15159 -0.03772,0.22056c0.00765,-0.00026 0.01533,-0.0004 0.02304,-0.0004zM240.58365,189.50703c-0.01744,0.06667 -0.03525,0.13318 -0.0534,0.19948c0.005,0.02209 0.01006,0.04418 0.01516,0.06627c0.01354,-0.08835 0.02635,-0.177 0.03824,-0.26576zM239.12486,189.50612c-0.0169,-0.08461 -0.03306,-0.16931 -0.04844,-0.25412c-0.03019,0.10459 -0.06081,0.20808 -0.09168,0.31027c0.01642,0.07762 0.03414,0.15512 0.0531,0.23247c0.02965,-0.09597 0.05869,-0.19215 0.08702,-0.28861zM237.83902,192.21c-0.00534,0.006 -0.0107,0.01199 -0.01607,0.01795c0.04189,0.07145 0.08591,0.1421 0.13216,0.21189c-0.03997,-0.07462 -0.07866,-0.15129 -0.11608,-0.22984zM237.23092,190.56879c0.01165,-0.02734 0.02344,-0.05463 0.03527,-0.08193c-0.07845,-0.34872 -0.14143,-0.7079 -0.18966,-1.06946c0.01751,0.34733 0.05308,0.69197 0.11348,1.0299c0.01397,0.04137 0.02763,0.08194 0.04091,0.12149zM242.82548,169.48999c-0.00362,-0.04577 -0.00721,-0.09406 -0.01097,-0.14435c-0.03934,-0.03437 -0.07456,-0.07332 -0.10484,-0.11603c0.02247,0.09503 0.04725,0.18866 0.079,0.27805zM242.47861,168.18522l0.00934,-0.00144c-0.07058,-0.09076 -0.15033,-0.17759 -0.24022,-0.26046l0.05874,0.20235l-0.00269,0.00078l0.00891,0.03118l0.00297,0.0033c0.001,0.00596 0.00202,0.01191 0.00307,0.01787l0.03282,0.11487c0.08525,0.09194 0.1457,0.19899 0.19214,0.31458z" fill="#ffd84f" stroke-width="0.5"/><path d="M238.00891,193.84416c0,0.6605 -0.6605,0.6605 -0.6605,0.6605l-0.28472,-0.00899c-4.0892,-0.69662 -5.61475,-6.65389 -3.68688,-9.97408c0,0 0.33982,-0.56637 0.90619,-0.22655c0.56637,0.33982 0.22655,0.90619 0.22655,0.90619c-0.5572,0.88665 -0.57422,2.04667 -0.49495,3.07316c0.16835,2.18024 0.84621,4.5255 3.26626,4.91826l0.06755,-0.00899c0,0 0.6605,0 0.6605,0.6605z" fill="#ffd84f" stroke-width="0.5"/><path d="M233.02102,190.22447l0.34184,0.07276c0.49843,0.29573 0.84354,0.78468 1.33358,1.07697c1.10233,0.6575 2.54967,0.92142 3.81004,1.13529c2.52596,-0.00938 4.74066,-0.54494 6.12195,-2.85005c0.23391,-0.40935 0.53967,-0.82869 0.67646,-1.28565c0.59942,-2.00251 -0.84353,-3.93372 -1.51082,-5.72139c-0.83289,-1.47714 -1.2622,-3.59835 -1.26064,-5.29946c0.00078,-0.85294 0.23506,-1.70276 0.23756,-2.55714c0.59737,-2.13671 1.08509,-4.79934 0.76336,-7.02178c0,0 -0.04151,-0.2906 0.24909,-0.33212c0.03415,-0.00488 0.06485,-0.00517 0.09245,-0.00189c0.07568,0.14504 0.16313,0.28297 0.26107,0.41252c0.27724,2.23422 -0.16257,4.90035 -0.78454,7.0247c0.00256,0.83262 -0.23299,1.66121 -0.23212,2.49199c0.00169,1.60125 0.40504,3.65371 1.20521,5.03365c0.73266,1.946 2.19689,3.95941 1.54214,6.1382c-0.15207,0.50604 -0.47317,0.96104 -0.7326,1.41505c-1.49877,2.49454 -3.93111,3.14711 -6.67701,3.13846c-1.34164,-0.22019 -2.88789,-0.50847 -4.05721,-1.21314c-0.46508,-0.28027 -0.78657,-0.75354 -1.24969,-1.03662l-0.22136,-0.04031c-0.03311,-0.18336 -0.08324,-0.3608 -0.14871,-0.53063c0.10376,-0.07667 0.23995,-0.04943 0.23995,-0.04943z" fill="#ffc442" stroke-width="0.5"/><path d="M243.66461,177.90167c0.02902,0.17405 0.08496,0.3731 0.1338,0.57668c0.13195,0.01438 0.23762,0.11621 0.25787,0.2463l0.05905,0.33875c0.09762,0.56191 0.2219,1.12118 0.39777,1.66497c0.00368,0.01136 0.00825,0.02408 0.0136,0.03797c0.00092,-0.00001 0.00185,-0.00001 0.00278,-0.00001c0.05052,0 0.09806,0.01276 0.13957,0.03524c-0.75009,-2.081 -0.92303,-4.53533 -0.49041,-6.69848c-0.00623,-2.0441 0.65726,-4.18615 -0.59794,-6.03159c0,0 -0.16283,-0.24425 0.08142,-0.40709c0.17085,-0.1139 0.30187,-0.02862 0.36518,0.03292c0.03547,0.05381 0.07266,0.10638 0.11149,0.15764c1.22569,1.97867 0.63026,4.12999 0.6241,6.30596c-0.43256,2.16281 -0.2621,4.67864 0.56278,6.71998c1.09316,2.18574 1.72172,4.64479 2.19664,7.0192c0.00795,1.79409 -0.21627,3.61388 -1.28691,5.13228c-0.43479,0.61663 -1.14114,0.96202 -1.71446,1.41972c-1.90852,1.14823 -4.12519,1.50531 -6.26415,0.93595c-0.06173,-0.00208 -0.12355,-0.00308 -0.18549,-0.00275c-2.22344,-0.00591 -4.45982,-1.67835 -5.00406,-3.85784c-0.00877,-0.01397 -0.01748,-0.02796 -0.02611,-0.04197l-0.05393,0.02311l-0.01416,-0.03304c0.00237,-0.04838 0.00357,-0.09707 0.00357,-0.14603c0,-0.32462 -0.05269,-0.63693 -0.14999,-0.92885c0.18047,-0.05882 0.30985,0.10753 0.30985,0.10753c0.61457,0.79129 1.26304,1.12071 2.09491,1.63313c0.17056,0.10506 0.34425,0.21373 0.52108,0.32179c0.02773,-0.00868 0.05723,-0.01336 0.08783,-0.01336c0.02189,0 0.04323,0.0024 0.06375,0.00694l0.28876,0.05799l-0.00183,0.00909l0.02848,-0.00243c0.81041,0.32702 1.51359,0.48076 2.14624,0.89019c-0.00056,-0.00739 -0.00084,-0.01487 -0.00084,-0.02241c0,-0.16213 0.13143,-0.29355 0.29355,-0.29355c0.02662,0 0.05241,0.00354 0.07692,0.01018l0.34753,0.08604c0.05066,0.00829 0.11355,0.01462 0.18575,0.02007c0.06856,-0.00117 0.13707,-0.0029 0.20552,-0.00514c0.48079,-0.14034 0.97039,-0.20957 1.49027,-0.33142c0.17811,-0.04174 1.14715,-0.33325 1.2805,-0.28254c0.15579,0.05925 0.33868,0.17842 0.44218,0.3237l0.3092,-0.07701c0.02464,-0.00671 0.05056,-0.01029 0.07733,-0.01029c0.16212,0 0.29355,0.13143 0.29355,0.29355c0,0.12328 -0.07599,0.22881 -0.18369,0.2723c0.03423,0.04801 0.05437,0.10677 0.05437,0.17023c0,0.12313 -0.07581,0.22855 -0.18329,0.27214l-0.30183,0.13045c-0.17923,0.22634 -0.63984,0.46337 -0.94177,0.58812c0.27113,-0.08815 0.53953,-0.18231 0.80566,-0.27112l0.25647,-0.06501c0,0 0.28479,-0.0712 0.35599,0.21359c0.00201,0.00803 0.00373,0.01588 0.00519,0.02358c0.32491,-0.1397 0.64276,-0.3023 0.9515,-0.48695c0.12494,-0.10017 0.25915,-0.19431 0.39629,-0.28744c-0.15042,-0.00309 -0.27305,-0.11932 -0.28624,-0.26705l-0.03023,-0.29711l0.01511,-0.00154l-0.01652,-0.0357c0.02181,-0.14435 0.04657,-0.28841 0.0742,-0.43206l-0.27216,0.40824c-0.05227,0.08093 -0.14327,0.13451 -0.24678,0.13451c-0.16212,0 -0.29355,-0.13143 -0.29355,-0.29355c0,-0.01254 0.00079,-0.02491 0.00232,-0.03704c-0.04539,-0.05472 -0.06042,-0.11181 -0.0602,-0.16374c-0.09662,-0.04805 -0.16301,-0.14777 -0.16301,-0.263c0,-0.05365 0.0144,-0.10395 0.03953,-0.14723l0.28254,-0.50856l0.00174,0.00097l0.00149,-0.00665c0.52336,-0.8509 1.04068,-1.95409 1.88107,-2.51769c0.00354,-0.00799 0.00696,-0.01571 0.01026,-0.02313l-0.05276,-0.07034l0.21817,-0.16363l0.05348,-0.05349c-0.00372,-0.02624 -0.00775,-0.05305 -0.01217,-0.08046c-0.1346,-0.83498 -0.32644,-1.64985 -0.49052,-2.4793l0.00994,-0.02807l-0.01145,0.00007l-0.00228,-0.36336c-0.00001,-0.00072 -0.00001,-0.00143 -0.00001,-0.00215c0,-0.16213 0.13143,-0.29355 0.29355,-0.29355c0.00343,0 0.00686,0.00006 0.01026,0.00018c-0.11637,-0.45121 -0.23716,-0.90133 -0.34646,-1.35456l-0.01461,0.0043l-0.16374,-0.55672c-0.00899,-0.02818 -0.01385,-0.0582 -0.01385,-0.08936c0,-0.06198 0.0192,-0.11946 0.05199,-0.16684c-0.16183,-0.45232 -0.32385,-0.90285 -0.46103,-1.36432c-0.04434,-0.02702 -0.08095,-0.06547 -0.10575,-0.11125l-0.15164,-0.26786l0.06123,-0.03466l-0.01435,-0.05262c-0.32988,-0.44205 -0.51513,-0.97237 -0.64597,-1.5269c-0.12501,-0.01381 -0.22636,-0.10611 -0.25369,-0.22652l-0.11593,-0.46373l0.07407,-0.01852c-0.12721,-0.32138 -0.20325,-0.63831 -0.27011,-0.99589c-0.01548,0.00252 -0.03137,0.00383 -0.04757,0.00383c-0.16212,0 -0.29355,-0.13143 -0.29355,-0.29355v-0.46969h0.02515l-0.01973,-0.05611c0.01008,-0.01278 0.02017,-0.02555 0.03025,-0.03833c-0.09121,-0.0498 -0.15309,-0.14659 -0.15309,-0.25783c0,-0.00884 0.00039,-0.01759 0.00115,-0.02623l0.02887,-0.36787l0.00809,0.00063l-0.00594,-0.01992c0.05814,-0.27312 0.02779,-0.68287 0.142,-0.92222c0.00144,-0.03209 0.00231,-0.06322 0.00247,-0.09326l0.0103,-0.01891l-0.00813,-0.00116l0.05836,-0.40837c0.00626,-0.04946 0.02483,-0.09507 0.05254,-0.13369c0.04874,-0.27805 0.09705,-0.52822 0.11348,-0.69513l0.0109,-0.01864l-0.00673,-0.00163l0.12787,-0.5273c0.02894,-0.1317 0.14632,-0.23026 0.28671,-0.23026c0.16212,0 0.29355,0.13143 0.29355,0.29355v0.46969h-0.08464c0.08942,0.72473 -0.03669,1.39729 -0.14337,2.19907l0.04228,0.07493c0,0 0.05703,0.21758 -0.1192,0.32175c0.01048,0.02209 0.01828,0.04569 0.02299,0.0704l0.12036,0.56889l-0.00154,0.00033zM245.87196,184.10278c0.12852,0.38222 0.39969,0.75419 0.35871,1.15535c-0.00221,0.02165 -0.00536,0.04307 -0.00934,0.06427l0.0085,0.00106l-0.05823,0.46583c-0.00041,0.00367 -0.00088,0.00732 -0.00141,0.01094c0.06178,0.24497 0.12148,0.49044 0.17678,0.73701c0.01299,0.0579 0.24207,1.20441 0.23715,1.22753c-0.00483,0.02271 -0.01085,0.04497 -0.01792,0.06681l0.00686,0.00196l-0.09653,0.33784c0.06581,0.05383 0.10782,0.13568 0.10782,0.22734v0.29355h-0.0192l0.01654,0.03946c-0.02004,0.07449 -0.04019,0.1494 -0.06048,0.22465c0.00291,0.08166 -0.02178,0.17508 -0.05655,0.2735c0.00769,0.19083 -0.00169,0.39029 -0.00428,0.59311l0.06273,0.53318c0.00167,0.01267 0.00253,0.02559 0.00253,0.03871c0,0.09573 -0.04581,0.18074 -0.11672,0.23433c-0.03947,0.56589 -0.14271,1.11234 -0.38642,1.60226l0.01748,0.00922c0.73846,-1.31103 0.89002,-2.79285 0.89806,-4.28275c-0.42072,-2.10344 -0.97317,-4.27577 -1.86962,-6.25204c0.2213,0.81769 0.53341,1.59353 0.80353,2.39685zM240.47539,194.75098c-0.45437,0.08648 -0.96002,0.067 -1.19909,0.04589c-1.03058,-0.09099 -1.879,-0.51028 -2.76255,-1.00888c-0.19256,-0.10866 -0.44241,-0.15341 -0.57535,-0.33009c-0.01536,-0.02042 -0.02972,-0.0414 -0.04318,-0.06287l-0.00459,0.00276l-0.15727,-0.26212c-0.27832,-0.16425 -0.54875,-0.33391 -0.81065,-0.49491c-0.14209,-0.08735 -0.27935,-0.17039 -0.41237,-0.25172c0.99032,1.00196 2.30185,1.83551 3.48579,2.30964c0.11701,0.0393 0.23442,0.07544 0.35214,0.10846c0.62251,0.03562 1.23213,0.16233 1.87111,0.10948c0.39088,-0.03233 0.77496,-0.11758 1.1534,-0.22588c-0.30688,0.06663 -0.60782,0.08556 -0.89739,0.06023zM245.3522,192.59992c0,-0.00061 0,-0.00122 0.00001,-0.00183l0.00124,-0.23261c-0.09795,0.1997 -0.20244,0.39471 -0.31447,0.58366l0.05941,0.027l-0.23481,0.51658c0.26512,-0.18042 0.52525,-0.36961 0.73577,-0.6029c-0.14007,-0.02225 -0.24714,-0.14357 -0.24714,-0.28991zM235.42565,193.93265c0.14718,0.11583 0.2989,0.22023 0.45611,0.31308c-0.15381,-0.10038 -0.30612,-0.20486 -0.45611,-0.31308z" fill="#ffc442" stroke-width="0.5"/><path d="M239.25031,187.31624c0.0025,-0.0884 0.00573,-0.17642 0.01036,-0.26387v-0.19034c0,-0.08106 0.06572,-0.14678 0.14678,-0.14678c0.06985,0 0.12831,0.04879 0.14314,0.11415l0.03791,0.15161l-0.03427,0.00857v0.06568h-0.00623c0.00016,0.00053 0.00032,0.00105 0.00048,0.00158l0.0057,0.00228c-0.00026,0.00486 -0.0005,0.00971 -0.00075,0.01457c0.12211,0.42378 0.10719,0.99367 0.07067,1.53481c0.04055,0.39583 0.05607,0.79002 -0.0346,1.16065l0.0615,0.01415l-0.06516,0.28321c-0.01386,0.06665 -0.07293,0.11674 -0.1437,0.11674c-0.07583,0 -0.13823,-0.05751 -0.14597,-0.13129l-0.03282,-0.2758c-0.00797,0.02522 -0.01489,0.04207 -0.0202,0.04709c-0.18209,0.17199 -0.28857,0.14696 -0.35134,0.0449c-0.05091,-0.00455 -0.09434,-0.03509 -0.11691,-0.07826c-0.07819,0.06384 -0.16493,0.0925 -0.2609,0.07234c-0.15586,-0.03273 -0.27498,-0.73379 -0.31016,-0.87963c-0.03315,-0.14084 0.01801,-0.31543 -0.07303,-0.42788c-0.08559,-0.10571 -0.08552,0.25843 -0.13652,0.38453c-0.13153,0.32524 -0.19166,0.70827 -0.29047,1.04669c-0.07046,0.24132 -0.14302,0.53535 -0.23252,0.82376l0.01122,0.0561l0.0852,0.0426l-0.07587,0.15175c-0.02353,0.04965 -0.07411,0.08398 -0.1327,0.08398c-0.00077,0 -0.00155,-0.00001 -0.00232,-0.00002c-0.23446,0.6131 -0.58218,1.08394 -1.20764,0.76531l-0.02308,0.04615l-0.23724,-0.11862l-0.0091,0.01213l-0.15322,-0.11491c-0.03643,-0.02671 -0.06008,-0.06982 -0.06008,-0.11845c0,-0.00655 0.00043,-0.013 0.00126,-0.01932c-0.00083,-0.00632 -0.00126,-0.01277 -0.00126,-0.01932c0,-0.01503 0.00226,-0.02953 0.00646,-0.04319c-0.11069,-0.10006 -0.16126,-0.2242 -0.04072,-0.36982c0.03385,-0.0409 0.08634,-0.05501 0.14967,-0.05072c-0.06576,-0.49754 0.17488,-0.62658 0.45811,-0.56586c0.00149,-0.2176 0.05915,-0.4268 0.2124,-0.55077c0.08646,-0.06994 0.17546,-0.10386 0.26303,-0.1094c-0.19744,-1.11611 0.17672,-2.72646 0.35565,-3.71059c0.04803,-0.26417 0.09622,-0.52831 0.1434,-0.79264c0.01348,-0.07551 0.20887,-1.0014 0.20777,-1.00204c-0.00014,-0.00008 -0.52267,0.66413 -0.57079,0.73235c-0.34423,0.48799 -1.37412,2.33517 -2.00927,1.53307c-0.29027,-0.4691 -0.34331,-1.11618 -0.29069,-1.79273c-0.00378,-0.01301 -0.0058,-0.02676 -0.0058,-0.04098c0,-0.02045 0.00418,-0.03992 0.01173,-0.0576l0.00319,-0.00796c0.0243,-0.26062 0.06314,-0.52443 0.10909,-0.78305c-0.02787,0.03928 -0.05632,0.07749 -0.08537,0.11453l0.04527,0.03018l-0.16157,0.24236c-0.02614,0.04047 -0.07163,0.06725 -0.12339,0.06725c-0.08106,0 -0.14678,-0.06572 -0.14678,-0.14678c0,-0.01935 0.00375,-0.03783 0.01055,-0.05475l0.01402,-0.03736c-0.0591,-0.01897 -0.10187,-0.07438 -0.10187,-0.13978c0,-0.01978 0.00391,-0.03864 0.01101,-0.05586l0.05628,-0.1462c0.04843,-0.1258 0.09584,-0.25782 0.14345,-0.39383c0.00577,-0.01764 0.01196,-0.03529 0.01847,-0.05292c0.07329,-0.21058 0.14741,-0.42991 0.22677,-0.64995c0.18691,-0.70492 0.4144,-1.47362 0.78843,-1.97341c0.01043,-0.02654 0.0209,-0.05307 0.03141,-0.07959l0.01461,-0.00355l-0.00983,-0.00559l0.01763,-0.03102l-0.02933,-0.02346l0.15374,-0.19218c0.02687,-0.03419 0.0686,-0.05615 0.11546,-0.05615c0.08106,0 0.14678,0.06572 0.14678,0.14678c0,0.02731 -0.00746,0.05288 -0.02045,0.07478l-0.07286,0.1282c0.00776,-0.00127 0.01571,-0.00193 0.02383,-0.00193c0.06009,0 0.11174,0.03611 0.13445,0.08781l0.00918,-0.01197c0.02678,-0.03568 0.06943,-0.05876 0.11747,-0.05876c0.08106,0 0.14678,0.06572 0.14678,0.14678c0,0.0056 -0.00031,0.01113 -0.00092,0.01657l-0.02901,0.29013l-0.00506,-0.0005l0.00231,0.01767c-0.00749,0.02167 -0.01494,0.04347 -0.02238,0.06539c0.02691,-0.03106 0.06665,-0.0507 0.11097,-0.0507c0.04985,0 0.0939,0.02486 0.12043,0.06285c0.06878,-0.07811 0.13775,-0.13806 0.20246,-0.16431c0.51959,-0.21073 0.39279,0.82196 0.19646,1.45237c0.02859,-0.00461 0.06242,0.00046 0.10052,0.0247c0.12383,0.0788 0.04503,0.20263 0.04503,0.20263c-0.05253,0.08255 -0.10507,0.16511 -0.1576,0.24766l-0.11161,0.17538c-0.02582,0.04203 -0.07221,0.07006 -0.12516,0.07006c-0.08106,0 -0.14678,-0.06572 -0.14678,-0.14678c0,-0.00741 0.00055,-0.01468 0.00161,-0.02179l0.03848,-0.28858l0.03863,0.00515c0.0211,-0.50458 0.17273,-0.96499 0.27345,-1.48472c0.01704,-0.08792 -0.10423,0.14568 -0.15822,0.21713c-0.15908,0.21053 -0.28184,0.35644 -0.41167,0.58658c-0.02832,0.05019 -0.05658,0.10051 -0.08476,0.15094c-0.28083,0.79176 -0.5948,1.66317 -1.08912,2.29585l0.03366,0.01924l-0.13224,0.23142c-0.05292,0.63077 -0.00809,1.22522 0.25653,1.62675c0.11013,0.33995 0.61593,-0.31703 0.71365,-0.44046c0.39155,-0.49457 0.72142,-1.03778 1.13284,-1.51541c0.10295,-0.11951 0.39417,-0.52394 0.6163,-0.41494c0.2855,0.14009 -0.00952,1.09444 -0.04918,1.31663c-0.04724,0.26464 -0.09548,0.52909 -0.14357,0.79357c-0.13976,0.76866 -0.22618,1.55849 -0.26888,2.34143c0.00726,-0.01332 0.01485,-0.02623 0.02279,-0.03872c0.43782,-0.68858 0.59339,0.0534 0.57227,0.42175c0.09919,-0.33379 0.25091,-0.7122 0.44732,-0.6925c0.24718,0.02479 0.31514,0.48717 0.35584,0.65263c0.05286,0.21942 -0.08148,0.55039 0.11121,0.66789c0.10889,0.06639 0.11032,-0.21435 0.14995,-0.35079c0.01231,-0.15126 0.02433,-0.29948 0.04119,-0.44483c0.01019,-0.30501 0.04969,-0.59352 0.14347,-0.88334l-0.03588,-0.00683l0.05443,-0.28578c0.01182,-0.06922 0.07209,-0.1219 0.14468,-0.1219c0.03872,0 0.07393,0.01499 0.10016,0.03949c0.00011,-0.00001 0.00022,-0.00002 0.00033,-0.00004l-0.01204,-0.05472c0,0 -0.02341,-0.10764 0.06358,-0.15671zM237.12017,190.59373c-0.12905,0.05392 -0.20482,-0.05357 -0.29365,-0.2894c-0.01451,-0.03853 -0.02796,-0.0781 -0.04037,-0.11862c-0.01642,-0.00442 -0.03356,-0.00714 -0.05149,-0.00792c-0.20123,-0.00884 -0.21324,0.25995 -0.17959,0.50381c0.31454,0.198 0.56054,0.55398 0.36033,0.81206c-0.10998,0.14177 -0.23851,0.07447 -0.34288,-0.03503c0.0038,0.01305 0.00584,0.02685 0.00584,0.04112c0,0.04714 -0.02222,0.08909 -0.05676,0.11594c0.03454,0.02685 0.05676,0.0688 0.05676,0.11594c0,0.00778 -0.0006,0.01541 -0.00177,0.02286c0.04797,-0.00325 0.09421,-0.01429 0.13768,-0.03845c0.21395,-0.1189 0.36791,-0.41715 0.48524,-0.76841l-0.02244,-0.11219c-0.01753,-0.07006 -0.03698,-0.15164 -0.05689,-0.24172zM236.37368,191.16841c-0.03504,-0.07306 -0.06658,-0.16276 -0.09023,-0.26051c-0.1688,-0.11441 -0.30101,-0.14052 -0.21243,0.1677c0.02088,0.06662 0.03254,0.11682 0.04767,0.1555c0.0336,0.01754 0.06702,0.03611 0.09964,0.05507l0.25045,0.07156c0.01003,0.00262 0.01964,0.00627 0.02871,0.01084c-0.06853,-0.09243 -0.11627,-0.18444 -0.12381,-0.20015zM237.30075,189.84114c0.06515,-0.31736 0.07521,-0.69674 0.09107,-0.88768c0.01124,-0.13367 0.10743,-0.5214 0.05265,-0.39896c-0.16282,0.36388 -0.18532,0.83099 -0.14372,1.28665zM235.69304,181.51543c0.00076,-0.00211 0.00153,-0.00422 0.00229,-0.00633c-0.0002,0.00025 -0.00041,0.0005 -0.0006,0.00075c-0.00056,0.00186 -0.00112,0.00372 -0.00169,0.00558z" fill="#ffd84f" stroke-width="0.5"/><path d="M242.36092,167.72475c0.05188,0.15435 0.08997,0.31361 0.11772,0.47628c0.01812,-0.00801 0.03817,-0.01245 0.05926,-0.01245c0.06892,0 0.12674,0.0475 0.14252,0.11155l0.06902,0.25537c0.00215,0.0072 0.0043,0.01441 0.00644,0.02163c0.06463,0.01097 0.11488,0.06419 0.12133,0.13025l0.03222,0.29l-0.03152,0.0035c0,0.01252 0,0.02503 0,0.03755c0.11978,0.52041 0.18135,1.06949 0.10512,1.58929c0.0176,-0.00747 0.03696,-0.0116 0.05728,-0.0116c0.08106,0 0.14678,0.06572 0.14678,0.14678c0,0.00218 -0.00005,0.00434 -0.00014,0.00649l-0.0067,0.17517l-0.00229,-0.00009l0.00198,0.00547c-0.13488,1.20173 -0.27823,2.40358 -0.39893,3.61054c-0.05609,0.56086 -0.08173,1.15058 -0.31825,1.64922l0.05415,0.02463l-0.11457,0.25188c-0.00145,0.0034 -0.00303,0.00673 -0.00473,0.00998l0.00603,0.00241l-0.07602,0.19006c-0.02081,0.05575 -0.07455,0.09544 -0.13755,0.09544c-0.06039,0 -0.11227,-0.03647 -0.13479,-0.0886l-0.07016,-0.15295c-0.02697,0.07403 -0.05897,0.14566 -0.09732,0.21417l0.04708,0.02354l-0.07587,0.15174c-0.02353,0.04965 -0.07411,0.08398 -0.1327,0.08398c-0.07859,0 -0.14275,-0.06177 -0.1466,-0.1394l-0.00895,-0.1568c-0.0001,-0.00179 -0.0002,-0.00358 -0.0003,-0.00538c-0.01138,0.00283 -0.02329,0.00434 -0.03555,0.00434c-0.00338,0 -0.00674,-0.00011 -0.01007,-0.00034c-0.00503,0.01579 -0.01025,0.03156 -0.01567,0.04731l0.0495,0.0135l-0.0764,0.28013c-0.01589,0.06389 -0.07364,0.11123 -0.14244,0.11123c-0.08106,0 -0.14678,-0.06572 -0.14678,-0.14678c0,-0.00114 0.00001,-0.00228 0.00004,-0.00342c0.00587,-0.2935 0.01516,-0.75792 0.02103,-1.05141c0.0019,-0.09475 0.00394,-0.1895 0.00611,-0.28425l-0.02306,0.10532c-0.00573,0.02903 -0.02002,0.05498 -0.04012,0.07512c-0.03779,0.17866 -0.09221,0.34946 -0.17695,0.50441l0.0586,0.03712l-0.12322,0.19454c-0.02578,0.04218 -0.07227,0.07034 -0.12533,0.07034c-0.07773,0 -0.14135,-0.06042 -0.14645,-0.13686l-0.0223,-0.29141l0.00301,-0.00023l-0.00344,-0.01119c0.00275,-0.03517 0.00542,-0.07034 0.00804,-0.10552c-0.02629,0.0835 -0.0546,0.16546 -0.08509,0.24568l0.03121,0.00624l-0.05704,0.28519c-0.01232,0.0686 -0.07231,0.12066 -0.14446,0.12066c-0.03208,0 -0.06176,-0.01029 -0.08591,-0.02776c-0.02664,0.0371 -0.07015,0.06127 -0.11931,0.06127c-0.08106,0 -0.14678,-0.06572 -0.14678,-0.14678c0,-0.0036 0.00013,-0.00717 0.00038,-0.01071l0.0119,-0.18673l0.02729,0.00174l0.00547,-0.02485c-0.06614,-0.52188 0.04572,-1.08937 0.11462,-1.6054c0.01604,-0.34052 0.03131,-0.68102 0.05139,-1.0212c0.00486,-0.18176 0.01285,-0.36294 0.02528,-0.54218c-0.05925,-0.01888 -0.10217,-0.07437 -0.10217,-0.13988c0,-0.00621 0.00038,-0.01232 0.00113,-0.01833l0.03218,-0.28964l0.00063,0.00007l-0.00036,-0.00234c0.06477,-0.45372 0.00638,-1.50062 0.21965,-2.0461c0.0029,-0.04496 0.00536,-0.08905 0.0073,-0.13216l0.00233,-0.00506l-0.00181,-0.00021l0.03397,-0.28972c0.00763,-0.07389 0.07008,-0.13152 0.14599,-0.13152c0.08106,0 0.14678,0.06572 0.14678,0.14678c0,0.00522 -0.00027,0.01038 -0.0008,0.01546l-0.02702,0.29043l-0.00693,-0.00064c-0.00507,0.11452 -0.01065,0.22911 -0.0164,0.34375c-0.00003,0.00636 -0.00007,0.01271 -0.00012,0.01908c0.05457,0.00246 0.08745,0.02613 0.10726,0.05376c0.07661,-0.29835 0.1716,-0.58415 0.29174,-0.84462c0.00046,-0.00209 0.00091,-0.00418 0.00136,-0.00627c-0.13522,-0.07919 -0.23151,-0.45349 -0.27057,-0.5804c-0.00669,-0.02174 -0.01388,-0.04458 -0.02149,-0.06842l-0.05754,0.14384c-0.02081,0.05575 -0.07455,0.09544 -0.13755,0.09544c-0.037,0 -0.0708,-0.01369 -0.09662,-0.03628c-0.02582,0.02259 -0.05962,0.03628 -0.09662,0.03628c-0.01824,0 -0.0357,-0.00333 -0.05181,-0.00941c-0.02647,0.02592 -0.06271,0.0419 -0.10269,0.0419c-0.06683,0 -0.12323,-0.04466 -0.14097,-0.10577l-0.08739,-0.27674l0.00329,-0.00104l-0.00682,-0.01228c-0.00009,-0.00079 -0.00019,-0.00157 -0.00028,-0.00236c-0.02686,0.03439 -0.06872,0.05651 -0.11574,0.05651c-0.06821,0 -0.12555,-0.04653 -0.14202,-0.10957l-0.0764,-0.26741l0.00205,-0.00059l-0.00431,-0.00835c-0.00274,-0.01763 -0.00579,-0.03604 -0.00912,-0.05514c-0.01485,0.05324 -0.03184,0.10634 -0.05118,0.15934l0.04382,0.01348l-0.08535,0.2774c-0.01741,0.06163 -0.07406,0.10679 -0.14126,0.10679c-0.07425,0 -0.13563,-0.05514 -0.14542,-0.12671l-0.0126,-0.08189l-0.00541,0.04055c-0.00859,0.07288 -0.07057,0.12941 -0.14576,0.12941c-0.08106,0 -0.14678,-0.06572 -0.14678,-0.14678c0,-0.00469 0.00022,-0.00932 0.00065,-0.0139l0.02424,-0.29083l0.01429,0.00119l0.00061,-0.00459c0.00446,-0.03339 0.00873,-0.0668 0.01283,-0.10021c-0.03143,-0.5025 0.02443,-1.01557 0.02464,-1.5222c0,0 0,-0.00001 0,-0.00001l0.00005,-0.27238v0c0.00001,-0.07411 0.05496,-0.13539 0.12633,-0.14534c0.00863,-0.09872 0.01822,-0.19738 0.02915,-0.29597c0,0 0.01621,-0.14588 0.16209,-0.12967c0.14588,0.01621 0.12967,0.16209 0.12967,0.16209c-0.00297,0.02665 -0.00584,0.05329 -0.00862,0.07995c0.01725,-0.00712 0.03615,-0.01105 0.05597,-0.01105c0.05641,0 0.10539,0.03182 0.12996,0.0785l-0.00565,-0.07345c-0.00037,-0.00424 -0.00055,-0.00853 -0.00055,-0.01286c0,-0.08106 0.06572,-0.14678 0.14678,-0.14678c0.07426,0 0.13563,0.05514 0.14542,0.12671l0.03231,0.21003c0.01624,0.10569 0.03653,0.21435 0.05818,0.32483c0.00324,0.00924 0.00643,0.01856 0.00957,0.02799c0.01435,-0.00469 0.02967,-0.00722 0.04559,-0.00722c0.07215,0 0.13214,0.05206 0.14446,0.12066l0.04987,0.24933c0.00613,-0.08531 0.01635,-0.16385 0.03174,-0.23247c-0.00048,-0.02977 -0.00128,-0.05894 -0.00246,-0.08742l-0.00077,-0.0062c-0.00094,-0.0067 -0.00142,-0.01354 -0.00142,-0.0205c0,-0.00365 0.00013,-0.00726 0.00039,-0.01084c-0.00075,-0.01366 -0.00159,-0.02715 -0.00254,-0.04046l0.002,-0.00523h-0.00209v-0.23189c0,-0.08106 0.06572,-0.14678 0.14678,-0.14678c0.08106,0 0.14678,0.06572 0.14678,0.14678v0.22795c0.00121,0.01684 0.00245,0.03366 0.00371,0.05045l0.05999,0.2637l-0.02782,0.00633l0.00141,0.01131c0.00387,0.02447 0.00792,0.04912 0.01211,0.07395c0.14554,0.43183 0.19938,0.89023 0.30047,1.34875c0.04664,0.21154 0.15282,0.42089 0.18221,0.63367c0.00458,0.03313 -0.00886,0.10288 -0.01607,0.14627l0.00629,-0.02134c0.00854,-0.03164 0.02739,-0.05904 0.05272,-0.07838c0.21117,-0.57852 0.08542,-1.49698 0.1002,-2.07749l0.02258,-0.02557l-0.01107,-0.00559l0.07751,-0.15356c0.02364,-0.04937 0.07407,-0.08346 0.13245,-0.08346c0.06881,0 0.12655,0.04734 0.14244,0.11123l0.0764,0.28013l-0.03394,0.00926c0.20522,0.60167 0.23205,1.26371 0.30016,1.89812c0.00353,0.03291 0.0082,0.06758 0.01357,0.10362c0.02159,0.02556 0.03461,0.05859 0.03461,0.09467c0,0.0101 -0.00102,0.01996 -0.00296,0.02949l-0.00617,0.03345c0.00783,0.0468 0.01582,0.09478 0.02327,0.14324c-0.00079,-0.17096 -0.00588,-0.34178 -0.015,-0.51287c-0.01563,-0.29332 -0.03821,-0.58562 -0.0607,-0.87848l0.00171,-0.00565h-0.00181v-0.27053c0,-0.06437 0.04144,-0.11906 0.09909,-0.13886c-0.01004,-0.27678 -0.02055,-0.52815 -0.04643,-0.71634l0.00174,-0.00559l-0.00218,0.00014l-0.0132,-0.21097c-0.00025,-0.00348 -0.00037,-0.00698 -0.00037,-0.01052c0,-0.08106 0.06572,-0.14678 0.14678,-0.14678c0.07367,0 0.13467,0.05428 0.14518,0.12503l0.03825,0.2295l-0.02218,0.0037c0.0031,0.02215 0.0063,0.04443 0.0096,0.06684zM241.59251,169.32013c-0.01452,0.15737 -0.03792,0.30944 -0.07437,0.45165c-0.00864,0.03369 -0.03822,0.08437 -0.0774,0.14049c0.00417,0.01361 0.00641,0.02805 0.00641,0.04303c0,0.01091 -0.00119,0.02153 -0.00344,0.03176l-0.05698,0.28488c-0.01371,0.06839 -0.02793,0.13919 -0.04276,0.21194c0.01142,0.0107 0.02112,0.02321 0.02866,0.03707c0.00836,-0.05573 0.01671,-0.11147 0.02508,-0.16721l0.02852,-0.19013c0.00956,-0.07182 0.07105,-0.12722 0.14549,-0.12722c0.06082,0 0.11301,0.037 0.13527,0.08972l0.02704,-0.0676c-0.03949,-0.23011 -0.09268,-0.4822 -0.14151,-0.73839zM240.76728,169.49251c-0.00351,0.01061 -0.00715,0.02117 -0.01093,0.03168l0.02443,0.00977c-0.0044,-0.01356 -0.0089,-0.02738 -0.01349,-0.04145zM239.74666,167.46281c-0.00077,-0.04468 -0.00074,-0.08926 0.00018,-0.13371l-0.03527,0.00529c0.01256,0.04261 0.02423,0.08542 0.0351,0.12842zM241.09513,173.6428c-0.02753,-0.02692 -0.04775,-0.06377 -0.06218,-0.10729c-0.01217,0.35878 -0.02188,0.7174 -0.03377,1.0759c0.02959,-0.30164 0.07029,-0.60412 0.09169,-0.90683c0.00146,-0.0206 0.00288,-0.04119 0.00427,-0.06178zM241.14852,172.18424c0.00377,-0.28518 0.00489,-0.5705 0.00558,-0.85632c-0.00043,0.00167 -0.00085,0.00335 -0.00128,0.00502c-0.00749,0.05487 -0.01558,0.10977 -0.02418,0.16472c0.00808,0.31461 -0.01511,0.63406 -0.03891,0.95125c0.01131,-0.03266 0.02246,-0.0654 0.03344,-0.09819c0.00826,-0.05519 0.01669,-0.11071 0.02535,-0.16647z" fill="#ffd84f" stroke-width="0.5"/><path d="M243.47325,176.04071c0,-0.00017 0,-0.00034 0,-0.00051l0.00082,-0.27373c0.00005,-0.01675 0.00009,-0.03362 0.00012,-0.05061c-0.02455,-0.02624 -0.03959,-0.0615 -0.03959,-0.10027c0,-0.00021 0,-0.00042 0,-0.00063l0.0006,-0.16388h0.00004l-0.00004,-0.00009c0.00141,-0.28053 -0.00126,-0.57951 0.0034,-0.88451c-0.08532,-0.57012 0.09115,-1.19027 0.17246,-1.76404l-0.01171,-0.00117l0.02905,-0.29048c0.00343,-0.03907 0.02217,-0.07376 0.05018,-0.09802c0.0259,-0.34272 0.07618,-0.67592 0.16951,-0.97615l-0.04855,-0.01079l0.06305,-0.28374c0.00837,-0.04175 0.03445,-0.07709 0.07007,-0.09786c0.00896,-0.08957 0.02047,-0.17817 0.03522,-0.26526l0.00804,-0.11902c0.00189,-0.03217 0.01414,-0.06155 0.03346,-0.08486c0.01765,-0.07328 0.03815,-0.14511 0.06196,-0.21514l-0.06064,-0.01896l0.0866,-0.27699c0.01762,-0.06131 0.07411,-0.10616 0.14109,-0.10616c0.08106,0 0.14678,0.06572 0.14678,0.14678v0.29355c0,0.62547 0.04194,1.25152 -0.0429,1.85853c0.00278,0.01128 0.00425,0.02307 0.00425,0.03521c0,0.00791 -0.00063,0.01568 -0.00183,0.02326l-0.04116,0.28811l-0.00636,-0.00091c-0.00452,0.06708 -0.00837,0.13814 -0.01185,0.21255c0.00593,0.27298 -0.00879,0.54844 -0.0328,0.82484c-0.01638,0.35062 -0.04172,0.72098 -0.09333,1.07389c0.00467,0.31315 -0.00023,0.6429 -0.08298,0.92792c-0.00015,0.01712 -0.00022,0.03423 -0.00022,0.05133v0.02703l0.03426,0.00857l-0.0379,0.15161c-0.00579,0.02554 -0.01825,0.04855 -0.03544,0.06711c0.00029,0.00376 0.00043,0.00755 0.00043,0.01139v0.24835c0,0.44853 0.01697,0.90347 0.00449,1.35326c0.003,0.00948 0.00506,0.01938 0.00607,0.02959l0.03273,0.28992l-0.0011,0.00012l0.00144,0.00316c0.00342,0.05059 0.00776,0.10297 0.01266,0.15682c0.10175,0.2943 0.10902,0.70255 0.12193,1.02314c0.00132,0.00269 0.00256,0.00542 0.00372,0.00819l0.11786,0.26519l-0.04792,0.0213c0.18032,0.33505 0.27035,0.70265 0.33978,1.08253c0.16151,0.42158 0.34332,0.85735 0.49166,1.28924l0.06104,0.09265l-0.02441,0.01608c0.0073,0.02212 0.0145,0.04423 0.0216,0.06631c0.13063,0.19858 0.21632,0.40857 0.28618,0.63146c0.07416,0.01324 0.10665,0.09038 0.10665,0.09038l0.06385,0.15188c0.07465,0.22618 0.10259,0.34987 0.09873,0.4907l0.01728,-0.00144l0.02071,0.24853c0.32804,0.73843 0.69044,1.57362 0.71704,2.33345c0.18858,0.55209 0.36468,1.12167 0.36698,1.66828l0.05165,-0.00457l0.0257,0.29062c0.00048,0.00484 0.00073,0.00975 0.00073,0.01472c0,0.00043 0,0.00085 -0.00001,0.00128c0.04602,0.02478 0.07729,0.0734 0.07729,0.12932c0,0.00176 -0.00003,0.00351 -0.00009,0.00526l-0.00904,0.29269l-0.00156,-0.00005l0.00134,0.00481c-0.00524,0.05432 -0.00938,0.1087 -0.01278,0.16306c0.02662,0.52648 0.03538,1.08488 -0.14996,1.5639l0.05012,0.01671l-0.07622,0.22867c-0.01069,0.03475 -0.03393,0.064 -0.06443,0.08246c-0.04063,0.19845 -0.09246,0.38914 -0.15973,0.56494c-0.00112,0.01991 -0.00173,0.03856 -0.00177,0.05582l-0.0191,0.00909l0.0176,0.00293l-0.00701,0.04207l0.00616,0.00123l-0.03812,0.19057c-0.01125,0.06262 -0.06221,0.11145 -0.12588,0.11949c-0.0264,0.08711 -0.05365,0.17336 -0.08168,0.25848c0.05495,0.02121 0.09393,0.07454 0.09393,0.13698c0,0.03243 -0.01052,0.06241 -0.02833,0.0867l-0.16963,0.23749l-0.0057,-0.00407c-0.03992,0.0627 -0.08079,0.12561 -0.12265,0.18836c-0.19484,0.37118 -0.4291,0.72783 -0.61672,1.10307v0l-0.07587,0.15175c-0.02353,0.04965 -0.07411,0.08398 -0.1327,0.08398c-0.08106,0 -0.14678,-0.06572 -0.14678,-0.14678c0,-0.01091 0.00119,-0.02153 0.00344,-0.03176l0.00555,-0.02776c-0.10515,0.09204 -0.23028,0.17679 -0.35625,0.1762c-0.01159,0.01843 -0.02717,0.0341 -0.04552,0.04581l-0.0322,0.02122c0.0036,0.14306 -0.13702,0.33991 -0.34124,0.5105c-0.26988,0.22543 -0.58592,0.35709 -0.91822,0.39605c-0.23492,0.06646 -0.47097,0.09639 -0.66162,0.06458c-0.19385,0.11702 -0.39898,0.20921 -0.51309,0.25857c-0.60419,0.2613 -1.28025,0.34294 -1.92729,0.24959c-0.0178,0.06101 -0.07415,0.10559 -0.14092,0.10559c-0.00157,0 -0.00314,-0.00002 -0.0047,-0.00007l-0.29279,-0.00808l0.00016,-0.00601l-0.01788,0.00444c-0.1001,-0.02734 -0.20021,-0.05469 -0.30031,-0.08203c-0.12819,-0.03598 -0.42463,-0.14728 -0.70211,-0.29975c-0.22442,0.07786 -0.51083,0.08899 -0.76995,0.04515c-0.8331,-0.14095 -1.98056,-0.85228 -2.73294,-1.61248c-0.27902,-0.23205 -0.54478,-0.46787 -0.79267,-0.6666l-0.00329,-0.0082l-0.00261,0.00261l-0.11594,-0.11595v0c-0.02656,-0.02656 -0.04299,-0.06326 -0.04299,-0.10379c0,-0.08106 0.06572,-0.14678 0.14678,-0.14678c0.03358,0 0.06452,0.01128 0.08925,0.03024l0.1534,0.11506l-0.01453,0.01937c0.00277,0.00218 0.00557,0.00436 0.00838,0.00655c0.00088,0.00037 0.00176,0.00075 0.00264,0.00112c0.02082,-0.01133 0.04468,-0.01776 0.07004,-0.01776c0.02465,0 0.04788,0.00608 0.06828,0.01681l0.15195,0.07597c0,0 0.04387,0.02193 0.06821,0.0658l0.03776,0.02443l-0.01686,0.02606c0.00801,0.00462 0.01603,0.00928 0.02403,0.01396c0.33645,0.06239 0.7433,0.37307 1.09714,0.69485c0.42637,0.27986 0.82946,0.58979 1.02181,0.90414l0.07773,-0.03492l0.06566,0.14615c0.00205,0.00431 0.0039,0.00874 0.00554,0.01327c0.05378,0.02629 0.10817,0.05152 0.16322,0.07557c0.10262,0.04483 0.40872,0.12079 0.70625,0.15188c-0.03192,-0.02692 -0.05219,-0.06722 -0.05219,-0.11224c0,-0.03096 0.00959,-0.05969 0.02596,-0.08337c-0.03384,-0.06697 -0.04682,-0.13521 -0.03176,-0.20343c0.02914,-0.13197 0.16344,-0.20098 0.33411,-0.23413c-0.28238,-0.20713 -0.58224,-0.38522 -0.87395,-0.58711l-0.02076,0.02769l-0.23348,-0.17511c-0.01447,-0.01061 -0.02693,-0.02381 -0.03669,-0.03892l-0.0518,-0.03529c-0.03973,-0.02626 -0.06594,-0.07134 -0.06594,-0.12253c0,-0.08106 0.06572,-0.14678 0.14678,-0.14678c0.02939,0 0.05676,0.00864 0.07971,0.02351l0.14242,0.08901l0.0899,0.0295c0.24023,0.07883 0.48835,0.13674 0.73661,0.19299c-0.0529,-0.01727 -0.10274,-0.0333 -0.14881,-0.04746l-0.00146,-0.00112l-0.00019,0.00058l-0.22867,-0.07622c-0.05998,-0.01844 -0.10357,-0.07429 -0.10357,-0.14032c0,-0.08106 0.06572,-0.14678 0.14678,-0.14678c0.01026,0 0.02027,0.00105 0.02994,0.00306l0.28564,0.05356l-0.00569,0.03034c0.7161,0.00456 1.46075,0.17686 2.17783,0.18335l0.25637,0.00023c0.00001,0 0.00001,0 0.00002,0c0.081,0.00007 0.14664,0.06576 0.14664,0.14678c0,0.06881 -0.04734,0.12655 -0.11123,0.14244l-0.28013,0.0764l-0.01419,-0.05204c-0.03829,0.01234 -0.0766,0.02331 -0.11496,0.03305c0.01154,0.02097 0.01811,0.04505 0.01811,0.07068c0,0.07475 -0.05588,0.13646 -0.12816,0.14561l-0.08915,0.01273c0.05078,0.01219 0.10174,0.02354 0.15287,0.03366c0.0221,-0.32174 0.87658,-0.2129 1.35741,-0.13912c0.00255,-0.02771 0.01097,-0.05427 0.02424,-0.07969c-0.00651,-0.01165 -0.01207,-0.0239 -0.01656,-0.03677c-0.09302,-0.26651 0.02173,-0.37217 0.17616,-0.42506c-0.00353,-0.00481 -0.00697,-0.00998 -0.01031,-0.01556c-0.02871,-0.04786 -0.02831,-0.08843 -0.01679,-0.12035c-0.00413,-0.01889 -0.00413,-0.03247 -0.00413,-0.03247l0.09789,-0.21569c0.03612,-0.01273 0.07335,-0.02771 0.11145,-0.04446c0.01954,-0.03809 0.05524,-0.06652 0.09806,-0.07623l0.11534,-0.02883c0.20567,-0.10948 0.42394,-0.24261 0.62657,-0.33799c0.0601,-0.04796 0.1179,-0.09898 0.17262,-0.15415l0.00692,-0.00281l-0.00152,-0.00185l0.21675,-0.17825c0.02547,-0.02127 0.05825,-0.03406 0.09402,-0.03406c0.08106,0 0.14678,0.06572 0.14678,0.14678c0,0.03796 -0.01441,0.07255 -0.03806,0.09861l-0.09295,0.10328c0.06837,0.0073 0.12271,0.06156 0.13014,0.12989c0.1614,-0.14685 0.32367,-0.29279 0.48689,-0.43785l0.15231,-0.1523v0c0.02656,-0.02656 0.06326,-0.04299 0.10379,-0.04299c0.08106,0 0.14678,0.06572 0.14678,0.14678c0,0.02279 -0.00519,0.04436 -0.01446,0.0636l-0.12017,0.26437l-0.03286,-0.01494c-0.04872,0.1607 -0.10324,0.31744 -0.14934,0.48134c0.03788,0.01762 0.06699,0.05093 0.07897,0.09159l0.09093,-0.02273c0.01236,-0.00338 0.02536,-0.00518 0.03879,-0.00518c0.06889,0 0.1267,0.04746 0.1425,0.11147c0.00483,-0.00656 0.00941,-0.01261 0.01369,-0.01808c0.07396,-0.09441 0.14555,-0.19163 0.21498,-0.29094c0.13814,-0.32414 0.32081,-0.66894 0.53973,-0.87263c0.03831,-0.06855 0.07595,-0.13714 0.11297,-0.20557l0.08237,-0.15202c0.0244,-0.04722 0.07367,-0.07949 0.13048,-0.07949c0.01182,0 0.02331,0.0014 0.03432,0.00403c0.07036,-0.27668 0.16996,-0.53699 0.30806,-0.77387c-0.04612,-0.06108 -0.0157,-0.14064 -0.0157,-0.14064c0.11948,-0.31249 0.29965,-0.78371 0.43676,-1.14231c0.01732,-0.17514 0.04288,-0.34808 0.08528,-0.51832c-0.01186,0.00309 -0.02429,0.00474 -0.03712,0.00474c-0.07403,0 -0.13526,-0.05481 -0.14533,-0.12606l-0.00114,-0.00717c-0.03884,-0.02079 -0.06724,-0.05855 -0.07529,-0.10337l-0.03812,-0.19057l0.00382,-0.00076l-0.00533,-0.00829c-0.00656,-0.0891 -0.01458,-0.17589 -0.02427,-0.26092c-0.11553,-0.2778 -0.18485,-0.67704 -0.23677,-1.0592c-0.03461,-0.1005 -0.07306,-0.20199 -0.11571,-0.30558c0,0 -0.0485,-0.11778 0.05459,-0.17908c-0.02156,-0.17387 -0.04191,-0.32726 -0.06489,-0.44166l0.00534,-0.01486h-0.0061v-0.15459c0,-0.05991 0.0359,-0.11144 0.08736,-0.13425c-0.04266,-0.20807 -0.082,-0.39335 -0.12078,-0.53546l-0.03782,-0.13867c-0.00394,-0.01327 -0.00606,-0.02732 -0.00606,-0.04186c0,-0.0376 0.01413,-0.07189 0.03738,-0.09786c-0.09326,-0.26634 -0.19533,-0.53036 -0.30035,-0.79315c-0.01258,0.01025 -0.0269,0.01846 -0.04244,0.02412c0.01779,0.09368 0.03606,0.18432 0.0568,0.26923l-0.0067,0.01793h0.0078v0.19324c0,0.08106 -0.06572,0.14678 -0.14678,0.14678c-0.07367,0 -0.13467,-0.05428 -0.14518,-0.12502l-0.03825,-0.2295l0.00557,-0.00093c-0.03671,-0.07241 -0.07264,-0.14553 -0.10789,-0.21924c-0.01902,0.0113 -0.03828,0.01784 -0.05769,0.0202c-0.01812,0.01811 -0.04052,0.03259 -0.06795,0.04242c-0.28969,0.10381 -0.42791,-0.37322 -0.49164,-0.60199c-0.02441,-0.01946 -0.04247,-0.04654 -0.0506,-0.07763l-0.06344,-0.22204c-0.26033,-0.10055 -0.41885,-0.57919 -0.47338,-0.76794c-0.24627,-0.85239 -0.73654,-1.78041 -0.82676,-2.68033l-0.0426,0.00947l-0.06299,-0.28347c-0.00273,-0.0112 -0.00418,-0.02289 -0.00418,-0.03493c0,-0.08106 0.06572,-0.14678 0.14678,-0.14678c0.05636,0 0.1053,0.03177 0.12989,0.07837l0.00444,-0.13137l0.00134,0.00004l-0.00115,-0.0041c0.00016,-0.00177 0.00031,-0.00354 0.00047,-0.0053c-0.06319,-0.68413 -0.09985,-1.49967 0.02505,-2.19871c0.00167,-0.04763 0.00255,-0.09164 0.0024,-0.13138l0.00026,-0.00027h-0.00026v-0.0063l-0.01304,-0.00058l0.01312,-0.29247c0.00304,-0.07838 0.06754,-0.14099 0.14667,-0.14099c0.0154,0 0.03025,0.00237 0.0442,0.00677l0.0024,-0.04789c0.00215,-0.04966 0.02898,-0.09293 0.06853,-0.11784c-0.0619,-0.01724 -0.10731,-0.07402 -0.10731,-0.14141zM243.72154,176.17374l0.003,-0.02997c-0.00793,0.00804 -0.01679,0.01518 -0.0264,0.02123c0.00811,0.00226 0.01593,0.00519 0.0234,0.00874zM243.24035,192.58403c0.00642,-0.00598 0.01284,-0.01195 0.01927,-0.01792c-0.01564,0.00716 -0.03132,0.01402 -0.04702,0.02062c0.00925,-0.00089 0.0185,-0.00179 0.02775,-0.0027zM245.10202,192.6143c0.0132,-0.03272 0.02623,-0.06548 0.03917,-0.09825c-0.01204,0.01788 -0.02417,0.03566 -0.03638,0.05329c-0.05874,0.12866 -0.11082,0.2605 -0.15663,0.39419c-0.03168,0.09246 -0.21532,0.30002 -0.12375,0.26582c0.10612,-0.03963 0.21258,-0.11413 0.31687,-0.21066c-0.04938,-0.02364 -0.08348,-0.07407 -0.08348,-0.13247c0,-0.00917 0.00084,-0.01815 0.00245,-0.02686l0.03819,-0.22916l0.00481,0.0008zM239.27157,194.1575c0.00753,0.03169 0.01249,0.06216 0.01505,0.09144c0.44864,0.00725 0.89614,0.0424 1.34387,0.07269c-0.29941,-0.04451 -0.5943,-0.09293 -0.87553,-0.12809c-0.02791,-0.00349 -0.24417,-0.02123 -0.48339,-0.03604zM241.87502,193.85986c0.03958,-0.03213 0.07881,-0.06483 0.11767,-0.09799c-0.21895,-0.02148 -0.43645,-0.04483 -0.65506,-0.0762c-0.01196,-0.00171 -0.0256,-0.0036 -0.04058,-0.00562c0.01602,0.01882 0.02737,0.04174 0.03226,0.06696c0.10995,0.04161 0.22037,0.07996 0.33047,0.09434c0.06905,0.00902 0.14098,0.01514 0.21523,0.01851zM241.49331,194.64166c-0.10553,0.00282 -0.23573,0.00003 -0.35503,-0.00437c-0.09919,0.04184 -0.20051,0.07789 -0.30412,0.10718c0.04842,0.00215 0.09745,0.00383 0.14721,0.00504c0.0255,-0.00431 0.30789,-0.06442 0.51194,-0.10785zM238.97109,194.1417c-0.04718,-0.00192 -0.09241,-0.00341 -0.13424,-0.00432c-0.07319,0.02497 -0.14429,0.05497 -0.21291,0.09109c-0.00205,0.00108 -0.00392,0.00215 -0.00562,0.00321c0.01072,0.01504 0.02363,0.03022 0.03847,0.04547c0.05009,0.01481 0.12782,0.02818 0.19121,0.04367c0.01855,-0.01596 0.04114,-0.02736 0.06602,-0.03246l0.10812,-0.02455c-0.00725,-0.03574 -0.02381,-0.07628 -0.05106,-0.1221zM238.84415,193.65118c0.07639,0.05719 0.15159,0.11656 0.22516,0.17909c0.0619,0.00216 0.12183,0.00594 0.17722,0.01034c0.14641,-0.02624 0.31136,-0.05522 0.48152,-0.08076c-0.03487,-0.01184 -0.0695,-0.02449 -0.10392,-0.03799l-0.00956,0.00614c-0.24971,-0.01152 -0.51237,-0.03253 -0.77041,-0.07682zM243.08681,193.18263c-0.01845,0.00072 -0.03683,0.00115 -0.05512,0.00128c-0.00526,0.00503 -0.01052,0.01007 -0.01578,0.01512c0.00675,-0.00151 0.01296,-0.00291 0.01857,-0.00421c0.01741,-0.00402 0.03486,-0.00808 0.05233,-0.01219zM240.91394,193.953c-0.02026,-0.00824 -0.04016,-0.01678 -0.05957,-0.02562c-0.02642,0.00558 -0.05298,0.01073 -0.07965,0.01548c0.04637,0.00313 0.09281,0.00649 0.13922,0.01015zM244.04726,192.2421c-0.1087,0.09835 -0.21701,0.19708 -0.32497,0.29622c0.06788,-0.00534 0.13581,-0.00985 0.20388,-0.01306l-0.00618,-0.02781l0.0425,-0.00945c0.02252,-0.08375 0.05151,-0.16706 0.08477,-0.2459zM243.99472,179.89132c-0.00254,0.0047 -0.00511,0.00938 -0.00771,0.01403l0.01013,0.0076c-0.00081,-0.00721 -0.00161,-0.01442 -0.00242,-0.02163zM244.07992,180.58618c-0.02594,-0.19412 -0.05016,-0.38865 -0.0726,-0.58371l-0.0756,0.10081c-0.01004,0.0137 -0.02241,0.02559 -0.03651,0.03509c0.05693,0.1419 0.12014,0.29219 0.18472,0.44781z" fill="#ffc442" stroke-width="0.5"/><path d="M243.34661,191.7998c-0.13924,-0.04641 -0.09283,-0.18566 -0.09283,-0.18566l0.04697,-0.14091c0.06646,-0.19938 0.13385,-0.39576 0.18472,-0.59977c0.35071,-1.36648 0.44731,-2.9179 0.09541,-4.29145c-0.4141,-1.24703 -0.71479,-2.51719 -1.12725,-3.7575c-0.38575,-1.54305 -0.56948,-2.85562 -0.56948,-4.45609c0.00386,-1.34669 0.34271,-2.95755 0.66114,-4.25938c0.24636,-1.23295 0.29829,-2.37467 0.09236,-3.60723c0,0 -0.02413,-0.14478 0.12065,-0.16891c0.14478,-0.02413 0.16891,0.12065 0.16891,0.12065c0.2109,1.26869 0.15812,2.45279 -0.09552,3.71989c-0.32408,1.26455 -0.65824,2.8826 -0.65399,4.19498c0,1.57458 0.17834,2.85627 0.55777,4.37402c0.41405,1.23905 0.71046,2.51222 1.12725,3.75749c0.35427,1.44511 0.25911,3.00668 -0.09247,4.44472c-0.05295,0.21131 -0.12217,0.41487 -0.19102,0.62141l-0.04697,0.14091c0,0 -0.04641,0.13924 -0.18566,0.09283z" fill="#f6cc53" stroke-width="0"/><path d="M239.72892,193.5846c-0.13924,0.04641 -0.18566,-0.09283 -0.18566,-0.09283l-0.04697,-0.1409c-0.37232,-1.1594 -0.56526,-2.35444 -0.80528,-3.5546c0.00311,-1.48732 -0.18859,-2.96835 -0.18859,-4.47649c0,-1.69838 0.18451,-3.39648 0.18859,-5.08708c0.34346,-1.71731 0.56291,-3.71844 0.56291,-5.48087c0,-1.43132 0.04975,-2.88528 0.04697,-4.32112c0,0 0,-0.14678 0.14678,-0.14678c0.14678,0 0.14678,0.14678 0.14678,0.14678c-0.00255,1.43597 -0.04697,2.88981 -0.04697,4.32112c0,1.77242 -0.21892,3.78268 -0.56434,5.5098c0.00449,1.67991 -0.18716,3.3702 -0.18716,5.05815c0,1.5006 0.18418,2.967 0.18716,4.44756c0.23452,1.17264 0.39771,2.36597 0.79165,3.4907l0.04697,0.1409c0,0 0.04641,0.13924 -0.09283,0.18566z" fill="#f6cc53" stroke-width="0"/><path d="M235.20911,188.84392c-0.14239,0.0356 -0.17799,-0.1068 -0.17799,-0.1068l-0.04223,-0.17255c-0.15925,-0.32007 -0.24257,-0.71498 -0.24346,-1.07213c-0.27502,-1.63567 0.03378,-3.13594 0.42934,-4.70716c0.47222,-1.18419 1.11364,-2.3157 1.50173,-3.51853c0.38559,-1.54472 0.74565,-2.95461 0.74565,-4.56189c0,-0.89115 -0.11836,-1.8387 -0.03544,-2.72002c0.05005,-0.53201 0.22941,-1.07287 0.22332,-1.60109c0,0 0,-0.14678 0.14678,-0.14678c0.14678,0 0.14678,0.14678 0.14678,0.14678c-0.00486,0.54172 -0.17282,1.08291 -0.22455,1.62794c-0.08276,0.87197 0.03668,1.81091 0.03668,2.69318c0,1.63444 -0.3641,3.07314 -0.75735,4.64396c-0.41076,1.2047 -1.02676,2.33682 -1.50426,3.52677c-0.38193,1.53975 -0.68108,2.99027 -0.4161,4.59263c-0.00087,0.33266 0.07675,0.69706 0.22623,0.99449l0.0517,0.2032c0,0 0.0356,0.14239 -0.1068,0.17799z" fill="#f6cc53" stroke-width="0"/><path d="M238.35386,172.89596c-0.00827,0.04263 -0.01647,0.08528 -0.02457,0.12794c0.0709,0.05359 0.11672,0.13861 0.11672,0.23433v0.34565c-0.00001,0.27997 0.0072,0.5281 -0.00199,0.75636c0.00707,0.07793 0.01106,0.15852 0.01247,0.24109l0.04526,0.39863l-0.00602,0.00068l0.00743,0.01585c0.00017,0.22211 0.00535,0.43541 0.00652,0.64122c0.02725,0.31563 0.0046,0.67753 -0.03766,1.04076c0.03833,0.03031 0.06803,0.07545 0.0913,0.13023c0.01625,-0.00279 0.03296,-0.00424 0.05001,-0.00424c0.02507,0 0.04941,0.00314 0.07263,0.00905c-0.10811,-1.23769 -0.02939,-2.48219 -0.13475,-3.72389c-0.0173,-0.20384 -0.03019,-0.40487 -0.03651,-0.60374c-0.04701,0.13339 -0.10008,0.26369 -0.16084,0.39008zM238.52899,181.11165c-0.02626,0.05117 -0.06711,0.09361 -0.11705,0.12185c-0.02576,0.07011 -0.05244,0.13962 -0.08009,0.20846c-0.06183,0.15394 -0.2246,0.49694 -0.43739,0.7591c0.37792,-0.26315 0.61813,-0.7667 0.76461,-1.33099zM238.78615,169.7386c0.09616,0 0.18152,0.04624 0.23507,0.11769c0.04631,-0.16909 0.03884,-0.30939 -0.15416,-0.25662l-0.06576,0.07301c-0.02006,0.03062 -0.03801,0.04857 -0.03801,0.04857c-0.00723,0.0068 -0.01437,0.01369 -0.02142,0.02067c0.01444,-0.00218 0.02923,-0.00332 0.04429,-0.00332zM238.37946,169.28007l0.21056,-0.19803c1.09161,-0.20162 1.1351,0.59431 0.81434,1.40479c-0.33817,0.84541 -0.34154,1.67715 -0.26805,2.57437c0.12201,1.48957 -0.01992,2.98559 0.22662,4.46476c0.35296,1.80584 -0.01514,6.48259 -2.95625,5.23075c-0.79661,-1.30021 0.26508,-3.09348 0.65786,-4.39735c0.2472,-0.82061 0.30669,-1.74723 0.4497,-2.59056c-0.00597,-1.91744 -0.65443,-4.76469 0.74287,-6.36339c0.01812,-0.02642 0.03341,-0.04171 0.03341,-0.04171l0.02808,-0.02641c0.00975,-0.01046 0.01959,-0.02086 0.02953,-0.0312c0,0 0.01132,-0.01132 0.03132,-0.02603z" fill="#ffe68a" stroke-width="0.5"/><path d="M237.65946,181.78597c-0.09098,-0.18195 0.00718,-0.30086 0.07603,-0.35673l-0.02911,-0.24799l0.01548,-0.00182l-0.01736,-0.04072c0.02712,-0.15901 0.06778,-0.32594 0.13262,-0.47903c-0.05003,-0.04664 -0.08374,-0.11054 -0.09165,-0.18222l-0.05713,-0.45701l0.00332,-0.00041l-0.0044,-0.00963c-0.09378,-1.6767 -0.05769,-3.35737 0.04283,-5.03369c0.02569,-0.42834 -0.02767,-1.49411 0.21183,-1.85235c0.01567,-0.02344 0.03257,-0.04574 0.05052,-0.06706l-0.00526,-0.00451l0.03241,-0.03782l0.02951,-0.28833c0.01344,-0.14966 0.13921,-0.26696 0.29237,-0.26696c0.08177,0 0.15574,0.03344 0.20897,0.08738c0.00175,-0.00003 0.00351,-0.00005 0.00527,-0.00005c0.16212,0 0.29355,0.13143 0.29355,0.29355c0,0.00198 -0.00002,0.00396 -0.00006,0.00594l-0.00884,0.50864l-0.00251,-0.00004l0.00218,0.00969c-0.01292,0.15349 -0.02717,0.28896 -0.04447,0.41258c0.01056,0.46536 0.0315,0.9077 0.01378,1.34422c0.00837,0.31335 -0.0058,0.62124 -0.06654,0.91464l0.04705,0.00523l-0.02787,0.2508l0.02396,0.00479l-0.05654,0.28271c-0.02464,0.1372 -0.14462,0.24131 -0.28892,0.24131c-0.07777,0 -0.14849,-0.03024 -0.20101,-0.07962c-0.02676,0.98991 -0.02682,1.97918 0.01988,2.9691c0.10926,0.04274 0.18665,0.14908 0.18665,0.27348c0,0.01021 -0.00052,0.0203 -0.00154,0.03024l-0.03353,0.36884c0.14897,0.01412 0.2655,0.13957 0.2655,0.29223c0,0.01835 -0.00168,0.0363 -0.0049,0.05371l-0.0567,0.3402l-0.02699,-0.0045l0.01197,0.06016c-0.01366,0.01402 -0.02732,0.02803 -0.04098,0.04205l0.01537,0.00961l-0.20589,0.32943c-0.01277,0.0728 -0.03354,0.1434 -0.06225,0.20899l-0.25276,0.20226c0,0 -0.26256,0.13129 -0.39385,-0.13127z" fill="#ffe68a" stroke-width="0.5"/><path d="M238.0601,170.74381c-0.20758,-0.20757 -0.00001,-0.41515 -0.00001,-0.41515l-0.00968,0.04689c0.1469,-0.36857 0.41932,-0.69458 0.73242,-0.93829c0,0 0.23484,-0.17613 0.41098,0.05871c0.17613,0.23484 -0.05871,0.41098 -0.05871,0.41098c-0.23367,0.16669 -0.44194,0.40321 -0.53496,0.67475l-0.12489,0.16211c0,0 -0.20757,0.20758 -0.41515,0.00001z" fill="#ffe68a" stroke-width="0.5"/><path d="M241.03496,164.43927c0.06639,-0.06608 0.14949,-0.07878 0.23738,-0.05704c0.07195,-0.02327 0.16711,-0.03679 0.28813,-0.03679c0.02818,0.00911 0.37888,0.12046 0.39931,0.13524c0.22212,0.16081 0.22734,0.3175 0.12735,0.43405c-0.00212,0.00883 -0.0048,0.01767 -0.00807,0.02648c-0.00761,0.02048 -0.01598,0.03941 -0.02507,0.05687c0.00138,0.14629 -0.08844,0.21615 -0.21338,0.22849c-0.22539,0.07915 -0.5947,0.00472 -0.7917,-0.18485c-0.21803,-0.09208 -0.33597,-0.25429 -0.14949,-0.52202c0.02999,-0.04305 0.07715,-0.06875 0.13555,-0.08045z" fill="#e4ab52" stroke-width="0.5"/><path d="M242.31743,165.43066c0,0.01343 -0.00181,0.02643 -0.00518,0.03879l-0.0054,0.0216c0.00683,0.01694 0.01058,0.03544 0.01058,0.05482c0,0.01091 -0.00119,0.02153 -0.00345,0.03176l-0.02468,0.12342c0.03246,0.13655 0.01056,0.32088 -0.0321,0.5018c0.00196,0.10649 0.00262,0.21365 0.00262,0.32237v0.05761c0,0 0,0.09671 -0.0785,0.13313c-0.00897,0.01493 -0.02053,0.02813 -0.03404,0.03898c0.00017,0.02564 -0.00107,0.05026 -0.00416,0.07389c0.00097,0.03269 0.00146,0.06588 0.00148,0.09965v0.05761c0,0 0,0.14678 -0.14678,0.14678c-0.03681,0 -0.06439,-0.00923 -0.08505,-0.02306c-0.05907,0.02777 -0.132,0.05283 -0.22162,0.07544c-0.01242,0.00341 -0.02549,0.00523 -0.03899,0.00523c-0.00581,0 -0.01154,-0.00034 -0.01717,-0.00099c-0.04136,-0.00327 -0.09589,-0.02214 -0.12036,-0.09364c-0.33256,0.12521 -0.89315,0.02839 -1.07273,-0.19225c-0.15579,-0.19141 -0.06324,-0.46584 0.09024,-0.67994l-0.00422,-0.00999c0.02073,-0.06417 0.03694,-0.12222 0.05093,-0.17572c0.00159,-0.02586 0.00533,-0.05063 0.01064,-0.07224l0.00181,-0.00533l-0.00014,-0.00005l0.03157,-0.09472c0.02397,-0.09007 0.04994,-0.16933 0.09646,-0.25039l-0.05331,-0.03554l0.11395,-0.17093c0.02613,-0.04047 0.07163,-0.06726 0.12339,-0.06726c0.03113,0 0.06,0.00969 0.08375,0.02623c0.00281,-0.07859 0.06741,-0.14144 0.14668,-0.14144h0.17283v0.03131c0.18143,-0.03328 0.35151,-0.03131 0.57609,-0.03131h0.17282c0,0 0.02687,0 0.05761,0.01149c0.0219,0.00819 0.04577,0.02221 0.0633,0.04622c0.07843,0.00299 0.14109,0.06751 0.14109,0.14667zM241.29394,165.67573c-0.01898,0.01826 -0.03407,0.03652 -0.0458,0.05582c0.01589,-0.01679 0.03569,-0.02984 0.05796,-0.03766c-0.00448,-0.00573 -0.00855,-0.0118 -0.01216,-0.01816zM241.5787,165.84784l-0.00817,-0.00272l0.01635,-0.04905l-0.09855,-0.02464c0.00849,0.01857 0.01322,0.03922 0.01322,0.06097c0,0.00917 -0.00084,0.01815 -0.00245,0.02686l-0.00098,0.0059c0.01237,-0.00338 0.02539,-0.00519 0.03883,-0.00519c0.0107,0 0.02113,0.00114 0.03118,0.00332zM240.80971,166.78559c0.00204,-0.08408 0.04864,-0.17892 0.116,-0.26222c0.01321,-0.04314 0.03017,-0.08748 0.04938,-0.13165l-0.00386,-0.08228c-0.00444,-0.03138 -0.00822,-0.06311 -0.01132,-0.09499c-0.00973,0.03816 -0.01966,0.07673 -0.02947,0.11595c0,0 -0.02451,0.09805 -0.11422,0.11108c-0.01364,0.06245 -0.06704,0.11004 -0.13234,0.1149c-0.04596,0.07242 -0.072,0.13576 -0.01058,0.16657c0.04802,0.02408 0.09344,0.04491 0.13641,0.06265z" fill="#c9a044" stroke-width="0.5"/><path d="M241.87318,166.79173c0.13925,0.04641 0.09283,0.18566 0.09283,0.18566l-0.0741,0.17332c-0.21521,0.20421 -0.81028,0.36014 -1.02988,0.0267c-0.00734,-0.01115 -0.01432,-0.02198 -0.02095,-0.03249c-0.01791,-0.01015 -0.03459,-0.02221 -0.04955,-0.03692c-0.02074,-0.02038 -0.02308,-0.04853 -0.01632,-0.08027c-0.0167,-0.03506 -0.02733,-0.06461 -0.0327,-0.08924c-0.04053,-0.02612 -0.06736,-0.07166 -0.06736,-0.12346c0,-0.00275 0.00007,-0.00549 0.00023,-0.0082l0.00707,-0.14559c-0.05806,-0.05122 -0.06215,-0.0991 -0.00406,-0.17968l-0.02096,-0.01258l0.04484,-0.07473l0.01201,-0.13208c0.00601,-0.07555 0.06922,-0.13498 0.14631,-0.13498c0.07287,0 0.13334,0.0531 0.14481,0.12272c0.02281,0.02389 0.03764,0.05546 0.04021,0.09044c0.0407,-0.02809 0.08552,-0.05601 0.13035,-0.07894c-0.06032,-0.0636 -0.11345,-0.17559 -0.1543,-0.30705c-0.03231,-0.00555 -0.05551,-0.01943 -0.07217,-0.03649c-0.00383,0.0003 -0.00771,0.00046 -0.01162,0.00046c-0.06985,0 -0.12831,-0.04879 -0.14314,-0.11416l-0.0379,-0.15161l0.00706,-0.00176l-0.01034,-0.0159c-0.00005,-0.01459 -0.00027,-0.0289 -0.00061,-0.04294c-0.04628,-0.02469 -0.07778,-0.07346 -0.07778,-0.12959v-0.19324h0.0279l-0.01673,-0.05617c0.0162,-0.01028 0.03239,-0.02057 0.04859,-0.03085l-0.01677,-0.01677l0.02744,-0.02744c-0.00283,-0.05027 0.00122,-0.10244 0.00645,-0.14447l0.00279,-0.00446l-0.00193,-0.00037l0.04038,-0.20851c0.01198,-0.06901 0.07217,-0.12149 0.14461,-0.12149c0.05618,0 0.10499,0.03157 0.12966,0.07793c0.06369,0.0059 0.11557,0.05249 0.12943,0.11352l0.0379,0.15161l-0.03427,0.00857v0.08454c0.04048,0.14493 0.06021,0.29573 0.0681,0.42884c0.00621,-0.06101 0.01377,-0.12972 0.02291,-0.20669l0.00468,-0.00678l-0.00319,-0.00072l0.04205,-0.18576c0.01368,-0.0669 0.07286,-0.11722 0.1438,-0.11722c0.052,0 0.09768,0.02704 0.12376,0.06783v-0.07564c0,-0.08106 0.06572,-0.14678 0.14678,-0.14678c0.08051,0 0.14589,0.06483 0.14677,0.14513c0.02607,-0.04079 0.07176,-0.06784 0.12376,-0.06784c0.03612,0 0.0692,0.01305 0.09477,0.03469l0.02088,-0.01253c0.02251,-0.01404 0.0491,-0.02216 0.07759,-0.02216c0.08106,0 0.14678,0.06572 0.14678,0.14678c0,0.01343 -0.0018,0.02643 -0.00518,0.03879l-0.03679,0.14716c-0.00687,0.04052 -0.01888,0.08108 -0.03533,0.12016v0.08037h-0.00296c0.00094,0.00222 0.00188,0.00443 0.00282,0.00665l-0.00258,0.00644l0.00213,0.00019l-0.02644,0.29086c-0.00319,0.04003 -0.02243,0.07554 -0.0513,0.10008l-0.00013,0.00087c-0.00797,0.06296 -0.05583,0.11349 -0.11747,0.12546c-0.00545,0.02809 -0.01892,0.05332 -0.03792,0.07322c-0.01148,0.06962 -0.07195,0.12272 -0.14481,0.12272c-0.0251,0 -0.04873,-0.0063 -0.0694,-0.01741c-0.12185,0.32096 -0.25473,0.59576 -0.34026,0.59631c-0.12132,0.00078 -0.28328,-0.24083 -0.34337,-0.16254l-0.07177,0.14103c0.00068,0.07409 0.00127,0.14499 0.04049,0.17791l0.04823,-0.08038l0.19093,0.11456c0.03574,0.02061 0.06199,0.05584 0.07056,0.09753c0.11307,-0.03196 0.21891,-0.07356 0.25487,-0.11272l0.00319,-0.05857c0,0 0.04641,-0.13924 0.18566,-0.09283zM241.47285,166.3696c0.00461,-0.03424 0.00999,-0.07238 0.01583,-0.11161c-0.01152,0.00402 -0.0237,0.00665 -0.03632,0.00768c0.01282,0.025 0.02016,0.05904 0.02049,0.10394z" fill="#c9a044" stroke-width="0.5"/><path d="M241.40484,164.58863c0.08461,-0.0142 0.1921,-0.008 0.30424,0.01231c0.12836,-0.07127 0.33806,-0.01666 0.49206,0.07586c0.03061,0.00985 0.05985,0.02261 0.08653,0.04071c0.24722,0.1677 0.2325,0.30704 0.10905,0.39408c-0.02722,0.09381 -0.09822,0.13372 -0.18759,0.14227c-0.18762,0.14438 -0.51934,0.11237 -0.75281,-0.02004c-0.21048,-0.06606 -0.38968,-0.17766 -0.42564,-0.30422c-0.00708,-0.02491 -0.01175,-0.0482 -0.01422,-0.06995l-0.06644,-0.06644c-0.02656,-0.02656 -0.04299,-0.06326 -0.04299,-0.10379c0,-0.08106 0.06572,-0.14678 0.14678,-0.14678c0.0016,0 0.00319,0.00003 0.00477,0.00008l0.21697,0.00608l-0.00014,0.0048l0.016,-0.00349c0.041,0.01174 0.07877,0.02467 0.11343,0.03853z" fill="#e4ab52" stroke-width="0.5"/></g></g></svg>